<svg width="280" height="231" viewBox="0 0 280 231" fill="none" xmlns="http://www.w3.org/2000/svg">
<path d="M68.5009 104.215C68.2881 105.386 67.0798 106.093 66.5146 107.082C65.7528 108.415 64.9745 109.411 63.8911 110.512C60.5884 113.866 56.9909 117.151 53.8844 120.668C48.5011 126.763 44.5218 133.806 41.5166 141.319" stroke="black" stroke-width="1.61246" stroke-linecap="round"/>
<path d="M72.8863 80.9411C72.7705 78.857 69.9392 76.9538 68.5013 75.6941C64.2349 71.9565 60.7535 67.8197 57.5577 63.1389C56.0143 60.8783 54.9167 58.4186 54.1472 55.7932C53.2931 52.8793 55.2604 53.2821 57.5015 53.2821C65.905 53.2821 74.1816 54.6111 82.5557 55.0811C88.9793 55.4416 95.4371 54.966 101.782 53.8818C103.656 53.5615 107.648 52.5042 108.94 50.9959C109.255 50.6294 106.876 50.1343 106.767 50.0965C105.096 49.5174 103.559 48.5419 101.932 47.8478C98.2632 46.2825 95.3953 45.0095 92.7685 41.9449C90.311 39.0779 87.6619 36.307 85.3291 33.3437C84.5433 32.3456 84.145 31.8357 83.9986 30.664C83.8173 29.2141 83.6667 29.2465 85.4415 29.0712C89.5375 28.6666 93.8159 28.9962 97.9218 28.9962C104.82 28.9962 111.665 29.0614 118.535 28.3216C122.09 27.9387 125.732 27.3562 129.197 26.4664C133.27 25.4206 137.478 25.0221 141.584 24.0865C148.406 22.5323 155.287 21.0093 162.085 19.4018C165.633 18.5627 168.867 17.5553 172.541 17.5279C177.294 17.4924 182.009 17.5457 186.708 18.3711C193.178 19.5077 198.296 23.4034 204.023 26.2228C206.637 27.5101 209.055 29.2276 211.781 30.2705C215.781 31.8008 220.152 32.8602 224.298 33.9059C229.574 35.2363 234.545 37.457 239.796 38.7405C243.531 39.6537 247.254 40.6115 251.002 41.4765C253.392 42.0281 255.811 42.3697 258.216 42.8069C259.453 43.0318 257.747 44.5188 257.317 44.9245C253.409 48.6055 247.608 50.6011 242.7 52.5325C236.036 55.1549 228.924 56.2251 222.106 58.3229C220.829 58.7159 220.106 59.2822 218.995 59.8595C218.496 60.1192 214.883 60.818 216.241 60.3655" stroke="black" stroke-width="1.61246" stroke-linecap="round"/>
<path d="M228.382 57.3296C228.993 58.2733 230.234 58.7577 231.156 59.3534C233.08 60.5969 235.1 61.7966 237.171 62.7827C240.277 64.2615 243.53 65.0614 246.878 65.7622C250.739 66.5703 254.325 68.1107 258.065 69.3226C261.458 70.4223 264.968 71.074 268.447 71.8337C268.878 71.9278 270.428 71.9357 270.527 72.527C270.707 73.6108 269.444 74.9101 268.896 75.7314C267.741 77.464 266.589 79.1249 265.224 80.6973C259.227 87.6023 252.791 94.4844 245.266 99.68C241.966 101.959 238.648 104.539 235.616 107.176C232.522 109.866 228.756 111.724 225.347 113.997" stroke="black" stroke-width="1.61246" stroke-linecap="round"/>
<path d="M241.201 103.878C245.187 108.462 246.649 115.606 247.779 121.38C249.218 128.739 250.159 136.457 249.634 143.942C249.147 150.875 246.978 157.967 243.075 163.768C242.242 165.007 241.313 165.829 240.714 167.254C239.66 169.759 238.704 172.233 237.978 174.862C237.346 177.151 236.293 180.424 237.828 182.47" stroke="black" stroke-width="1.61246" stroke-linecap="round"/>
<path d="M249.971 143.68C251.68 147.099 253.028 150.622 254.487 154.155C256.197 158.298 258.093 162.166 259.378 166.485C260.124 168.996 261.068 171.446 261.514 174.037C262.415 179.268 262.429 184.71 262.451 190.003C262.492 199.995 262.382 210.099 257.335 218.992C255.781 221.73 254.275 224.245 251.545 225.907C249.942 226.882 247.715 226.958 245.923 227.331" stroke="black" stroke-width="1.61246" stroke-linecap="round"/>
<path d="M61.08 129.513C59.449 132.775 57.9951 136.085 56.264 139.313C55.0249 141.624 54.5075 143.934 53.8279 146.453C53.2199 148.706 52.0437 150.788 51.6729 153.105C50.8955 157.964 50.9681 162.736 51.8603 167.591C53.1136 174.41 57.9704 180.372 62.7665 185.168" stroke="black" stroke-width="1.61246" stroke-linecap="round"/>
<path d="M51.6367 169.99C50.0108 173.693 49.9502 178.746 49.9502 182.789C49.9502 186.053 49.9885 189.372 50.6248 192.589C51.8576 198.822 54.8734 203.993 58.9262 208.761C59.5819 209.532 60.6468 210.239 61.4935 210.804C63.6794 212.261 64.8486 214.106 66.5156 216.051C68.7696 218.68 72.5932 220.439 75.5853 221.935" stroke="black" stroke-width="1.61246" stroke-linecap="round"/>
<path d="M50.6241 196.636C49.6791 196.531 48.7852 195.566 47.832 195.306C43.1743 194.036 37.4611 195.096 33.6464 197.873C31.6089 199.357 30.0451 201.18 28.1746 202.82C27.037 203.818 25.7239 204.552 24.6329 205.612C21.6224 208.539 18.5581 210.398 14.6262 211.928C12.1804 212.879 9.32128 212.538 6.73705 212.49C5.5436 212.468 7.33494 212.453 7.65527 212.527C8.80511 212.795 9.82676 213.181 10.6723 214.026C13.8624 217.216 2.81649 217.272 1.78992 218.299C-1.34517 221.434 5.76148 221.597 7.28049 221.597C16.5155 221.597 25.7683 221.26 35.0144 221.26C39.4056 221.26 43.7968 221.26 48.188 221.26C50.8399 221.26 53.6672 221.532 56.2833 220.997C57.8429 220.678 59.6571 216.352 59.0567 214.851" stroke="black" stroke-width="1.61246" stroke-linecap="round"/>
<path d="M47.2509 193.938C46.8398 190.649 35.61 191.624 33.9462 191.877C31.0978 192.309 30.1861 193.009 29.1864 195.475C29.004 195.925 27.6565 198.338 28.3619 197.986" stroke="black" stroke-width="1.61246" stroke-linecap="round"/>
<path d="M46.9139 192.251C44.5344 190.37 41.9949 187.934 38.8373 187.548C36.4053 187.25 32.9242 187.476 31.0605 186.854" stroke="black" stroke-width="1.61246" stroke-linecap="round"/>
<path d="M52.9857 193.938C52.2114 193.706 51.5915 192.468 51.1493 191.895C49.3368 189.548 47.5842 186.897 45.1902 185.093C43.6143 183.905 39.555 181.08 37.4697 182.47" stroke="black" stroke-width="1.61246" stroke-linecap="round"/>
<path d="M64.791 217.887C65.6668 222.704 74.7576 219.311 77.7585 218.486C78.9782 218.151 79.9131 217.715 80.9816 217.062C82.5088 216.129 84.3771 215.9 86.0037 215.188C88.3665 214.154 91.1558 214.461 93.6868 214.514C96.3651 214.569 98.2338 215.262 100.096 217.1C101.06 218.052 102.207 218.887 103.075 219.929C103.584 220.539 103.413 221.718 103.75 222.459C105.838 227.053 78.0698 227.462 74.7977 227.256C72.5327 227.114 71.3179 226.615 70.2066 224.67C69.6993 223.782 69.1068 222.578 69.7569 221.578C70.5071 220.424 73.1485 219.236 74.5728 219.236" stroke="black" stroke-width="1.61246" stroke-linecap="round"/>
<path d="M137.986 223.958C140.557 220.424 145.457 219.537 149.436 218.749C154.697 217.706 159.182 218.191 164.521 218.561C168.135 218.812 172.542 218.48 176.064 219.592C177.972 220.195 178.155 221.317 178.125 223.171C178.08 225.97 177.236 226.033 174.715 226.638C169.85 227.806 164.268 227.669 159.274 227.669C153.335 227.669 147.143 228.218 141.247 227.481C139.771 227.297 135.149 227.133 137.312 224.97" stroke="black" stroke-width="1.61246" stroke-linecap="round"/>
<path d="M140.684 221.934C140.684 218.28 136.583 215.153 134.2 212.752C132.524 211.063 130.793 209.325 128.991 207.767C127.563 206.534 125.856 205.711 124.493 204.394C118.424 198.531 113.102 191.892 107.628 185.505" stroke="black" stroke-width="1.61246" stroke-linecap="round"/>
<path d="M83.3427 118.044C82.7464 119.312 82.5641 120.792 82.1808 122.13C81.4895 124.542 80.4507 126.898 79.9696 129.363C79.0476 134.088 78.1238 138.691 77.9645 143.548C77.7774 149.257 78.9262 154.587 79.9696 160.17C81.5468 168.61 87.1128 178.817 95.1483 182.47" stroke="black" stroke-width="1.61246" stroke-linecap="round"/>
<path d="M96.834 148.402C96.834 153.715 97.2448 158.053 99.9072 162.757C101.294 165.206 102.962 167.485 104.704 169.69C106.087 171.439 107.296 173.493 109.014 174.937C113.512 178.715 117.851 182.695 122.544 186.237C128.341 190.612 134.306 196.3 142.033 196.3" stroke="black" stroke-width="1.61246" stroke-linecap="round"/>
<path d="M122.808 137.271C122.808 139.592 122.846 141.908 123.239 144.204C124.122 149.37 127.423 153.681 131.053 157.322C135.409 161.692 140.816 164.655 146.569 166.766C148.002 167.292 149.295 167.628 150.804 167.628" stroke="black" stroke-width="1.61246" stroke-linecap="round"/>
<path d="M144.732 153.799C147.13 157.921 149.526 162.468 152.715 166.035C154.531 168.066 156.758 168.209 159.237 168.64" stroke="black" stroke-width="1.61246" stroke-linecap="round"/>
<path d="M157.213 155.485C157.801 155.779 158.362 156.57 158.768 156.966C162.319 160.429 166.119 163.804 170.143 166.71C177.698 172.166 186.194 176.331 193.979 181.458" stroke="black" stroke-width="1.61246" stroke-linecap="round"/>
<path d="M198.026 153.799C197.919 158.411 196.242 163.23 193.697 167.066C191.914 169.754 189.344 173.714 186.558 175.386" stroke="black" stroke-width="1.61246" stroke-linecap="round"/>
<path d="M209.831 141.319C210.306 145.119 210.571 148.8 210.393 152.637C210.141 158.079 208.796 161.646 205.371 165.886C203.004 168.816 200.443 171.798 197.575 174.262C196.047 175.576 195.636 175.464 193.978 175.049" stroke="black" stroke-width="1.61246" stroke-linecap="round"/>
<path d="M206.796 130.188C210.227 135.334 216.329 137.931 222.312 136.934" stroke="black" stroke-width="1.61246" stroke-linecap="round"/>
<path d="M210.507 141.656C212.171 143.32 218.51 141.953 220.476 141.656C224.202 141.093 227.052 138.992 230.07 136.934" stroke="black" stroke-width="1.61246" stroke-linecap="round"/>
<path d="M237.828 124.791C240.734 132.616 241.186 140.23 239.664 148.552C238.013 157.581 231.446 165.017 226.359 172.35" stroke="black" stroke-width="1.61246" stroke-linecap="round"/>
<path d="M217.928 162.232C212.559 173.185 207.019 185.161 198.739 194.22C193.577 199.867 186.771 204.001 180.262 207.88C175.704 210.598 171.212 212.624 166.32 214.514" stroke="black" stroke-width="1.61246" stroke-linecap="round"/>
<path d="M227.035 171.001C226.319 176.728 222.559 182.512 220.008 187.566C217.337 192.857 213.369 198.132 209.083 202.22C204.921 206.191 200.354 209.76 196.584 214.138C193.359 217.884 190.024 220.86 185.884 223.62" stroke="black" stroke-width="1.61246" stroke-linecap="round"/>
<path d="M169.355 220.922C169.481 219.92 174.317 219.087 175.09 218.973C178.089 218.533 181.113 218.516 184.122 218.149C188.16 217.656 194.746 215.541 195.59 220.922C195.951 223.224 193.791 224.572 192.067 225.644C189.091 227.495 185.018 227.668 181.611 227.668C179.173 227.668 173.947 228.364 172.316 226.169C170.839 224.181 169.601 223.083 171.042 220.922" stroke="black" stroke-width="1.61246" stroke-linecap="round"/>
<path d="M207.471 224.633C207.471 222.203 207.864 219.967 209.457 217.999C212 214.858 216.859 212.509 220.869 212.152C225.743 211.719 230.854 210.913 234.717 214.776C235.928 215.987 236.784 217.578 237.079 219.311C237.391 221.144 234.709 222.824 233.593 223.808C231.957 225.25 229.852 227.67 227.54 227.968C222.585 228.608 217.404 228.68 212.418 228.68C208.741 228.68 205.925 227.738 202.411 226.656" stroke="black" stroke-width="1.61246" stroke-linecap="round"/>
<path d="M193.978 225.308C197.031 224.162 200.183 223.621 203.422 223.621" stroke="black" stroke-width="1.61246" stroke-linecap="round"/>
<path d="M111.34 222.946C111.724 221.407 125.38 222.608 127.081 222.608C129.696 222.608 132.247 223.041 134.839 223.358C135.81 223.477 136.667 223.958 137.65 223.958" stroke="black" stroke-width="1.61246" stroke-linecap="round"/>
<path d="M81.3193 94.0962C83.5103 94.2954 85.8812 96.0498 87.6719 97.2069C90.3286 98.9235 92.9451 100.673 95.8984 101.854C99.6986 103.374 103.693 104.122 107.423 105.846C114.121 108.941 120.974 111.605 127.642 114.747C138.141 119.693 150.22 120.241 161.598 120.743" stroke="black" stroke-width="1.61246" stroke-linecap="round"/>
<path d="M49.9502 79.9295C60.588 79.9295 71.351 80.7722 81.9566 79.8171C86.7402 79.3863 92.2257 79.105 96.8355 77.5684" stroke="black" stroke-width="1.61246" stroke-linecap="round"/>
<path d="M64.791 89.0362C68.0691 88.724 71.3495 87.9472 74.5354 87.181C88.3997 83.8471 102.059 79.8942 115.724 75.8813" stroke="black" stroke-width="1.61246" stroke-linecap="round"/>
<path d="M118.759 95.1084C118.064 96.795 116.245 98.3779 115.049 99.6058C110.486 104.289 105.668 108.575 100.188 112.161C95.44 115.269 90.4065 117.664 85.3096 120.125C83.2332 121.128 81.1488 122.374 78.957 123.105" stroke="black" stroke-width="1.61246" stroke-linecap="round"/>
<path d="M134.949 109.612C129.125 115.165 122.038 119.707 114.973 123.479C110.317 125.966 105.373 128.069 100.207 129.176" stroke="black" stroke-width="1.61246" stroke-linecap="round"/>
<path d="M202.748 100.168C205.378 102.714 207.808 105.833 207.808 109.612" stroke="black" stroke-width="1.61246" stroke-linecap="round"/>
<path d="M214.891 91.3975C218.846 93.8249 221.882 96.8692 226.303 98.6308C229.522 99.9137 232.862 100.761 236.141 101.854" stroke="black" stroke-width="1.61246" stroke-linecap="round"/>
<path d="M229.059 87.0122C233.031 91.0813 239.618 92.315 244.893 93.5709C250.867 94.9932 256.678 95.7821 262.789 95.7821" stroke="black" stroke-width="1.61246" stroke-linecap="round"/>
<path d="M169.018 47.5483C171.969 53.6156 171.716 60.8422 171.716 67.4493" stroke="black" stroke-width="1.61246" stroke-linecap="round"/>
<path d="M175.765 54.2939C177.239 59.2384 178.277 64.1789 178.744 69.3227C178.816 70.108 178.846 70.2478 178.463 70.8219" stroke="black" stroke-width="1.61246" stroke-linecap="round"/>
<path d="M154.177 22.5875C154.384 21.7597 155.088 21.1006 155.601 20.4512C157.249 18.3635 158.797 16.1944 160.66 14.286C166.102 8.71546 173.424 3.4667 180.824 1" stroke="black" stroke-width="1.61246" stroke-linecap="round"/>
<path d="M166.994 17.1908C170.656 14.4446 176.93 13.6924 181.161 12.6185C185.799 11.441 190.01 10.2185 194.653 11.4566" stroke="black" stroke-width="1.61246" stroke-linecap="round"/>
<path d="M173.739 22.9245C175.357 21.8458 178.871 23.0697 180.523 23.4305C182.787 23.9249 183.955 24.7073 185.545 26.2976" stroke="black" stroke-width="1.61246" stroke-linecap="round"/>
<path d="M133.307 94.0409C141.657 90.8257 150.349 87.7518 159.305 86.8379" stroke="black" stroke-width="1.61246" stroke-linecap="round"/>
<path d="M143.66 98.8804C144.91 98.7668 146.322 97.2584 147.187 96.517C149.767 94.3043 152.104 91.84 154.802 89.7642" stroke="black" stroke-width="1.61246" stroke-linecap="round"/>
<path d="M151.201 106.308C155.408 102.364 159.22 98.0384 163.694 94.3779" stroke="black" stroke-width="1.61246" stroke-linecap="round"/>
<path d="M185.416 92.2393C188.509 94.1727 189.893 97.901 191.494 101.018" stroke="black" stroke-width="1.61246" stroke-linecap="round"/>
<path d="M183.616 88.0757C187.187 88.8507 190.704 90.5596 193.945 92.2024C196.352 93.422 198.824 94.7064 200.836 96.5167" stroke="black" stroke-width="1.61246" stroke-linecap="round"/>
<path d="M185.416 86.2745C187.987 85.7472 190.481 86.3099 192.857 87.3374C196.034 88.7119 199.172 90.3428 202.073 92.2395" stroke="black" stroke-width="1.61246" stroke-linecap="round"/>
<path d="M164.257 95.2783C165.934 93.6742 168.225 92.6313 170.347 91.7518C172.022 91.0576 173.82 90.6397 175.587 90.27C176.432 90.093 178.073 89.6945 178.663 90.4951M180.983 103.363C180.125 104.087 179.287 104.611 178.263 105.07C177.435 105.44 176.54 106.031 175.68 106.295" stroke="black" stroke-width="1.61246" stroke-linecap="round"/>
<path d="M177.087 103.381C177.477 104.94 178.212 106.239 178.212 107.883" stroke="black" stroke-width="1.61246" stroke-linecap="round"/>
<path d="M179.788 101.806C180.29 102.427 180.736 103.089 181.226 103.719C181.44 103.994 181.978 104.465 182.033 104.845C182.082 105.189 182.152 105.509 182.152 105.858" stroke="black" stroke-width="1.61246" stroke-linecap="round"/>
<path d="M174.274 117.45C174.198 118.321 173.568 119.166 173.117 119.87C172.083 121.485 170.802 122.728 169.335 123.953C166.703 126.15 163.973 127.953 160.769 129.155" stroke="black" stroke-width="1.61246" stroke-linecap="round"/>
<path d="M177.763 116.774C178.625 117.001 179.278 117.555 179.926 118.131C180.787 118.897 181.785 119.308 182.815 119.788C185.459 121.022 188.111 122.137 190.893 123.04C193.106 123.757 195.153 124.402 197.496 124.59C199.586 124.758 201.553 125.039 203.648 124.878" stroke="black" stroke-width="1.61246" stroke-linecap="round"/>
<path d="M200.835 114.862C200.891 115.529 201.525 116.386 202.073 116.738C204.361 118.205 207.684 117.905 210.264 118.257C211.971 118.49 213.91 118.742 215.529 119.37C216.526 119.757 217.439 119.963 218.505 120.039" stroke="black" stroke-width="1.61246" stroke-linecap="round"/>
<path d="M228.859 113.511C227.885 115.509 225.901 117.235 224.226 118.632C223.786 118.998 222.877 119.926 222.219 119.926" stroke="black" stroke-width="1.61246" stroke-linecap="round"/>
<path d="M190.143 140.972C190.801 141.63 191.099 142.372 191.406 143.248C191.871 144.576 192.515 145.929 192.794 147.312C192.873 147.704 193.038 149.203 192.619 149.413" stroke="black" stroke-width="1.61246" stroke-linecap="round"/>
<path d="M188.342 144.574C188.427 146.775 188.767 148.953 188.229 151.101" stroke="black" stroke-width="1.61246" stroke-linecap="round"/>
<path d="M129.254 60.9519C129.999 60.9726 130.305 61.2351 130.961 61.5084C131.789 61.8535 132.635 62.1429 133.468 62.4713C134.853 63.017 136.123 63.7771 137.501 64.3283C138.317 64.6548 139.074 65.1669 139.896 65.5163C140.979 65.9767 142.039 66.4849 143.122 66.9419C145.383 67.8956 147.905 68.3566 150.313 68.7801C151.702 69.0246 153.068 69.3641 154.446 69.668C155.373 69.8725 156.323 69.9477 157.24 70.187C159.285 70.7203 161.416 70.8761 163.493 71.2499C165.252 71.5665 167.039 71.8699 168.808 72.119C170.107 72.3019 171.25 72.7693 172.572 72.7693C176.958 72.7693 181.169 71.6719 185.371 70.5183C186.894 70.1002 188.333 69.5089 189.816 68.9677C191.346 68.4096 192.992 68.0425 194.468 67.342C195.496 66.8544 196.599 66.5116 197.67 66.1353C198.916 65.6974 200.048 65.027 201.29 64.5971C203.21 63.9325 205.131 63.2713 207.086 62.6901C208.338 62.318 209.481 61.5679 210.713 61.152C211.889 60.7547 213.076 60.3993 214.227 59.939" stroke="black" stroke-width="1.61246" stroke-linecap="round"/>
<path d="M148.5 63.8779C149.638 63.9863 150.826 64.78 151.864 65.2035C155.364 66.6311 159.165 67.1451 162.775 68.2172C164.637 68.7705 166.182 69.7436 167.952 70.4619C169.78 71.2041 171.538 71.445 173.485 71.6436" stroke="black" stroke-width="1.61246" stroke-linecap="round"/>
<path d="M195.096 63.3149C194.646 63.6751 194.07 63.9369 193.57 64.2028C190.924 65.6112 188.252 66.5463 185.404 67.4792C180.711 69.0168 176.154 70.8122 171.349 71.981" stroke="black" stroke-width="1.61246" stroke-linecap="round"/>
<path d="M142.198 67.8169C142.198 68.8415 142.959 69.541 143.186 70.493C143.3 70.9732 143.897 71.8086 144.293 72.1437C144.92 72.6741 145.541 72.8439 146.256 73.2254C147.844 74.0721 149.641 74.3004 151.39 73.9507C153.056 73.6173 155.738 73.3414 156.379 71.4184" stroke="black" stroke-width="1.61246" stroke-linecap="round"/>
<path d="M182.489 71.7565C183.384 72.6015 184.516 73.7154 185.728 74.0075C187.697 74.4819 189.844 74.6543 191.831 74.12C192.449 73.9536 193.282 73.8937 193.763 73.4135C194.34 72.8361 194.851 72.1962 195.407 71.619C196.23 70.7642 196.888 69.4271 197.12 68.2676" stroke="black" stroke-width="1.61246" stroke-linecap="round"/>
<path d="M147.601 69.7303C147.224 69.7303 147.743 70.0439 147.894 70.0617C148.027 70.0773 149.063 69.9748 148.601 69.8428C148.394 69.7838 146.651 69.4459 147.501 70.1742C148.083 70.6732 148.542 69.7862 148.113 69.3927C147.953 69.2456 147.056 68.8379 146.838 69.08C146.588 69.3578 146.936 69.757 147.15 69.8428" stroke="black" stroke-width="1.61246" stroke-linecap="round"/>
<path d="M186.09 70.8554C186.139 71.3428 186.99 71.9019 186.99 71.168C186.99 70.676 185.7 70.3834 186.09 70.9679" stroke="black" stroke-width="1.61246" stroke-linecap="round"/>
<path d="M165.158 79.1842C165.196 79.4837 165.315 80.9733 165.858 80.5536C166.257 80.246 166.561 79.4961 166.678 80.3785C166.707 80.6001 166.85 82.1078 166.94 81.9854C167.191 81.6457 167.485 80.8569 167.922 80.7224C168.112 80.664 168.232 81.4396 168.284 81.5727C168.397 81.8594 168.713 81.2757 168.822 81.1976C168.999 81.0713 169.144 82.3644 169.322 82.4981C169.714 82.7915 170.335 80.0794 170.335 81.5164C170.335 82.0517 170.33 82.5887 170.36 83.1234C170.373 83.3455 170.353 83.9309 170.51 83.7736C170.705 83.5789 170.849 82.8849 170.936 82.6732C171.169 82.1001 171.403 81.4627 171.755 80.9475C171.993 80.5982 172.341 82.5051 172.405 82.767C172.545 83.3399 172.592 83.1573 172.811 82.7295C172.87 82.6142 173.102 81.9544 173.149 82.4293C173.176 82.7031 173.252 84.5832 173.468 84.08C173.552 83.8844 174.133 82.1971 174.362 82.248C174.563 82.2927 174.773 83.9122 174.837 84.1488C175.034 84.8783 175.607 83.1894 175.675 83.0483C175.796 82.7972 176.301 81.0773 176.55 81.7853C177.067 83.253 176.84 81.4225 177.388 81.3726C177.817 81.3337 178.091 80.7425 178.426 80.5223C178.973 80.1637 179.204 81.4288 179.333 81.7353C179.733 82.6893 179.836 81.6084 179.964 81.1225C180.041 80.8307 180.215 80.5236 180.239 80.2222C180.259 79.9797 180.487 79.7915 180.465 79.4969C180.429 79.0399 179.652 78.3825 179.389 78.0963C178.742 77.3913 177.987 76.8189 177.313 76.1455C176.821 75.6532 176.45 75.1317 176.075 74.5698" stroke="black" stroke-width="1.61246" stroke-linecap="round"/>
<path d="M164.706 74.5698C164.492 74.9275 164.187 75.2105 163.844 75.4452C162.541 76.3354 161.052 77.0094 159.604 77.6211C157.246 78.6177 154.872 79.6533 152.426 80.416C149.545 81.3143 146.646 81.4986 143.66 81.7728" stroke="black" stroke-width="1.61246" stroke-linecap="round"/>
<path d="M182.152 77.3833C184.843 78.984 187.506 80.6102 190.256 82.1103" stroke="black" stroke-width="1.61246" stroke-linecap="round"/>
<path d="M184.628 82.4482C187.979 83.31 191.302 84.1275 194.713 84.7617C197.847 85.3443 200.584 85.8391 203.755 86.006C207.605 86.2086 211.316 85.517 215.128 85.1494" stroke="black" stroke-width="1.61246" stroke-linecap="round"/>
<path d="M168.421 74.3453C169.22 74.2973 170.044 74.4543 170.828 74.5641C172.733 74.8311 174.632 75.1411 176.537 75.4082C177.134 75.4919 177.723 75.5833 178.325 75.5833" stroke="black" stroke-width="1.61246" stroke-linecap="round"/>
<path d="M171.46 75.1323C171.314 75.1323 171.175 75.1448 171.035 75.1886C170.87 75.2399 170.994 75.2356 171.172 75.2511C172.107 75.3325 173.049 75.3668 173.986 75.4199C174.012 75.4214 175.937 75.377 174.961 75.7638C173.488 76.3479 171.775 76.2578 170.222 76.2578C170.187 76.2578 168.765 76.1918 169.584 76.2828C170.76 76.4135 171.949 76.5861 173.098 76.8705C173.971 77.0865 174.524 77.4958 173.373 77.4958" stroke="black" stroke-width="1.61246" stroke-linecap="round"/>
<path d="M56.3564 183.978C58.8414 192.487 61.1386 201.054 63.5493 209.585" stroke="black" stroke-width="1.61246" stroke-linecap="round"/>
<path d="M55.3496 184.841C55.8385 189.741 56.0878 193.154 56.9161 197.98C57.5447 201.642 58.2943 205.787 59.977 209.169C60.7749 210.772 61.8427 211.161 63.4056 211.598" stroke="black" stroke-width="1.61246" stroke-linecap="round"/>
<path d="M50.8896 190.308C54.813 197.953 59.5217 205.736 65.7869 211.694C68.1128 213.907 69.6242 214.938 72.4763 215.938C73.9768 216.464 75.0172 216.346 76.4963 216.346" stroke="black" stroke-width="1.61246" stroke-linecap="round"/>
<path d="M55.2061 193.185C55.9482 195.954 56.6976 198.447 58.283 200.921C61.8845 206.541 66.9714 210.956 72.6448 214.412C76.73 216.9 81.1637 218.578 85.8557 219.407C87.6948 219.731 89.3417 219.718 91.1704 219.798" stroke="black" stroke-width="1.61246" stroke-linecap="round"/>
<path d="M72.3242 189.445C72.4436 191.772 72.3845 194.603 73.2433 196.798C73.3856 197.161 73.696 197.268 74.0505 197.357" stroke="black" stroke-width="1.61246" stroke-linecap="round"/>
<path d="M78.5107 193.76C78.5107 195.506 78.9813 197.262 79.214 198.987C79.4132 200.462 79.2581 202.688 80.237 203.83" stroke="black" stroke-width="1.61246" stroke-linecap="round"/>
<path d="M89.1562 193.473C89.9269 195.294 90.3027 197.64 91.7457 199.083" stroke="black" stroke-width="1.61246" stroke-linecap="round"/>
<path d="M108.145 206.563C107.865 207.223 107.849 208.09 107.33 208.617C105.674 210.3 103.043 210.968 100.952 211.886" stroke="black" stroke-width="1.61246" stroke-linecap="round"/>
<path d="M65.4197 152.329C64.2615 154.903 64.4127 158.049 64.4127 160.817" stroke="black" stroke-width="1.61246" stroke-linecap="round"/>
<path d="M90.7383 162.831C91.7372 167.27 93.2492 171.416 95.7733 175.202" stroke="black" stroke-width="1.61246" stroke-linecap="round"/>
<path d="M142.522 166.273C149.87 178.367 161.024 187.869 172.489 195.892C175.911 198.287 179.809 200.312 182.905 203.17" stroke="black" stroke-width="1.61246" stroke-linecap="round"/>
<path d="M239.907 134.672C240.004 138.151 239.75 141.458 238.617 144.771C237.801 147.157 236.224 149.138 234.606 151.04C232.656 153.33 230.338 155.178 228.002 157.05C226.508 158.247 225.115 159.584 223.539 160.674" stroke="black" stroke-width="1.61246" stroke-linecap="round"/>
<path d="M233.406 159.862C233.587 164.885 233.33 169.729 235.567 174.353C235.706 174.642 238.632 179.826 238.978 179.48" stroke="black" stroke-width="1.61246" stroke-linecap="round"/>
<path d="M245.71 176.81C246.687 179.037 247.675 181.54 247.787 183.994C247.85 185.399 247.859 186.906 247.219 188.186" stroke="black" stroke-width="1.61246" stroke-linecap="round"/>
<path d="M252.095 166.13C253.416 169.803 254.513 173.447 255.3 177.28C256.572 183.48 256.927 189.647 256.79 195.963C256.699 200.127 256.561 204.363 255.732 208.461C255.468 209.767 255.004 211.274 254.391 212.486C253.725 213.798 253.661 213.463 252.907 214.652" stroke="black" stroke-width="1.61246" stroke-linecap="round"/>
<path d="M256.042 171.703C256.786 172.781 257.252 174.084 257.655 175.314C258.09 176.643 258.757 179.038 258.996 180.422C259.582 183.815 259.389 187.347 259.319 190.766C259.207 196.187 259.3 201.895 257.739 207.147C256.754 210.46 255.063 213.082 252.908 215.698" stroke="black" stroke-width="1.61246" stroke-linecap="round"/>
<path d="M257.318 180.525C257.437 185.132 256.807 189.677 256.035 194.21C255.513 197.275 254.856 200.178 253.913 203.135C253.125 205.61 252.587 208.151 251.811 210.629C250.577 214.572 249.035 218.363 246.716 221.799C245.843 223.093 244.847 224.609 243.498 225.455C241.228 226.88 238.744 227.092 236.191 227.538" stroke="black" stroke-width="1.61246" stroke-linecap="round"/>
<path d="M254.416 212.563C254.64 214.302 254.125 215.655 253.217 217.175C251.41 220.199 248.399 221.426 245.233 222.663C243.216 223.451 241.337 223.783 239.19 223.817C238.885 223.822 238.064 223.955 237.816 223.707" stroke="black" stroke-width="1.61246" stroke-linecap="round"/>
<path d="M253.72 214.42C253.563 216.591 252.166 218.227 250.683 219.734C247.93 222.531 244.759 223.6 240.99 224.404C238.406 224.955 235.798 225.213 233.167 225.384C232.817 225.406 232.229 225.618 232.129 225.216" stroke="black" stroke-width="1.61246" stroke-linecap="round"/>
<path d="M250.934 215.001C249.526 216.409 247.716 217.4 245.955 218.29C242.775 219.897 239.445 221.233 235.985 222.095C234.389 222.492 232.745 222.9 231.11 223.101C230.682 223.154 230.898 223.085 231.084 223.011" stroke="black" stroke-width="1.61246" stroke-linecap="round"/>
<path d="M256.622 216.046C256.894 217.381 256.228 218.34 255.397 219.399C254.765 220.204 252.79 222.381 251.966 222.998C249.198 225.073 245.399 225.385 242.131 225.952C238.594 226.564 234.975 227.289 231.381 227.519C231.17 227.532 230.603 227.671 230.852 227.422" stroke="black" stroke-width="1.61246" stroke-linecap="round"/>
<path d="M235.727 191.204C236.196 191.539 236.337 192.388 236.436 192.881C236.661 193.999 236.796 195.206 236.771 196.35C236.762 196.762 236.503 198.633 236.075 198.633" stroke="black" stroke-width="1.61246" stroke-linecap="round"/>
<path d="M240.487 190.275C241.652 192.313 242.344 194.785 242.693 197.092C242.84 198.067 242.966 198.952 242.461 199.794" stroke="black" stroke-width="1.61246" stroke-linecap="round"/>
<path d="M214.832 216.046C217.167 217.158 219.091 219.951 219.766 222.392C220.235 224.089 220.52 225.776 220.52 227.538" stroke="black" stroke-width="1.61246" stroke-linecap="round"/>
<path d="M219.011 212.331C220.399 212.545 221.778 214.105 222.712 215.04C224.14 216.467 225.556 218.004 226.414 219.851C227.269 221.69 227.819 223.407 227.833 225.461C227.838 226.231 227.833 227.77 227.833 227.77" stroke="black" stroke-width="1.61246" stroke-linecap="round"/>
<path d="M226.209 212.331C226.637 213.347 227.609 214.271 228.311 215.104C229.29 216.265 230.436 217.464 231.084 218.857C231.708 220.198 231.853 221.783 232.013 223.23C232.137 224.355 232.197 225.481 232.271 226.609C232.284 226.805 232.421 227.133 232.245 226.957" stroke="black" stroke-width="1.61246" stroke-linecap="round"/>
<path d="M179.658 218.716C180.578 220.59 180.744 222.604 180.703 224.675C180.692 225.239 180.603 227.174 180.355 227.422" stroke="black" stroke-width="1.61246" stroke-linecap="round"/>
<path d="M186.16 218.484C186.797 219.023 187.058 220.391 187.269 221.128C187.812 223.017 188.411 224.997 188.34 226.984C188.32 227.544 188.396 228.47 188.134 228.996C188.116 229.031 188.14 228.91 188.114 228.88C188.039 228.792 187.88 228.831 187.785 228.815" stroke="black" stroke-width="1.61246" stroke-linecap="round"/>
<path d="M161.202 218.6C162.386 219.97 162.636 221.966 162.872 223.682C162.991 224.54 163.224 225.537 162.943 226.378" stroke="black" stroke-width="1.61246" stroke-linecap="round"/>
<path d="M165.962 220.225C166.686 220.225 167.115 223.134 167.187 223.617C167.277 224.215 167.867 226.839 166.658 226.494" stroke="black" stroke-width="1.61246" stroke-linecap="round"/>
<path d="M149.129 218.6C150.043 218.803 150.957 219.225 151.838 219.542C152.754 219.871 153.985 220.445 154.443 221.36C155.399 223.273 155.882 225.069 156.094 227.19" stroke="black" stroke-width="1.61246" stroke-linecap="round"/>
<path d="M143.441 221.386C144.459 221.35 145.407 221.443 146.402 221.702C148.098 222.143 149.211 223.297 150.277 224.643C151.27 225.896 151.837 227.271 152.496 228.699" stroke="black" stroke-width="1.61246" stroke-linecap="round"/>
<path d="M164.802 201.535C165.397 205.105 165.594 208.561 165.266 212.163C165.1 213.992 165.15 219.507 165.15 217.671" stroke="black" stroke-width="1.61246" stroke-linecap="round"/>
<path d="M169.792 203.044C169.711 204.501 169.247 205.876 168.915 207.288C168.398 209.489 168.102 211.702 167.432 213.866C166.89 215.614 166.31 217.673 166.31 219.412" stroke="black" stroke-width="1.61246" stroke-linecap="round"/>
<path d="M185.463 210.822C185.081 213.118 183.486 214.85 182.174 216.665C181.602 217.457 181.284 218.098 181.284 219.064" stroke="black" stroke-width="1.61246" stroke-linecap="round"/>
<path d="M79.8281 217.439C80.6547 217.124 82.1257 217.471 82.8463 217.903C83.7497 218.445 84.4199 219.665 85.1099 220.431C85.7545 221.148 86.4888 221.797 87.1091 222.534C87.7363 223.279 88.1436 224.252 88.6891 225.062C88.885 225.352 89.2308 225.85 89.2308 226.145" stroke="black" stroke-width="1.61246" stroke-linecap="round"/>
<path d="M88.5342 215.93C90.4983 218.347 92.5463 220.541 93.9901 223.34C94.4059 224.146 94.8324 225.03 95.08 225.906C95.1664 226.212 95.2709 227.074 95.3831 227.074" stroke="black" stroke-width="1.61246" stroke-linecap="round"/>
<path d="M93.5264 214.42C94.4175 215.367 95.3349 216.288 96.2221 217.239C97.3017 218.395 98.5203 219.534 99.1886 220.998C99.8932 222.542 100.209 224.333 100.536 225.984C100.545 226.026 101.118 228.349 100.84 227.654" stroke="black" stroke-width="1.61246" stroke-linecap="round"/>
<path d="M92.249 213.608C93.7324 213.634 95.2156 213.69 96.6989 213.724C97.9273 213.752 99.4731 213.63 100.62 214.188C101.032 214.389 101.398 214.801 101.729 215.104C102.73 216.019 103.778 216.879 104.773 217.8C106.997 219.858 108.857 222.279 109.597 225.274C109.716 225.757 110.156 226.991 109.868 227.538C109.767 227.729 109.406 227.84 109.229 227.893C107.957 228.27 106.553 228.254 105.237 228.286C103.398 228.33 101.838 227.868 100.091 227.396C99.0088 227.103 97.9335 226.866 96.8794 226.48C96.6421 226.393 96.4407 226.377 96.1958 226.377" stroke="black" stroke-width="1.61246" stroke-linecap="round"/>
<path d="M72.6309 209.661C73.2865 211.054 74.55 211.974 75.7715 212.86C77.3722 214.021 78.6312 214.545 80.5245 214.885" stroke="black" stroke-width="1.61246" stroke-linecap="round"/>
<path d="M41.1716 209.313C39.8133 209.313 38.5028 209.337 37.1603 209.597C36.2174 209.779 35.3433 210.031 34.5162 210.519C34.295 210.649 34.103 210.761 33.8584 210.822" stroke="black" stroke-width="1.61246" stroke-linecap="round"/>
<path d="M34.0908 213.841C36.8826 212.166 40.3468 212.392 43.4935 211.867" stroke="black" stroke-width="1.61246" stroke-linecap="round"/>
<path d="M35.4844 202.929C35.9799 202.771 36.4965 202.983 36.9934 203.045C38.5191 203.236 40.147 203.09 41.5723 203.748C42.1051 203.994 42.7557 204.212 43.1974 204.612C43.3796 204.777 43.497 204.942 43.7262 205.018" stroke="black" stroke-width="1.61246" stroke-linecap="round"/>
<path d="M45.7012 217.09C46.6689 217.92 48.2809 217.939 49.4803 217.851C50.2457 217.795 51.1655 217.778 51.7375 217.206" stroke="black" stroke-width="1.61246" stroke-linecap="round"/>
<path d="M7.625 209.313C9.39107 209.249 10.9177 208.947 12.5779 208.359C15.3906 207.362 18.2402 206.608 20.9874 205.431C25.3641 203.555 29.6882 201.127 32.931 197.589" stroke="black" stroke-width="1.61246" stroke-linecap="round"/>
<path d="M166.74 81.6172C168.363 82.8169 169.665 83.8017 171.685 84.0262" stroke="black" stroke-width="1.61246" stroke-linecap="round"/>
<path d="M166.74 81.1099C167.124 81.5564 167.509 81.9892 167.98 82.3496C168.594 82.8198 169.112 82.8606 169.783 83.1385" stroke="black" stroke-width="1.61246" stroke-linecap="round"/>
<path d="M165.22 81.3633C167.018 82.7117 169.143 84.3328 171.432 84.6598" stroke="black" stroke-width="1.61246" stroke-linecap="round"/>
<path d="M172.827 83.8993C175.352 83.8838 177.801 83.6706 180.308 83.3921" stroke="black" stroke-width="1.61246" stroke-linecap="round"/>
<path d="M177.137 83.8989C176.28 84.4501 174.73 84.1427 173.756 84.1525C172.874 84.1614 172.058 84.4061 173.46 84.4061" stroke="black" stroke-width="1.61246" stroke-linecap="round"/>
<path d="M173.969 84.4064C174.857 84.2731 175.609 83.9998 176.237 83.3568C176.731 82.8505 177.745 81.6452 178.562 81.6452C178.759 81.6452 177.168 83.5761 177.026 83.7302C176.782 83.9936 175.972 84.6796 176.293 84.5191C176.681 84.3253 177.05 83.9339 177.364 83.6456C177.608 83.4219 178.626 82.449 178.583 82.5045C177.979 83.2762 176.976 83.8347 176.174 84.3571C175.609 84.7248 174.798 85.4454 174.053 85.2094C173.736 85.1087 173.511 84.8891 173.236 84.7163C172.734 84.4 171.985 84.4147 171.419 84.4064C170.876 84.3984 171.484 84.373 171.623 84.4909C171.874 84.7031 172.011 85.0111 172.137 85.301C172.437 85.9853 172.447 86.9555 172.447 87.7029C172.447 87.7645 172.4 88.2602 172.532 88.1044C173.127 87.4007 173.183 86.3894 173.567 85.5827C173.574 85.5686 173.842 87.0417 173.842 87.3296C173.842 87.64 173.842 86.586 173.842 86.3998C173.842 86.0594 173.842 87.0807 173.842 87.4212C173.842 88.1865 173.881 87.6446 173.786 87.238C173.714 86.9318 172.686 85.2105 172.631 85.3573C172.482 85.7474 172.787 86.4803 172.814 86.8929C172.855 87.5268 172.835 88.1608 172.891 88.7947C172.934 89.2796 172.955 89.7525 172.955 90.2387C172.955 90.5217 172.955 89.1986 172.955 88.9849C172.955 88.3392 172.955 87.6935 172.955 87.0478C172.955 86.1383 173.497 88.7979 173.581 89.7034C173.598 89.8836 173.568 90.3705 173.687 90.5487C173.879 90.8369 173.572 89.8626 173.462 89.5343C172.943 87.9931 172.221 86.4768 171.489 85.0262C171.054 84.1632 170.427 83.5676 169.813 82.8567C168.916 81.8183 167.488 81.307 166.361 80.5745C166.217 80.4804 165.658 79.8776 166.122 80.0251C166.887 80.2686 167.958 80.6775 168.517 81.2366" stroke="black" stroke-width="1.61246" stroke-linecap="round"/>
<path d="M171.178 82.885C172.134 83.0974 173.07 83.4207 174.017 83.6739C175.089 83.961 173.491 83.8674 173.228 83.8218C172.812 83.7499 171.024 83.4081 171.051 82.885C171.076 82.4099 171.946 82.3392 172.312 82.3849C172.609 82.422 173.054 83.0362 173.207 83.2654" stroke="black" stroke-width="1.61246" stroke-linecap="round"/>
<path d="M173.715 83.2651C174.258 83.0981 174.774 82.5715 175.279 82.3071C176.507 81.6633 178.031 81.2449 179.026 80.2503C179.253 80.0237 178.211 81.1701 178.124 81.2435C177.272 81.9613 176.34 82.6497 175.363 83.1383" stroke="black" stroke-width="1.61246" stroke-linecap="round"/>
<path d="M164.967 96.4519C165.084 95.8683 165.875 95.1387 166.298 94.7472C167.127 93.9801 168.034 93.3627 169.052 92.8736C170.719 92.0727 172.451 91.4893 174.173 90.8238C174.24 90.7978 175.128 90.4035 175.152 90.5491C175.212 90.9053 173.336 91.3935 173.152 91.4507C171.071 92.0986 168.201 92.4205 166.474 93.8597C166.031 94.2287 165.687 95.3274 166.516 94.2401C167.515 92.9316 168.378 91.7223 169.975 91.1126C171.902 90.3772 174.346 89.4663 176.462 89.6122C176.584 89.6206 177.828 89.8675 177.533 89.9856C176.834 90.2652 175.953 90.2756 175.223 90.3941C173.225 90.718 171.147 91.0625 169.235 91.7465C168.058 92.168 166.598 93.456 165.981 94.55C165.655 95.1278 166.853 93.9157 166.953 93.8034C168.15 92.4636 169.616 91.1964 171.32 90.5491C173.086 89.8787 175.478 89.8106 177.336 90.056C177.354 90.0584 178.864 90.2597 178.477 90.4645C178.305 90.5557 177.966 90.4927 177.773 90.4927" stroke="black" stroke-width="1.61246" stroke-linecap="round"/>
<path d="M130.858 60.8237C131.17 60.8861 131.504 61.3188 131.788 61.4718C132.491 61.8504 133.162 62.2694 133.859 62.6551C135.303 63.4542 136.867 63.8266 138.353 64.5288C140.939 65.7507 143.74 66.3172 146.524 66.9519C148.162 67.3254 149.7 68.0278 151.342 68.4311C154.516 69.2108 157.648 69.5548 160.915 69.7554C163.542 69.9167 166.105 69.739 168.543 70.8402C168.774 70.9445 168.821 71.0327 168.515 71.0656C167.573 71.1669 166.617 71.0445 165.698 70.8402C161.644 69.9395 157.619 69.0033 153.547 68.1776C150.84 67.6287 148.167 66.976 145.524 66.1771C143.082 65.4391 140.547 65.1192 138.114 64.3739C137.022 64.0394 135.773 63.7806 134.866 63.0496C134.332 62.6188 133.922 62.0747 133.394 61.6408C133.322 61.5819 132.351 60.7411 132.641 60.8801C133.187 61.1426 133.691 61.5482 134.211 61.8521C135.795 62.7762 137.421 63.4056 139.184 63.8949C141.974 64.6689 144.713 65.7078 147.552 66.2757C150.464 66.8579 153.374 67.2604 156.132 68.403C158.821 69.5169 161.612 70.3091 164.423 71.0585C165.506 71.3474 168.84 71.7277 167.719 71.7277C167.407 71.7277 167.139 71.6501 166.839 71.5586C164.384 70.8112 161.919 70.175 159.414 69.6145C153.806 68.3597 148.243 66.6812 142.572 65.7474C139.348 65.2164 136.05 65.0432 132.845 64.402C132.651 64.3633 132.121 64.1605 132.316 64.1344C133.111 64.0285 134.019 64.1903 134.803 64.2612C138.589 64.6031 142.383 65.0964 146.158 65.5431C149.794 65.9736 153.219 67.1666 156.773 67.9733C160.785 68.884 164.895 69.6758 168.769 70.967" stroke="black" stroke-width="1.61246" stroke-linecap="round"/>
<path d="M170.672 72.9957C174.986 72.3054 179.281 70.6848 183.386 69.2836C186.521 68.2134 189.916 67.1443 192.776 65.4165C192.867 65.3611 193.125 65.1713 193.029 65.2192C192.3 65.5841 191.778 66.0595 190.987 66.4308C185.933 68.8003 180.406 70.1104 175.053 71.6151C174.16 71.8663 172.864 72.2252 171.926 72.5167C171.783 72.561 171.64 72.6051 171.503 72.6646C171.319 72.7448 171.896 72.576 172.088 72.5167C181.529 69.6027 190.856 66.5129 200.045 62.8595C202.982 61.692 205.917 60.3381 208.956 59.4432C210.646 58.9452 207.654 61.0511 207.413 61.2042C206.358 61.8734 205.292 62.3284 204.13 62.8102C201.158 64.0426 198.129 65.1941 195.072 66.1983C191.179 67.4773 187.12 68.2405 183.252 69.5864C182.358 69.8978 182.852 69.8868 183.358 69.7062C185.82 68.8269 188.233 67.843 190.719 67.0225C196.232 65.2027 201.706 63.4897 206.934 60.9506" stroke="black" stroke-width="1.61246" stroke-linecap="round"/>
<path d="M141.967 67.7051C141.937 68.8204 141.7 70.2181 142.144 71.2907C142.529 72.2207 143.391 72.9105 144.307 73.2687C145.839 73.8671 147.555 74.0628 149.166 74.3726C150.385 74.6069 151.628 74.6308 152.86 74.5056C153.684 74.4219 154.591 74.394 155.374 74.1027C156.024 73.8611 156.372 73.1047 156.619 72.5033C156.644 72.4422 156.764 72.0714 156.672 71.9997C156.629 71.9664 156.58 72.0628 156.551 72.1085C156.15 72.7349 155.667 73.2626 155.125 73.7723C154.453 74.4037 153.69 75.1944 152.736 75.3435C151.58 75.5241 150.384 75.4583 149.267 75.1179C147.496 74.5787 145.338 74.3491 144.175 72.7692C143.331 71.6239 143.062 70.4182 142.91 69.0265C142.847 68.4527 142.716 67.8015 142.982 67.27" stroke="black" stroke-width="1.61246" stroke-linecap="round"/>
<path d="M182.721 71.6928C183.797 72.7688 184.935 73.8068 186.371 74.3839C187.619 74.886 189.367 75.1093 190.685 74.6942C191.929 74.3027 193.297 73.7118 194.372 72.982C195.2 72.4198 195.839 71.6235 196.185 70.6816C196.397 70.1043 196.468 69.4644 196.495 68.8525C196.497 68.8085 196.415 68.3049 196.37 68.5826C196.335 68.7965 196.379 69.0441 196.39 69.2554C196.431 70.0423 196.433 70.8422 196.241 71.6122C196.01 72.536 195.534 73.7109 194.573 74.0778C193.322 74.5555 191.979 74.7026 190.649 74.6015C189.701 74.5294 188.758 74.3907 187.825 74.2107C187.358 74.1205 186.947 74.0405 186.548 73.7837C185.502 73.111 184.582 72.4055 183.671 71.5518C183.624 71.507 183.318 71.1182 183.41 71.2859C183.8 72.0012 184.239 72.7419 184.872 73.272C185.839 74.0817 187.05 74.0858 188.248 74.0858C189.186 74.0858 190.017 73.9852 190.915 73.7232" stroke="black" stroke-width="1.61246" stroke-linecap="round"/>
<path d="M164.782 95.6256C166.732 93.5673 168.752 91.924 171.562 91.3506C172.885 91.0805 174.219 90.8697 175.555 90.6789C176.32 90.5695 177.041 91.0723 177.708 91.3882C178.175 91.6094 178.652 91.8175 179.133 92.0097" stroke="black" stroke-width="1.61246" stroke-linecap="round"/>
<path d="M55.1307 53.084C60.4451 54.2867 66.0118 54.5731 71.4222 54.9394C79.2288 55.4679 87.039 55.8109 94.8639 55.6635C95.8103 55.6456 98.5871 55.2897 97.7036 55.6295C97.2736 55.7949 96.6351 55.7528 96.1989 55.7766C90.6512 56.0798 85.0933 56.0349 79.5453 56.3197C73.9296 56.6078 68.2439 57.6231 62.609 57.3266C61.4414 57.2651 59.9903 57.0949 59.0226 56.3423C58.0034 55.5496 58.0234 55.9174 58.5248 57.1569C59.0241 58.3914 59.5086 59.6265 59.9616 60.879C60.1539 61.4107 61.0091 62.7879 60.5386 62.4742C60.1034 62.1841 59.3132 60.7125 59.0904 60.3925C58.4272 59.4397 57.8255 58.3878 57.0766 57.4963C55.2781 55.3551 60.0585 62.2495 61.8623 64.3862C65.0585 68.1725 68.5539 71.671 72.1463 75.0775C73.2746 76.1475 74.8112 77.2434 75.8119 78.4942C76.1235 78.8838 74.6461 77.0119 74.6353 77.0008C70.3406 72.6001 64.6784 69.8052 59.6561 66.3661C55.5187 63.5328 51.3382 60.2745 49.044 55.6861C48.6901 54.9783 48.1477 53.2601 49.0666 52.6993C50.6993 51.7031 53.0939 51.5144 54.8931 51.3077C58.9592 50.8407 63.0627 50.7485 67.1457 51.0475C70.8925 51.3219 74.577 52.0422 78.3009 52.4957C82.038 52.9507 85.8292 53.1038 89.5918 53.1519C93.3066 53.1993 96.9206 53.1125 100.441 51.8621C100.861 51.7129 103.793 51.1493 103.553 50.3687C103.331 49.6498 102.664 49.0647 102.059 48.6717C99.517 47.0192 96.4892 46.0456 93.7325 44.8477C90.4832 43.4358 87.1463 42.0095 84.2744 39.8924C83.3221 39.1903 82.2668 38.2646 82.2153 36.9961C82.1412 35.1665 85.093 35.1432 86.2656 35.0049C94.5991 34.0224 103.037 35.4894 111.336 34.4732C111.625 34.4378 117.443 33.4005 115.375 32.1765C114.516 31.6678 113.551 31.3234 112.604 31.0226C112.561 31.0092 109.752 30.4566 110.997 30.1854C113.624 29.6129 116.628 29.73 119.256 29.6762C127.896 29.4996 136.534 29.4221 145.164 28.8956C154.1 28.3504 162.957 27.3742 171.785 25.8975C175.404 25.2922 176.483 25.0521 179.591 24.4268C179.925 24.3596 180.911 24.2127 180.575 24.1552C178.701 23.834 176.501 23.8775 174.647 23.8498C168.296 23.7547 161.967 23.9536 155.64 24.5512C136.992 26.3127 118.466 29.5742 99.955 32.4028C99.9296 32.4067 95.763 32.5546 95.7011 33.421C95.6212 34.5401 97.8272 35.8576 95.7124 35.5932C94.4442 35.4347 96.227 36.5668 96.4252 36.7246C98.6748 38.5159 100.983 40.2384 103.292 41.9514C103.718 42.2669 105.868 43.5124 106.268 44.2368C106.589 44.8181 105.019 43.7824 104.413 43.5127" stroke="black" stroke-width="1.61246" stroke-linecap="round"/>
<path d="M183.426 19.8896C184.595 20.3638 185.715 21.2322 186.752 21.8808C192.286 25.3424 198.024 28.4296 204.107 30.8412C216.94 35.9289 230.589 38.735 244.247 40.4577C245.038 40.5574 242.721 39.9923 241.985 39.6884C236.09 37.2554 229.865 35.5056 223.521 34.7443C222.521 34.6243 220.85 34.3152 219.81 34.5068C219.685 34.5299 220.05 34.596 220.172 34.6312C223.849 35.6873 219.857 34.4455 225.331 36.1472C232.242 38.2954 239.339 41.2125 246.601 41.9058C248.421 42.0796 250.25 42.0758 252.076 42.0868C252.239 42.0878 252.401 42.0868 252.563 42.0868C252.993 42.0868 251.703 42.085 251.273 42.0755C246.194 41.9639 240.937 43.795 236.26 45.6393C235.567 45.9125 235.015 46.1637 236.124 46.1144C238.103 46.0265 240.075 45.8014 242.053 45.6845C242.112 45.681 245.456 45.2849 245.741 45.6958C245.794 45.7726 245.623 45.8505 245.537 45.8882C244.831 46.1996 241.462 47.2771 241.419 47.2911C237.167 48.6588 232.893 49.9575 228.646 51.3413C227.644 51.6679 224.688 52.4966 225.738 52.5858C226.249 52.6291 231.237 52.1493 231.237 52.7781C231.237 53.1695 230.591 53.2245 230.241 53.4004C228.532 54.2602 226.813 55.1081 225.071 55.9007C222.94 56.8704 220.663 57.9519 218.385 58.5593C216.726 59.0017 214.773 58.8735 213.067 59.0798C212.624 59.1334 211.424 59.0508 211.755 59.3513C212.171 59.7298 214.725 59.8079 215.172 59.917C217.15 60.4007 219.096 61.0287 221.032 61.6593C221.304 61.748 222.732 62.0632 223.046 62.4512C224.119 63.777 227.318 65.0857 228.793 65.8453C241.159 72.2114 254.702 76.1458 268.413 78.3128C270.696 78.6736 275.548 79.7872 278.098 79.0482C279.325 78.6923 276.207 77.2213 275.009 76.7742C273.438 76.1877 271.85 75.8374 270.178 75.7333C269.145 75.669 267.902 75.8891 266.886 75.6428C266.844 75.6328 269.15 73.4164 269.42 73.052C270.476 71.6269 266.358 74.9592 265.223 76.3216C264.567 77.1088 265.044 76.6487 265.291 76.7968C265.61 76.9885 264.904 77.4448 264.634 77.7019C263.334 78.9417 261.475 80.4431 260.132 81.5032C257.744 83.387 255.217 85.0987 252.846 87.0016C252.742 87.0851 252.441 87.3053 252.574 87.2958C253.301 87.2438 253.903 86.696 254.565 86.3907C256.388 85.5502 258.213 84.7149 260.052 83.913C260.871 83.5561 262.29 82.7315 263.277 82.7025C263.696 82.6901 263.33 83.6063 263.084 83.9469C261.59 86.0221 259.571 87.7424 257.688 89.4453C257.129 89.9507 256.556 90.4408 255.991 90.9387C255.615 91.27 254.457 91.8758 254.939 92.0135C255.969 92.3078 258.283 91.0414 259.283 90.7238C259.702 90.5906 260.636 89.9621 260.562 90.3957C260.445 91.0727 258.231 93.0542 258.073 93.2127C256.016 95.2689 253.813 97.1342 251.601 99.0166C251.192 99.3647 249.38 100.597 249.169 101.336C249.104 101.564 249.839 101.433 249.678 101.754C248.788 103.534 245.335 105.57 243.999 106.517C239.445 109.746 234.572 113.122 229.449 115.399" stroke="black" stroke-width="1.61246" stroke-linecap="round"/>
<path d="M71.5612 80.5527C73.6845 81.309 73.2893 81.0898 75.8953 82.6016C79.2439 84.5442 83.6111 86.6874 86.2186 89.6545C87.4705 91.0792 82.7891 91.1912 82.042 91.1912C81.2193 91.1912 83.9222 91.235 84.4061 91.9004C84.7199 92.3319 75.0495 93.1992 74.2011 93.2401C72.844 93.3054 72.3692 92.8861 72.7826 93.7129C73.4792 95.1061 69.5186 94.7311 68.9213 94.757C66.7426 94.8517 70.8878 97.1559 71.3248 97.4954C71.4633 97.6031 75.1372 100.617 74.3193 100.766C73.7106 100.876 73.7928 100.921 73.6495 101.495C73.1972 103.304 68.5019 103.729 67.0694 104.292C63.327 105.765 72.174 108.84 68.8031 108.922C66.7535 108.972 69.7191 112.013 68.4681 112.783C67.2729 113.519 65.1806 113.438 63.8384 113.729C61.9134 114.146 64.5345 115.864 65.1781 116.526C68.6728 120.125 62.8606 118.15 63.6414 119.935C63.9946 120.742 64.555 121.367 64.8235 122.24C65.3533 123.961 62.8456 124.279 61.632 124.643C60.3095 125.04 60.6194 125.195 61.3167 126.357C61.5447 126.737 63.3872 129.096 62.1048 129.096C59.0855 129.096 62.8788 129.586 61.3955 130.12C60.9103 130.295 60.2958 129.983 60.2332 130.672C60.1494 131.593 60.5522 133.032 60.1741 133.883C59.9821 134.315 58.4387 134.32 58.0464 134.375C57.753 134.416 56.9912 133.95 57.1796 134.178C58.9458 136.323 62.1994 137.859 64.4295 139.458C65.9812 140.571 69.6898 142.689 65.6115 141.33C62.8092 140.396 60.1181 139.348 57.219 138.729C56.78 138.636 54.3098 137.864 53.8304 138.316C53.6816 138.456 53.8024 138.741 53.8895 138.926C54.2777 139.751 56.0391 142.044 56.3718 142.492C57.6191 144.17 59.2217 147.264 61.1197 148.402C61.913 148.878 58.904 145.745 58.9526 146.669C59.0192 147.933 61.3628 149.867 62.0063 150.963C63.3615 153.272 59.681 149.161 59.1891 148.954C58.9441 148.851 59.9289 151.396 60.0559 151.673C60.4653 152.564 58.2391 150.459 58.0464 150.294C56.8674 149.28 57.3527 149.947 57.9085 150.766C58.8466 152.149 58.3546 152.224 56.9038 151.85C54.4904 151.227 58.4086 154.948 56.5097 154.746C53.2621 154.401 58.19 159.2 55.2883 158.233C53.8228 157.745 54.7321 160.889 54.8549 161.484C55.1625 162.974 57.1519 166.187 54.6579 164.833C52.5631 163.695 50.5165 162.651 48.3142 161.917C48.147 161.861 46.3726 161.091 46.4229 161.72C46.5382 163.161 48.8931 165.612 49.5948 166.429C52.4294 169.728 55.6862 172.507 58.992 175.314C61.6694 177.587 62.2419 178.016 64.7053 180.239C64.9236 180.436 67.0618 182.091 67.1679 182.78C67.1858 182.897 59.6019 181.657 58.9132 181.677C56.832 181.738 53.9442 182.987 53.4758 185.282C53.3745 185.779 53.7471 186.413 53.003 186.504C52.0803 186.617 50.314 185.412 52.0574 185.814C55.3459 186.573 58.6004 187.881 61.7502 189.065C62.2775 189.263 65.1596 190.118 65.7691 190.956C65.968 191.23 62.5273 191.126 62.3018 191.114C59.8169 190.979 60.1649 190.93 59.7801 193.123C59.6427 193.906 58.8996 193.652 58.3025 193.872C56.9406 194.374 62.4482 196.414 62.7155 196.531C63.0573 196.682 68.5291 198.764 67.4634 199.506C66.9925 199.834 62.4652 201.339 63.9173 201.831C66.4245 202.681 68.1412 203.697 70.4973 205.022" stroke="black" stroke-width="1.61246" stroke-linecap="round"/>
<path d="M236.81 108.212C237.869 109.801 239.791 110.999 241.223 112.192C241.855 112.719 246.712 115.767 243.745 116.369C243.509 116.416 238.967 116.667 240.08 117.314C241.948 118.399 244.167 118.538 246.168 119.205C246.422 119.29 243.015 122.288 243.548 123.658C244.42 125.9 236.745 128.852 235.333 130.474C234.822 131.06 240 129.588 239.923 130.435C239.769 132.129 238.714 133.952 240.534 135.006C241.981 135.844 241.558 137.791 240.199 138.512C233.375 142.134 209.6 142.255 217.326 142.255C219.158 142.255 220.721 143.202 222.231 144.147C228.08 147.802 233.802 151.69 239.608 155.416C241.243 156.465 243.486 157.819 240.947 155.061C239.647 153.648 238.148 152.356 236.377 151.554C234.88 150.877 230.794 150.53 231.471 152.027C232.194 153.625 236.203 156.866 236.948 157.504C239.343 159.554 241.285 161.111 243.745 162.961C244.443 163.486 245.847 165.095 246.03 164.242C246.146 163.698 247.212 164.588 247.291 164.636C249.49 165.969 251.806 167.522 254.324 168.182C256.075 168.64 253.961 167.001 253.753 166.881C253.362 166.657 247.807 164.47 248.118 165.818C248.458 167.291 251.104 168.74 252.216 169.403C253.383 170.099 254.466 170.596 255.723 171.097C256.422 171.376 258.503 171.866 257.772 172.043C256.204 172.423 253.268 171.991 252.118 173.363C251.132 174.538 253.792 175.517 253.792 176.298C253.792 176.846 250.762 177.864 250.325 178.19C248.809 179.322 252.081 180.169 252.709 180.396C254.309 180.976 256.008 181.392 257.555 182.11C258.738 182.66 256.258 183.012 256.097 183.056C252.1 184.14 254.89 185.887 257.181 187.213C257.987 187.679 263.187 188.762 263.032 189.616C262.867 190.522 261.309 191.259 260.687 191.626C257.921 193.257 254.964 194.642 252.019 195.92C249.954 196.817 251.741 196.505 253.319 196.511C255.316 196.52 257.312 196.503 259.308 196.511C260.199 196.515 262.598 196.138 261.968 196.768C261.403 197.332 258.247 198.034 258.954 199.073C259.137 199.342 259.782 199.387 259.702 199.703C259.605 200.092 258.478 199.989 258.757 200.787C258.831 200.999 259.987 202.032 259.801 202.146C259.058 202.603 256.868 201.99 256.905 203.367C256.936 204.53 259.21 209.678 257.24 208.627C256.4 208.179 257.976 211.122 257.063 210.735C254.848 209.799 252.755 208.578 250.443 207.859C247.645 206.989 249.227 210.82 249.576 212.233C249.584 212.264 250.507 215.801 250.069 215.582C249.234 215.164 246.246 212.344 246.7 215.07C246.826 215.825 248.756 222.771 248.118 222.93C246.573 223.317 245.337 218.993 244.178 220.468C243.613 221.187 241.42 217.409 241.42 220.271C241.42 221.969 241.472 223.608 241.065 225.235" stroke="black" stroke-width="1.61246" stroke-linecap="round"/>
<path d="M120.142 140.837C119.968 141.359 118.442 141.563 118.763 141.723C119.75 142.217 115.59 143.386 115.02 143.595C113.482 144.158 117.324 143.888 117.758 144.225C118.074 144.471 117.472 144.903 117.364 145.092C116.983 145.759 118.184 146.029 118.487 146.432C119.309 147.529 114.424 147.951 115.473 149.525C116.019 150.344 114.764 150.575 116.044 151.554C118.9 153.738 111.908 153.561 116.714 155.573C118.257 156.219 117.265 157.06 116.28 157.661C114.541 158.724 118.26 161.149 119.157 161.956C120.625 163.277 122.379 164.01 119.866 164.261C119.443 164.303 125.787 167.364 126.564 168.063C127.011 168.465 123.893 168.424 123.806 168.418C121.422 168.264 123.593 168.385 124.732 168.891C125.082 169.046 128.618 170.544 127.077 171.058C124.107 172.048 130.664 173.92 131.489 174.112C133.051 174.475 132.936 175.894 133.263 177.362" stroke="black" stroke-width="1.61246" stroke-linecap="round"/>
<path d="M105.603 108.567C105.603 112.68 110.805 108.021 111.276 110.064C111.502 111.041 110.698 112.108 112.025 111.758C114.347 111.147 114.353 112.04 113.207 113.926C112.762 114.658 112.83 114.59 113.759 114.438C116.392 114.007 119.02 113.59 121.678 113.334C122.27 113.278 125.443 112.529 124.673 114.241C123.885 115.993 122.099 116.691 125.422 116.999C126.97 117.142 127.668 116.921 128.219 118.299C128.408 118.772 127.96 120.132 128.81 119.757C130.544 118.992 134.772 118.69 135.311 120.9C135.863 123.161 142.961 120.835 144.847 121.254C148.075 121.972 152.462 120.145 155.446 121.766C156.132 122.139 155.921 123.07 155.249 122.397" stroke="black" stroke-width="1.61246" stroke-linecap="round"/>
<path d="M133.264 27.0057C135.915 23.6922 142.231 22.747 145.951 22.2775C158.038 20.7522 170.398 20.9435 182.555 20.2681" stroke="black" stroke-width="1.61246" stroke-linecap="round"/>
<path d="M122.979 28.0695C125.575 27.4704 128.094 26.6074 130.662 25.9024C138.355 23.7902 146.105 22.4529 154.027 21.5288C165.066 20.2411 176.072 19.6149 187.164 19.2041" stroke="black" stroke-width="1.61246" stroke-linecap="round"/>
<path d="M137.873 22.7505C136.603 24.0205 137.243 23.7909 139.016 23.4991C151.611 21.4265 164.257 19.3957 176.999 18.4557C184.731 17.8854 192.286 19.8722 199.773 21.5685C201.991 22.0708 204.593 22.5154 201.349 23.1051" stroke="black" stroke-width="1.61246" stroke-linecap="round"/>
<path d="M171.207 21.686C180.574 22.2839 190.341 24.6278 199.419 26.8871C203.74 27.9625 208.907 28.7337 212.697 31.2606" stroke="black" stroke-width="1.61246" stroke-linecap="round"/>
<path d="M83.6182 32.3252C83.7616 33.1859 84.3583 33.9032 84.879 34.5711C86.8471 37.0954 89.0047 39.6128 91.3015 41.8407C94.2421 44.693 98.015 48.6375 102.413 48.6375" stroke="black" stroke-width="1.61246" stroke-linecap="round"/>
<path d="M86.4541 39.772C92.7213 43.3738 99.0468 47.4324 105.879 49.8982C111.026 51.7559 116.52 52.2932 121.916 52.8927" stroke="black" stroke-width="1.61246" stroke-linecap="round"/>
<path d="M89.291 41.5444C92.7495 42.7651 96.0841 44.7798 99.5157 46.1347C109.617 50.1233 119.75 51.243 130.426 52.8921" stroke="black" stroke-width="1.61246" stroke-linecap="round"/>
<path d="M248.867 46.1553C248.867 48.0971 247.498 49.8422 245.912 50.8835C242.246 53.2916 237.258 54.1639 233.107 55.0403C224.113 56.939 215.033 57.8977 205.959 59.276" stroke="black" stroke-width="1.61246" stroke-linecap="round"/>
<path d="M241.066 47.5728C237.501 50.6922 231.656 52.0117 227.393 53.5618C220.167 56.1897 213.494 58.042 205.959 59.275" stroke="black" stroke-width="1.61246" stroke-linecap="round"/>
<path d="M243.194 46.5093C236.964 52.999 227.245 55.0333 218.687 56.3203C216.084 56.7116 208.006 57.6985 205.211 58.0146C203.562 58.2011 201.881 58.7004 200.247 58.4086C200.212 58.4024 201.935 57.5518 202.059 57.5023" stroke="black" stroke-width="1.61246" stroke-linecap="round"/>
<path d="M240.002 50.7646C237.461 53.0641 233.648 54.1602 230.467 55.1382C220.2 58.2952 209.768 60.0409 199.222 61.7577" stroke="black" stroke-width="1.61246" stroke-linecap="round"/>
<path d="M83.2627 39.4175C89.0545 40.0271 94.8611 43.8124 100.008 46.234C104.415 48.3071 108.667 49.7351 113.405 50.7652" stroke="black" stroke-width="1.61246" stroke-linecap="round"/>
<path d="M87.873 43.6724C94.7518 45.8762 101.476 48.8173 108.539 50.3903C117.447 52.374 126.693 52.7348 135.746 53.6016" stroke="black" stroke-width="1.61246" stroke-linecap="round"/>
<path d="M92.8369 46.1553C97.8385 47.7467 102.264 50.5675 107.435 51.8094C115.406 53.7237 123.705 53.8528 131.845 54.3114" stroke="black" stroke-width="1.61246" stroke-linecap="round"/>
<path d="M147.036 67.9731C147.036 68.5632 146.878 69.4514 147.132 69.9965C147.297 70.35 148.484 68.7107 148.553 68.6235" stroke="black" stroke-width="1.61246" stroke-linecap="round"/>
<path d="M148.661 68.5151C148.864 69.4291 148.753 70.4242 148.721 71.3515C148.685 72.419 149.376 70.2535 149.504 69.9905C149.872 69.2363 149.808 69.4822 149.878 70.0568C149.883 70.1049 149.953 70.4643 150.07 70.2856C150.139 70.1807 150.632 69.1794 150.691 69.2318C150.953 69.4678 150.687 70.7517 150.727 71.1287C150.755 71.3983 151.409 69.5792 151.485 70.3037C151.507 70.5086 151.655 70.6196 151.395 70.7312C150.374 71.1709 148.899 71.2036 147.866 70.8035C147.653 70.7208 145.253 69.2154 145.789 68.8584C145.991 68.7237 146.402 68.9967 146.469 69.1896C146.716 69.9036 147.419 70.2687 148.011 70.6831" stroke="black" stroke-width="1.61246" stroke-linecap="round"/>
<path d="M184.975 70.1406C185.99 70.4461 186.932 70.602 187.998 70.6525C189.135 70.7064 190.619 70.8941 191.743 70.5983C192.242 70.4671 192.129 69.6703 192.129 69.2734" stroke="black" stroke-width="1.61246" stroke-linecap="round"/>
<path d="M191.478 68.8398C190.653 71.4977 187.255 71.2235 185.137 70.7488C184.279 70.5565 184.588 70.313 185.287 70.3815C186.136 70.4647 189.419 71.4425 189.34 69.8576C189.331 69.6768 188.035 70.9848 187.949 71.068C187.216 71.7772 186.459 72.3261 185.39 72.1881C185.151 72.1573 184.965 71.9025 184.992 71.6581C185.055 71.091 186.445 71.4017 186.757 71.4173C187.457 71.452 188.638 71.6579 189.286 71.3089C189.519 71.1835 189.752 70.3642 189.599 70.5802C188.865 71.62 187.264 72.137 186.07 72.3687C185.831 72.4153 183.55 72.525 184.721 72.3085C185.297 72.2022 185.873 72.2972 186.365 71.9472C187.011 71.4879 187.634 70.9919 188.226 70.4658" stroke="black" stroke-width="1.61246" stroke-linecap="round"/>
<path d="M190.879 68.9136C190.363 70.0935 189.91 71.5555 189.06 72.5625C188.622 73.0802 187.934 73.0734 187.314 73.132C186.261 73.2316 186.885 73.0177 187.488 72.7998C188.191 72.5461 188.74 72.5842 188.981 71.8612C188.992 71.8269 189.168 71.4437 189.033 71.6714C188.727 72.188 188.171 72.4847 187.636 72.7154C187.405 72.8153 186.68 73.0227 186.929 72.9843C187.285 72.9297 187.607 72.7746 187.926 72.6152C188.963 72.0965 189.464 70.826 190.035 69.8733C190.086 69.7893 190.339 69.2328 190.362 69.288C190.726 70.1716 190.434 71.4435 189.951 72.2092C189.251 73.3181 187.962 73.7828 186.755 74.1233C186.351 74.2374 185.254 74.3353 186.133 73.8597C186.679 73.5645 187.268 73.3766 187.831 73.1214C188.73 72.7143 189.515 72.1307 190.257 71.4868C190.594 71.1941 190.958 70.8148 190.974 70.3373C190.975 70.2916 190.977 70.4288 190.974 70.4744C190.924 71.1525 190.701 71.8342 190.468 72.4676C190.287 72.9575 190.171 73.0934 189.814 73.3534C189.633 73.485 189.082 73.3786 188.865 73.3745C187.388 73.3467 185.895 73.1238 184.425 72.9949" stroke="black" stroke-width="1.61246" stroke-linecap="round"/>
<path d="M147.219 69.4832C146.633 70.5416 145.673 71.2106 144.546 71.6241C144.395 71.6793 142.663 72.0704 143.618 71.4764C144.229 71.096 145.028 71.0884 145.722 71.139C147.222 71.2484 148.61 71.231 150.109 71.0019C150.355 70.9641 151.75 70.8963 151.865 70.4957C151.884 70.4273 151.756 70.5873 151.701 70.6328C150.961 71.247 150.184 71.8244 149.418 72.4045C148.609 73.0167 146.631 74.557 146.597 73.5435C146.588 73.2862 146.862 72.9788 146.992 72.7894C147.345 72.277 147.566 71.7798 147.488 71.1442C147.306 69.6555 145.648 69.4878 144.498 68.9559C144.274 68.8524 144.193 68.827 144.071 69.0825C143.525 70.2297 143.722 71.5818 144.54 72.5416C146.625 74.9851 148.242 69.9291 146.718 68.3074C146.565 68.144 145.668 67.4635 145.511 67.9646C145.252 68.7892 145.176 69.9693 145.521 70.7699C145.65 71.0679 146.178 71.9558 146.639 71.8139C147.42 71.5735 146.805 69.7511 146.581 69.3883C146.135 68.6656 144.799 67.3813 143.834 67.4373C143.208 67.4736 144.468 69.9314 144.635 70.1055C145.291 70.7893 146.216 71.2655 147.172 71.2655C148.198 71.2655 147.114 69.7013 146.803 69.3567C146.386 68.8956 145.361 68.3961 144.709 68.6185C144.05 68.8434 144.404 71.4239 144.519 71.8772C144.853 73.1891 145.961 73.7183 147.245 73.5856C148.71 73.4345 149.491 72.4941 149.07 71.0335C149.047 70.953 148.354 69.429 148.094 69.7574C147.694 70.2648 148.21 71.7624 148.506 72.2147C148.844 72.7319 149.518 72.1648 149.265 71.6768C149.03 71.2234 148.383 70.9286 148.168 71.2866" stroke="black" stroke-width="1.61246" stroke-linecap="round"/>
<path d="M191.613 68.9194C191.613 70.1703 191.724 72.7123 190.088 72.9851" stroke="black" stroke-width="1.61246" stroke-linecap="round"/>
<path d="M148.415 69.4277C148.586 70.4531 147.677 71.0121 147.06 71.63" stroke="black" stroke-width="1.61246" stroke-linecap="round"/>
<path d="M164.677 78.9146C166.566 79.4182 168.341 80.3135 170.286 80.5709C170.76 80.6337 170.684 80.6371 170.248 80.6839C169.567 80.7569 168.953 80.4029 168.347 80.138C167.435 79.7389 165.887 79.4034 167.801 79.4228C168.754 79.4324 169.555 79.6003 170.436 79.931" stroke="black" stroke-width="1.61246" stroke-linecap="round"/>
<path d="M177.382 80.4388C175.949 81.351 171.438 83.7092 172.837 82.7446C174.132 81.8515 175.812 81.633 177.081 80.7871C177.32 80.6279 176.509 80.8312 176.225 80.8718C175.503 80.9749 174.78 81.0718 174.06 81.1917C172.684 81.421 174.775 80.9344 175.076 80.8718C175.719 80.7384 177.623 80.2521 177.006 80.4765C175.58 80.9951 173.905 81.0324 172.413 81.2106C171.63 81.3041 171.801 81.2149 172.394 81.0788C173.222 80.8889 174.062 80.7594 174.898 80.6082C176.248 80.364 177.602 80.1626 178.907 79.7612" stroke="black" stroke-width="1.61246" stroke-linecap="round"/>
<path d="M171.115 80.6083C172.399 80.3903 173.544 80.2695 174.842 80.2695" stroke="black" stroke-width="1.61246" stroke-linecap="round"/>
<path d="M177.89 79.4229C177.834 79.6553 177.511 80.3232 177.871 80.0628C178.083 79.9101 179.017 79.4045 178.963 79.4605C178.736 79.6977 178.034 80.3891 178.267 80.1569C178.455 79.9689 178.479 79.8475 178.737 79.7617" stroke="black" stroke-width="1.61246" stroke-linecap="round"/>
<path d="M173.147 73.6633C173.667 73.7934 172.082 73.8072 171.547 73.8421C170.701 73.8973 170.515 73.9086 169.674 74.0021C169.227 74.0518 168.117 74.493 168.328 74.0962C168.664 73.4661 171.641 73.6181 172.177 73.588C173.14 73.5341 176.03 73.4939 175.067 73.4939C174.407 73.4939 173.706 73.5265 173.072 73.3151C172.291 73.0549 173.779 72.6025 173.975 72.5151C174.175 72.4258 175.088 72.1387 174.907 72.1387C173.925 72.1387 172.943 72.1387 171.961 72.1387" stroke="black" stroke-width="1.61246" stroke-linecap="round"/>
<path d="M171.961 71.7994C171.286 71.7994 172.513 71.7994 172.695 71.7994C173.267 71.7994 171.555 71.689 170.991 71.5923C169.678 71.3672 168.352 71.1734 167.048 70.8959C166.329 70.7429 166.148 70.6168 166.945 70.5383C168.997 70.336 171.097 70.4442 173.156 70.4442C173.592 70.4442 174.9 70.4535 174.464 70.4442C173.485 70.4231 172.512 70.3588 171.537 70.2748C170.984 70.2271 169.444 70.3604 169.89 70.0301C170.301 69.7259 171.431 69.6605 171.857 69.5972C173.526 69.3489 178.56 69.3267 176.892 69.0701C174.149 68.6481 171.299 68.775 168.535 68.7501C167.798 68.7435 165.636 68.8 166.333 68.5619C167.026 68.3254 167.783 68.2587 168.497 68.1102C169.886 67.8214 168.48 68.0395 168.422 67.8655C168.412 67.8359 175.94 66.3079 176.516 66.1903C177.137 66.0635 178.993 65.7653 178.36 65.7292C176.985 65.6506 175.511 65.8253 174.144 65.8703C172.233 65.9333 170.28 66.0862 168.366 66.0021C167.639 65.9701 167.918 65.7853 168.309 65.5315C170.086 64.3793 167.556 65.5779 167.556 64.3457" stroke="black" stroke-width="1.61246" stroke-linecap="round"/>
<path d="M70.0888 222.75C70.064 222.915 69.8378 224.241 70.2515 223.53C70.5296 223.052 70.6734 222.387 71.0516 221.978C71.2914 221.718 71.2952 222.655 71.3025 223.008C71.3131 223.531 71.086 224.66 71.3092 225.151C71.4403 225.439 71.5188 224.553 71.6279 224.256C71.7983 223.791 71.9834 223.333 72.1636 222.873" stroke="black" stroke-width="1.61246" stroke-linecap="round"/>
<path d="M29.4192 217.805C29.1318 218.164 27.0841 220.479 28.6382 219.902C28.9806 219.775 31.813 217.94 32.017 218.349C32.3574 219.029 32.0742 220.028 32.1868 220.76C32.2123 220.925 33.8046 219.448 34.08 219.274C34.9185 218.744 33.3003 222.312 35.294 220.717C36.0766 220.091 36.1433 220.335 36.109 221.269C36.0986 221.553 35.9015 222.401 36.1345 222.661C36.3634 222.917 37.517 222.186 37.5862 222.152C39.11 221.39 40.859 220.234 42.5696 219.962C43.0403 219.887 42.8448 220.762 43.0195 221.031C43.3468 221.536 44.8964 220.844 45.2438 220.726C46.3622 220.343 46.2249 220.593 46.3899 221.583C46.5119 222.315 47.1014 221.492 47.3832 221.269C48.0196 220.765 48.1147 221.552 48.2831 222.067C48.8661 223.85 49.5054 220.836 49.8961 221.422C50.3142 222.049 50.1308 223.051 50.9997 222.101C52.043 220.96 52.883 219.582 54.022 218.535C54.5972 218.007 54.6187 219.253 54.7097 219.596C54.8581 220.157 55.0495 220.018 55.5162 219.809C56.8059 219.229 58.6588 218.251 60.1005 218.323C61.1939 218.378 59.4178 221.118 59.2346 221.422C59.1154 221.62 58.986 221.812 58.878 222.016C58.7386 222.28 58.65 222.447 58.9884 222.237C59.835 221.71 60.5938 221.025 61.4249 220.471C61.5097 220.414 63.8857 218.825 63.9463 219.189C63.9882 219.44 63.8953 219.583 64.2265 219.673C66.3676 220.255 68.8733 219.883 71.0521 219.809C71.532 219.792 74.3256 219.956 72.2237 220.182C67.3222 220.711 62.3057 220.728 57.3839 220.794C51.6792 220.87 46.0519 220.572 40.3708 220.131C37.7157 219.925 34.9336 220.165 32.3226 219.792" stroke="black" stroke-width="1.61246" stroke-linecap="round"/>
<path d="M108.139 220.948C109.599 221.185 111.062 221.401 112.518 221.658C112.962 221.737 115.86 222.174 116.82 222.681C117.229 222.897 116.131 222.969 116.034 222.96C113.009 222.675 122.108 222.778 125.145 222.774C127.354 222.771 133.966 222.521 131.772 222.774C122.717 223.819 113.496 224.028 104.395 224.219C100.873 224.293 97.2292 224.428 93.7031 224.093C93.5908 224.082 93.4759 224.064 93.3735 224.017C93.1867 223.93 93.7864 224.007 93.9905 224.033C95.4623 224.222 96.9079 224.603 98.3687 224.853C103.733 225.772 109.158 226.12 114.597 226.172C118.178 226.206 121.777 226.118 125.331 225.648C126.56 225.485 128.022 225.301 129.202 224.82C130.516 224.284 127.364 223.411 127.301 223.4C123.456 222.711 119.357 223.074 115.468 223.002C112.968 222.956 105.483 223.099 107.97 222.85C112.487 222.398 117.286 223.155 121.79 223.442C123.507 223.551 125.223 223.651 126.937 223.805C128.152 223.914 124.552 223.29 123.353 223.061C116.684 221.791 109.973 220.888 103.203 220.374C102.668 220.333 101.076 220.108 101.597 220.238C103.938 220.824 106.234 221.466 108.604 221.954C115.125 223.298 121.881 224.44 128.56 224.481C129.429 224.487 129.667 224.562 130.048 223.991" stroke="black" stroke-width="1.61246" stroke-linecap="round"/>
<path d="M193.794 223.382C198.426 223.15 202.95 222.647 207.546 222.106C210.138 221.801 202.44 223.284 199.837 223.484C199.076 223.542 198.921 223.535 198.291 223.535C198.234 223.535 198.178 223.535 198.121 223.535C198.026 223.535 198.313 223.539 198.409 223.535C199.665 223.481 200.851 222.909 202.009 222.47" stroke="black" stroke-width="1.61246" stroke-linecap="round"/>
<path d="M59.6668 193.905C60.5951 196.136 60.2304 195.588 61.9999 197.939C62.6423 198.793 63.3716 199.579 64.017 200.43C64.3366 200.852 65.3842 201.56 64.8919 201.755C64.2726 201.999 63.7127 201.133 63.1543 200.77C61.8885 199.949 60.6715 199.055 59.4237 198.206C56.2382 196.041 53.001 193.983 49.7633 191.9C48.764 191.257 47.8493 190.435 48.6939 192.106C50.373 195.428 52.4825 198.685 55.5109 200.928C59.2455 203.695 63.65 205.492 67.9541 207.15C70.8861 208.279 73.8792 209.503 76.9098 210.358C77.7698 210.6 77.0479 209.243 76.9219 208.96C75.3462 205.426 71.5979 202.979 68.5374 200.855C65.6107 198.824 62.495 197.059 59.2536 195.582C57.3206 194.701 57.725 195.303 58.4395 196.894C59.3049 198.822 60.2588 200.733 61.5746 202.399C62.5354 203.615 63.3765 204.46 64.4788 205.57C65.4755 206.575 68.7785 209.078 67.4437 208.608C66.2524 208.189 65.3526 207.19 64.333 206.445C61.8863 204.657 58.6156 202.207 56.3129 200.369C51.4067 196.454 45.7339 192.383 43.0435 186.517C42.6453 185.649 42.4068 185.03 42.047 184.196C41.6814 183.348 42.1423 184.168 42.2901 184.378C43.7756 186.484 45.3499 188.468 47.0656 190.393C49.996 193.681 52.9916 196.907 56.2886 199.835C60.3289 203.422 64.8821 206.339 69.5581 209.021C72.217 210.547 74.9561 211.956 77.6996 213.323C79.4101 214.175 81.3295 215.376 83.265 215.644C84.2265 215.777 85.2631 215.651 86.2057 215.887C87.4042 216.186 83.7703 215.468 82.5603 215.218C75.4409 213.752 67.7836 210.326 62.5102 205.242C57.871 200.77 55.2631 193.901 53.5667 187.805C52.9241 185.495 52.6106 183.146 52.4974 180.757C52.4305 179.346 52.5981 177.852 52.3515 176.455C50.9508 168.518 54.4584 192.525 56.9205 200.199C58.4646 205.012 60.6276 209.373 63.4945 213.517C64.2568 214.619 64.8583 215.776 66.0099 216.434" stroke="black" stroke-width="1.61246" stroke-linecap="round"/>
<path d="M108.005 188.655C108.748 188.921 109.438 189.654 109.949 190.223C113.027 193.648 115.869 197.243 119.063 200.576C121.483 203.101 123.899 205.634 126.476 208C128.42 209.786 130.564 211.358 132.454 213.201C134.559 215.254 136.704 217.175 138.627 219.399C139.183 220.041 139.522 220.661 139.769 221.464C139.851 221.73 140.28 222.37 140.061 221.659C139.466 219.724 138.251 218.03 137.047 216.434C135.016 213.739 132.746 211.155 130.255 208.875C125.486 204.512 120.453 200.573 116.22 195.63C114.191 193.261 112.52 190.639 110.727 188.096C108.479 184.908 105.458 181.884 103.922 178.253C103.601 177.494 103.54 176.634 103.424 175.823C103.402 175.667 103.546 176.115 103.606 176.261C104.303 177.932 105.075 179.58 105.818 181.231C108.007 186.095 110.145 191.066 112.793 195.703C115.306 200.103 119.087 203.85 122.587 207.466C124.897 209.853 127.302 212.548 130.109 214.368C132.197 215.721 134.659 216.503 136.914 217.539C139.265 218.619 142.06 219.168 143.002 221.756C143.375 222.782 142.489 222.526 141.859 222.181C140.747 221.572 140.006 220.74 139.283 219.715C138.113 218.053 136.72 216.755 135.152 215.461C128.302 209.812 122.572 202.785 118.055 195.12C115.319 190.479 113.052 185.558 109.974 181.121C107.869 178.088 104.857 175.409 103.29 172.032C102.281 169.855 101.68 166.097 102.974 163.939" stroke="black" stroke-width="1.61246" stroke-linecap="round"/>
<path d="M164.351 217.878C164.351 216.956 164.312 216.103 164.229 215.163C163.751 209.78 162.941 204.44 162.303 199.077C162.28 198.878 162.104 198.353 162.261 198.478C162.456 198.632 162.391 198.959 162.457 199.199C162.564 199.588 162.676 199.976 162.781 200.366C163.348 202.479 163.844 204.585 164.022 206.772C164.243 209.491 164.289 212.255 164.25 214.982C164.244 215.391 164.125 216.47 164.181 215.449C164.371 211.965 164.382 208.463 164.34 204.974C164.322 203.446 164.329 201.876 164.054 200.366C163.732 198.601 162.913 196.984 161.953 195.486C160.773 193.645 159.5 191.909 157.366 191.212C156.808 191.029 156.295 190.79 155.759 190.575" stroke="black" stroke-width="1.61246" stroke-linecap="round"/>
<path d="M166.261 218.069C167.274 216.789 167.639 214.636 168.101 213.142C169.015 210.187 169.835 207.081 171.543 204.46C172.124 203.569 174.405 201.315 173.638 202.052C172.386 203.256 171.125 204.529 170.101 205.934C167.345 209.714 165.534 214.987 166.844 219.671C167.057 220.431 167.437 218.205 167.661 217.448C169.487 211.269 169.771 204.908 170.774 198.578C171.12 196.394 171.953 194.309 173.516 192.697C174.109 192.085 175.895 190.422 176.947 190.814C177.246 190.925 177.389 191.48 177.483 191.753C177.584 192.043 177.31 192.378 177.165 192.591C175.704 194.726 174.263 196.767 173.198 199.146C171.575 202.768 170.242 206.587 169.04 210.368C168.332 212.593 167.761 214.888 167.884 217.242C167.896 217.476 167.943 218.128 168.075 218.26" stroke="black" stroke-width="1.61246" stroke-linecap="round"/>
<path d="M193.901 219.884C198.554 215.062 202.772 209.913 207.21 204.897C208.512 203.426 212.332 199.181 211.655 201.026C211.068 202.626 208.001 207.202 207.177 208.422C205.925 210.276 204.527 212.561 202.521 213.736C201.143 214.543 199.609 215.159 198.11 215.701C196.608 216.244 197.784 214.987 198.203 214.2C199.2 212.324 199.756 210.302 200.514 208.313C202.52 203.049 204.406 197.61 207.16 192.676C207.367 192.305 207.255 193.525 207.227 193.95C207.025 196.978 205.969 199.878 204.798 202.654C203.424 205.911 201.76 208.998 199.94 212.024C198.6 214.251 199.31 212.99 198.304 214.638C198.048 215.058 198.331 214.699 198.506 214.487C200.756 211.763 202.653 208.843 204.393 205.766C207.263 200.692 210.13 195.417 211.866 189.825C212.322 188.355 212.646 186.819 212.971 185.313C213.038 185.001 213.03 184.938 213.03 185.153C213.03 185.684 213.041 185.681 212.937 186.401C212.332 190.579 210.822 194.634 209.133 198.479C206.978 203.383 204.362 208.096 201.382 212.547C200.564 213.769 199.708 215.007 198.743 216.123C198.282 216.655 197.699 217.206 198.186 216.022C199.756 212.197 201.595 208.487 203.145 204.652C205.436 198.985 207.1 193.203 208.442 187.245C209.776 181.322 210.94 175.334 211.048 169.246C211.055 168.844 211.037 168.441 211.065 168.04C211.073 167.918 211.143 168.273 211.157 168.394C211.751 173.522 210.99 179.015 210.331 184.073C208.603 197.345 204.453 209.904 200.193 222.533C199.728 223.91 199.414 225.566 198.456 226.716" stroke="black" stroke-width="1.61246" stroke-linecap="round"/>
<path d="M101.911 139.54C101.639 147.344 101.656 155.141 101.68 162.949C101.684 164.278 101.749 165.61 101.68 166.938C101.665 167.214 101.535 166.402 101.514 166.127C101.036 159.957 100.802 153.741 100.802 147.553C100.802 145.891 100.841 144.239 100.984 142.586C101.115 141.08 100.979 145.61 100.951 147.122C100.823 154.163 100.573 161.212 101.034 168.246C101.177 170.424 101.262 172.758 101.895 174.868C102.492 176.857 102.21 173.002 102.209 172.915C102.188 168.185 102.042 163.473 101.448 158.777C101.256 157.26 101.001 155.625 100.753 154.108C100.668 153.589 100.585 153.069 100.488 152.552C100.416 152.171 100.496 151.188 100.19 151.426C99.5382 151.933 100.515 157.903 100.554 158.346C101.059 164.135 101.724 169.939 103.087 175.597C103.138 175.811 105.205 182.6 104.262 178.709C102.93 173.21 100.683 167.971 99.0308 162.568C97.7897 158.509 96.8297 154.448 96.4483 150.218C96.4138 149.835 95.8479 145.108 96.5145 148.115C98.5789 157.431 100.581 166.968 106.381 174.703" stroke="black" stroke-width="1.61246" stroke-linecap="round"/>
<path d="M206.801 143.713C210.991 151.999 216.025 161.009 216.784 170.415C217.132 174.732 216.462 169.884 216.204 168.379C214.846 160.445 212.338 152.701 208.391 145.683C208.073 145.118 205.914 140.817 207.033 144.143C208.829 149.479 211.077 154.56 212.033 160.151C213.067 166.204 213.863 173.81 212.165 179.901C212.038 180.358 211.87 178.985 211.867 178.511C211.841 174.229 211.909 169.946 211.834 165.664C211.744 160.579 211.553 155.476 210.41 150.5C210.013 148.77 210.002 149.002 209.599 147.752C209.367 147.033 210.091 149.181 210.311 149.904C212.719 157.822 215.741 166.625 215.741 175.001" stroke="black" stroke-width="1.61246" stroke-linecap="round"/>
<path d="M137.425 226.753C138.812 225.274 138.288 225.717 140.748 224.081C143.067 222.538 146.643 220.377 149.029 218.93C150.061 218.303 151.288 217.912 152.116 217.033C152.326 216.81 151.525 217.187 151.23 217.268C148.188 218.102 145.182 219.04 142.438 220.64C141.311 221.296 140.243 222.042 139.544 223.153C139.232 223.648 138.786 224.641 139.004 223.333C139.222 222.023 140.428 220.905 141.454 220.204C144.604 218.051 148.423 217.182 152.199 217.268C153.34 217.294 154.893 217.535 156.049 217.808C156.374 217.885 156.783 217.892 156.99 218.154C157.067 218.251 156.802 218.321 156.686 218.362C155.589 218.748 154.337 218.835 153.196 218.944C151.12 219.141 149.041 219.187 146.959 219.283C146.041 219.325 145.116 219.421 144.279 219.83C142.195 220.849 141.221 222.84 140.222 224.787C140.121 224.984 140.036 224.999 140.042 224.787C140.062 224.089 140.44 223.405 140.845 222.862C144.483 217.995 151.257 217.658 156.783 218.521C157.406 218.619 158.602 218.686 159.178 219.082C159.266 219.142 159.021 219.262 158.915 219.262C156.825 219.262 154.726 218.953 152.656 218.708C149.686 218.357 146.459 217.721 143.49 218.445C140.519 219.17 137.658 221.186 136.719 224.205C136.505 224.894 136.548 225.628 136.553 226.338C136.553 226.422 136.504 227.538 136.788 226.995C138.14 224.409 138.847 221.739 141.51 220.107C143.795 218.706 146.499 218.654 149.098 218.798C151.162 218.913 153.127 219.167 154.996 220.024" stroke="black" stroke-width="1.61246" stroke-linecap="round"/>
<path d="M164.718 223.513C164.884 224.137 165.048 224.76 165.216 225.383C165.327 225.793 165.441 226.767 165.77 227.114C166.055 227.414 166.239 226.426 166.407 226.047C167.032 224.638 167.647 223.237 168.484 221.935C170.564 218.702 174.431 217.843 178.087 217.753C179.116 217.728 180.184 217.829 181.181 218.099C181.231 218.113 181.698 218.238 181.41 218.342C181.167 218.429 180.721 218.465 180.531 218.487C178.556 218.715 176.585 218.927 174.618 219.221C171.862 219.633 169.072 220.059 166.379 220.793C165.551 221.018 164.535 221.254 164.122 222.115C163.425 223.568 163.162 225.614 163.001 227.21C162.948 227.732 163.029 227.963 163.596 227.917C164.292 227.86 165.192 227.741 165.639 227.141C166.013 226.638 166.233 225.997 166.532 225.452C167.148 224.327 167.843 223.262 168.699 222.302C169.295 221.632 169.946 221.111 170.644 220.564C171.017 220.272 170.476 220.493 170.395 220.55C168.655 221.765 167.533 224.003 167.127 226.034C167.053 226.404 167.023 227.528 166.961 227.155C166.901 226.793 166.986 226.297 167.093 225.971C168.552 221.515 174.192 219.881 178.308 219.456C180.173 219.264 182.19 219.248 184.02 219.747C184.328 219.831 185.585 220.228 184.359 220.294C181.563 220.445 178.746 220.205 175.947 220.26C173.838 220.3 171.581 220.261 169.765 221.499C167.792 222.844 165.996 226.897 167.903 228.941C168.431 229.508 168.704 229.502 168.733 228.664C168.781 227.304 168.573 225.968 167.903 224.773C167.73 224.466 167.439 223.624 167.106 223.458C166.887 223.349 167.143 223.959 167.252 224.178C167.683 225.051 168.315 225.838 169.059 226.463C170.104 227.341 171.302 227.856 172.638 228.111C173.284 228.234 174.772 228.594 174.604 227.958C174.377 227.093 171.707 226.387 171.011 226.054C170.215 225.674 169.042 225.252 168.678 224.358C168.325 223.49 168.283 222.369 168.899 221.603C170.354 219.794 173.973 219.952 175.989 219.858C180.349 219.654 184.784 219.663 189.143 219.9C189.333 219.91 189.521 219.931 189.711 219.941C189.978 219.955 190.012 219.944 189.683 219.872C188.383 219.587 187.004 219.532 185.682 219.484C181.234 219.322 176.589 219.3 172.292 220.62C170.385 221.205 169.138 222.077 168.886 224.123C168.848 224.429 168.712 225.255 169.204 225.009" stroke="black" stroke-width="1.61246" stroke-linecap="round"/>
<path d="M161.548 219.987C163.753 221.135 165.486 224.14 164.386 226.583C163.946 227.56 163.202 228.078 162.232 228.34C161.963 228.412 161.264 228.204 161.464 228.01C162.657 226.852 164.537 227.492 164.808 225.519C165.231 222.443 161.735 221.711 159.927 219.97C159.358 219.423 160.661 220.02 160.695 220.038C161.942 220.681 162.86 221.544 163.685 222.664C164.286 223.48 164.956 224.423 165.011 225.477C165.087 226.93 163.133 227.731 162.089 228.213C161.218 228.615 159.906 229.326 158.88 229.142C158.273 229.033 159.773 228.342 159.825 228.314C160.814 227.792 161.869 227.407 162.824 226.82C164.076 226.049 164.428 225.26 164.8 223.838C165.11 222.651 165.664 221.375 164.352 220.697C163.351 220.179 161.723 220.01 160.94 219.227" stroke="black" stroke-width="1.61246" stroke-linecap="round"/>
<path d="M191.343 218.619C192.686 219.474 193.983 220.422 195.194 221.457C196.386 222.475 196.755 223.336 196.807 224.877C196.816 225.133 196.511 227.428 196.511 226.372" stroke="black" stroke-width="1.61246" stroke-linecap="round"/>
<path d="M206.698 224.548C207.408 218.724 214.168 215.025 219.079 213.433C219.766 213.211 232 210.318 232.085 211.93C232.111 212.429 231.182 212.374 230.7 212.504C227.439 213.388 224.129 214.057 220.835 214.802C219.153 215.182 217.423 215.512 216.038 216.609C214.965 217.46 214.208 218.652 213.471 219.784C212.766 220.867 212.139 221.987 211.478 223.095C211.206 223.551 211.241 222.983 211.224 222.74C211.162 221.844 210.956 220.732 211.208 219.852C211.59 218.514 213.426 217.428 214.484 216.795C218.854 214.181 224.279 213.189 229.146 215.038C230.234 215.452 231.349 216.061 232.22 216.845C232.433 217.037 232.498 217.184 232.76 217.259C232.907 217.301 232.788 217.442 232.701 217.47C232.032 217.694 231.048 217.506 230.396 217.403C225.061 216.557 220.042 214.24 214.628 213.864C212.269 213.7 209.386 213.651 207.171 214.65C205.731 215.298 205.08 216.789 204.62 218.205C204.34 219.067 202.953 223.191 204.265 223.847C205.383 224.406 207.39 223.439 208.311 222.96C211.038 221.541 212.97 219.205 215.422 217.453C217.024 216.309 219.015 215.668 220.92 215.258C223.047 214.799 225.682 214.333 227.837 214.903C229.155 215.252 229.947 216.68 230.717 217.707" stroke="black" stroke-width="1.61246" stroke-linecap="round"/>
<path d="M68.8564 221.834C70.3887 221.027 71.2067 219.781 72.9457 219.108C77.9647 217.164 83.4668 216.04 88.7495 215.117C91.1814 214.693 93.904 214.116 96.2859 215.078C96.8032 215.287 97.249 215.489 97.6885 215.819C98.1203 216.142 97.7547 216.076 97.5206 215.986C94.8071 214.947 92.1592 213.517 89.2433 213.122C87.6311 212.904 85.9977 213.199 84.4824 213.754C81.8468 214.72 78.721 216.27 77.1929 218.742C76.4693 219.913 75.9403 221.37 75.5434 222.693C75.5054 222.82 75.3345 223.698 75.257 223.059C75.1472 222.153 75.0811 221.249 75.3755 220.372C76.3094 217.592 78.0473 216.6 80.9463 215.947C86.9622 214.592 93.3142 214.722 99.3578 215.789C100.841 216.051 102.33 216.337 103.803 216.658C104.266 216.759 104.959 216.854 105.363 217.172C105.596 217.355 104.754 217.251 104.474 217.152C100.813 215.853 97.1524 215.198 93.2634 214.959C90.6442 214.798 87.932 214.705 85.3121 214.939C83.7832 215.076 82.7041 215.474 81.5291 216.441C79.5218 218.093 78.4188 220.412 77.4399 222.772C76.818 224.271 76.2204 225.865 76.1459 227.504C76.1327 227.795 76.0946 229.029 76.1855 227.938C76.4335 224.961 76.1085 221.199 78.803 219.305C81.3717 217.5 84.8497 217.647 87.8407 217.606C90.7969 217.566 93.7581 217.647 96.7007 217.942C97.9043 218.063 99.3969 218.157 100.543 218.673C101.928 219.297 103.249 220.53 104.375 221.518C104.778 221.871 106.367 222.96 106.469 223.572C106.597 224.336 105.69 222.232 105.235 221.607C102.794 218.255 99.3141 215.835 95.4068 214.495C92.6526 213.551 90.0739 213.667 87.258 214.258C84.33 214.873 81.3925 215.557 78.4968 216.312C76.5421 216.822 76.2296 219.011 75.8299 220.787C75.4795 222.343 75.6126 227.163 75.6126 225.568" stroke="black" stroke-width="1.61246" stroke-linecap="round"/>
<path d="M70.8644 61.335C70.1623 61.7763 68.2779 62.5007 69.8808 63.3021C70.6375 63.6805 75.5233 64.4001 73.9308 65.9925C73.7429 66.1805 72.3277 66.7243 73.2944 66.8604C74.7227 67.0616 76.2055 66.9248 77.6193 67.2076C78.9804 67.4798 74.6232 69.416 74.3359 70.0137C73.8372 71.0508 81.5593 72.7636 80.411 74.7581C80.0781 75.3362 78.0986 75.909 78.1545 76.5517C78.2204 77.3098 82.4553 79.0258 82.841 79.2276C85.3183 80.5237 87.8577 81.7244 90.2902 83.1041C91.3248 83.6909 91.5503 83.7983 90.594 84.3046C89.2571 85.0124 93.5976 87.2948 94.0366 88.2824C94.256 88.7761 94.665 89.1442 95.078 89.454" stroke="black" stroke-width="1.61246" stroke-linecap="round"/>
<path d="M226.56 98.0455C226.988 98.1882 227.336 98.483 227.775 98.6096C228.953 98.95 228.826 98.1857 229.684 97.7852" stroke="black" stroke-width="1.61246" stroke-linecap="round"/>
<path d="M229.945 97.5251C231.921 98.209 233.576 95.686 234.748 94.3718C235.222 93.8396 235.508 92.6782 236.208 92.8096C236.684 92.8987 236.772 93.5328 237.322 93.5328C239.447 93.5328 241.073 90.5114 241.676 88.8463C241.805 88.4889 241.604 87.6892 241.98 87.747C242.333 87.8014 243.165 89.6234 243.339 89.8589C243.895 90.6076 244.553 91.3332 245.365 91.8116C246.286 92.355 246.532 91.1793 246.811 90.4664C247.595 88.4659 248.284 86.3915 248.85 84.3189C249.235 82.9131 249.343 81.3261 249.964 79.994C250.312 79.248 250.842 81.4045 251.208 81.643C253.091 82.8706 256.965 76.9641 257.804 75.915" stroke="black" stroke-width="1.61246" stroke-linecap="round"/>
<path d="M121.896 88.9331C119.103 88.9331 115.766 90.3293 113.202 91.0883C109.07 92.3118 107.588 92.7364 103.453 94.473C90.938 99.7294 78.7355 105.854 66.4385 111.585" stroke="black" stroke-width="1.61246" stroke-linecap="round"/>
<path d="M126.321 100.389C119.69 107.452 111.895 113.558 104.624 119.945C104.309 120.222 98.9079 124.942 98.2886 125.5C95.9487 127.608 94.0875 129.886 91.9531 132.153" stroke="black" stroke-width="1.61246" stroke-linecap="round"/>
<path d="M192.193 104.555C199.662 112.934 206.254 121.841 211.981 131.517C214.19 135.249 216.481 139.591 218.143 143.667C220.092 148.447 218.628 145.637 220.052 149.858" stroke="black" stroke-width="1.61246" stroke-linecap="round"/>
<path d="M210.417 98.3062C210.95 98.6843 211.538 99.0785 211.95 99.579C217.634 106.485 221.778 115.136 225.72 123.041C228.962 129.539 232.042 136.054 234.5 142.886C235.471 145.583 235.598 146.835 235.672 149.337" stroke="black" stroke-width="1.61246" stroke-linecap="round"/>
<path d="M125.01 66.8017C124.712 66.8017 122.663 66.7183 123.623 66.8017C124.778 66.9022 122.863 68.1529 122.674 68.2982C121.894 68.8981 123.604 68.6873 123.258 69.0555C123.081 69.2429 121.009 70.3643 121.123 70.3968C122.091 70.6736 122.838 70.2272 121.314 71.2819C120.757 71.668 118.168 72.7685 119.553 73.3623C119.784 73.4614 119.108 74.9046 119.535 75.3424C120.173 75.997 119.894 76.1245 119.918 76.9848C119.936 77.6191 121.178 77.2127 121.579 77.3498C122.095 77.5264 121.721 78.6038 122.473 78.828C123.721 79.1996 125.077 79.2461 126.36 79.4119C127.532 79.5634 127.804 79.5418 127.382 80.6985C127.121 81.4132 126.873 81.7939 127.218 82.2862C127.674 82.9383 126.458 83.7833 127.482 84.1932C128.521 84.6085 131.03 83.9874 131.68 84.8867C132.077 85.4367 132.517 85.9463 132.893 86.5109" stroke="black" stroke-width="1.61246" stroke-linecap="round"/>
<path d="M205.16 80.2699C205.865 80.8646 206.749 81.8792 207.651 82.1678C208.052 82.2962 208.188 81.4732 208.244 81.2371C208.469 80.3025 209.472 82.2172 209.613 81.2827C209.686 80.7993 209.9 77.4918 210.872 78.2077C211.166 78.4245 211.744 79.5771 211.703 78.5362C211.666 77.6341 210.963 76.1078 211.292 75.2696C211.323 75.1907 213.023 76.8775 213.263 77.0763C214.082 77.7564 212.979 73.6384 213.135 73.6819C213.476 73.7772 214.594 74.5002 214.367 73.6181C214.053 72.3961 213.353 71.2207 212.788 70.1051C212.584 69.7022 211.849 68.5813 212.168 68.9006C213.124 69.8565 211.364 67.1026 211.255 66.7655C211.174 66.5131 211.728 66.7333 211.821 66.5282C212.046 66.0299 211.326 65.2114 211.073 64.8311" stroke="black" stroke-width="1.61246" stroke-linecap="round"/>
<path d="M151.868 140.748L153.267 146.342" stroke="black" stroke-width="1.61246" stroke-linecap="round"/>
<path d="M153.967 142.146C153.967 144.177 154.017 145.993 155.016 147.741" stroke="black" stroke-width="1.61246" stroke-linecap="round"/>
<path d="M79.5684 195.212C80.2144 197.778 80.5763 200.468 81.4126 202.977" stroke="black" stroke-width="1.61246" stroke-linecap="round"/>
<path d="M126.234 195.925C127.023 196.618 127.695 197.469 128.419 198.222C129.597 199.446 130.846 200.28 132.117 201.344" stroke="black" stroke-width="1.61246" stroke-linecap="round"/>
<path d="M129.332 195.925C130.698 196.966 131.76 198.574 132.996 199.77C134.47 201.196 135.991 202.399 137.692 203.511" stroke="black" stroke-width="1.61246" stroke-linecap="round"/>
<path d="M134.626 33.6304C134.508 35.0497 133.364 36.3404 132.724 37.5465C132.303 38.3394 132.423 39.2815 132.631 40.1141" stroke="black" stroke-width="1.61246" stroke-linecap="round"/>
<path d="M136.456 34.7935C136.045 35.0179 135.861 35.6859 135.69 36.0865C135.269 37.0692 134.763 38.0099 134.332 38.9866C133.693 40.4351 134.012 42.0817 134.129 43.6047" stroke="black" stroke-width="1.61246" stroke-linecap="round"/>
<path d="M214.505 48.1C212.288 50.1154 209.749 51.6929 207.162 53.1987C205.72 54.0385 204.251 54.8319 202.769 55.6006C202.023 55.9878 201.267 56.36 200.483 56.6646C199.952 56.8712 201.501 56.1512 202.011 55.8956C207.471 53.1571 213.357 50.6354 217.602 46.0668C218.811 44.7664 220.377 41.9624 220.131 39.9462C219.97 38.6316 217.079 38.4416 216.391 38.3028C213.603 37.7404 210.797 37.2726 208.058 36.4908C206.225 35.9676 202.909 35.346 203.17 32.8248C203.459 30.0263 212.526 35.7101 212.567 35.7323C219.445 39.4745 226.087 43.6573 232.835 47.6259C234.418 48.5568 236.022 49.4524 237.597 50.3965C238.354 50.8503 239.129 51.2824 239.83 51.8187C240.067 51.9997 240.371 52.2268 240.378 52.5245C240.389 52.964 238.246 54.6872 238.008 54.9159C237.086 55.8008 236.152 56.7117 235.005 57.3072C233.812 57.9269 232.518 58.15 231.192 58.15" stroke="black" stroke-width="1.61246" stroke-linecap="round"/>
<path d="M202.055 45.7686C202.015 46.7853 201.962 48.0712 201.266 48.877C200.844 49.3659 200.135 50.3092 199.419 50.3092" stroke="black" stroke-width="1.61246" stroke-linecap="round"/>
<path d="M203.52 45.7686C203.387 47.3346 203.079 48.9554 202.536 50.4312C201.94 52.0485 200.946 52.8795 199.712 53.9709" stroke="black" stroke-width="1.61246" stroke-linecap="round"/>
<path d="M151.43 69.3826C151.541 69.5635 151.515 69.667 151.457 69.8986C151.238 70.7839 150.881 71.6697 150.464 72.4787C150.206 72.9796 149.843 73.5754 149.232 73.6772C148.967 73.7214 148.723 73.8885 148.444 73.8769C148.108 73.8629 149.002 73.4886 149.221 73.2333C149.765 72.5991 150.73 71.7027 150.73 70.7808C150.73 70.0552 150.731 70.985 150.664 71.258C150.506 71.9027 149.907 72.6913 149.427 73.1722C148.762 73.8369 149.682 72.5547 149.754 72.3122C150.042 71.3454 150.137 70.6552 149.637 69.7488C149.149 68.8634 147.752 68.9831 146.902 68.9831C145.91 68.9831 145.008 68.9423 144.117 68.4615C143.849 68.3172 143.558 68.1559 143.306 67.9843C142.855 67.6767 144.143 68.6859 144.56 69.0385C145.067 69.4672 145.637 69.9631 146.28 70.1815C146.419 70.2288 146.904 70.4682 146.541 70.2925C145.754 69.9117 144.86 69.1458 144.488 68.3283C144.273 67.855 144.237 67.8308 143.939 68.2617C143.693 68.617 143.483 68.8475 143.295 69.2771C143.206 69.482 143.34 70.2524 143.34 69.8819" stroke="black" stroke-width="1.61246" stroke-linecap="round"/>
<path d="M184.488 71.2804C184.425 71.6893 184.17 71.915 183.889 72.1793C183.799 72.2639 183.759 72.2119 183.817 72.1016C184.082 71.5974 184.602 71.1634 185.01 70.7811C185.447 70.3707 185.917 69.8849 186.497 69.6824C187.39 69.3706 188.366 69.2703 189.293 69.1054C190.472 68.8958 187.998 70.1083 187.928 70.1374C186.401 70.7739 184.833 71.3443 183.223 71.7354C182.911 71.8114 182.087 72.1748 182.274 71.913C182.461 71.6513 182.972 71.4602 183.245 71.3248C183.999 70.9515 184.788 70.6355 185.565 70.315C186.07 70.1066 186.548 70.1038 187.085 70.0375C187.652 69.9677 188.188 69.7799 188.75 69.6935C189.262 69.6147 189.771 69.4848 190.281 69.3828" stroke="black" stroke-width="1.61246" stroke-linecap="round"/>
<path d="M191.08 68.9834C191.103 69.1922 191.325 69.37 191.435 69.5383C191.625 69.8289 191.677 70.1665 191.779 70.4926C191.947 71.0298 191.879 71.621 191.879 72.1794" stroke="black" stroke-width="1.61246" stroke-linecap="round"/>
<path d="M172.093 87.0951C172.072 87.5489 172.06 88.0141 171.985 88.4626C171.968 88.5603 171.988 88.7879 171.898 88.7469C171.784 88.6949 171.826 88.5054 171.806 88.3813C171.768 88.1436 171.75 87.9031 171.725 87.6638C171.69 87.3419 171.679 86.9892 171.611 86.6673C171.604 86.6354 171.613 86.7324 171.616 86.7648C171.701 87.4965 171.654 89.711 171.654 88.9743C171.654 87.8747 171.605 86.7752 171.605 85.6816" stroke="black" stroke-width="1.61246" stroke-linecap="round"/>
<path d="M171.41 85.146C171.701 86.1854 171.927 87.2337 172.136 88.2925C172.253 88.8878 172.412 89.4966 172.431 90.1067C172.432 90.1292 172.442 90.6611 172.385 90.5725C172.257 90.3724 172.19 89.9659 172.19 89.7276" stroke="black" stroke-width="1.61246" stroke-linecap="round"/>
<path d="M174.287 86.6574C174.388 86.6448 174.554 86.3113 174.607 86.2512C175.41 85.3281 176.445 84.6185 177.32 83.7655C177.667 83.4273 177.949 83.0431 178.278 82.6905C178.738 82.1996 179.247 81.7658 179.779 81.3555C179.945 81.2271 180.331 80.8422 180.331 81.0522" stroke="black" stroke-width="1.61246" stroke-linecap="round"/>
</svg>
