<svg width="793" height="418" viewBox="0 0 793 418" fill="none" xmlns="http://www.w3.org/2000/svg">
<g clip-path="url(#clip0_181_6078)">
<rect width="793" height="418" rx="11.7191" fill="#FA7AB1"/>
<path d="M367.82 300.557C384.193 254.776 419.036 202.332 482.553 196.102C549.245 189.56 571.959 266.255 576.775 332.558C586.197 335.606 593.14 338.72 596.623 341.83C600.977 350.966 603.144 372.768 576.981 386.885C530.894 364.587 422.33 325.082 356.779 345.444C351.496 332.521 342.258 305.548 347.573 301.033C348.723 300.055 356.165 299.947 367.82 300.557Z" fill="#DA1265"/>
<path d="M26.4 84L51.456 17.952H54.816L79.968 84H70.464L65.088 69.312H41.28L35.904 84H26.4ZM44.352 60.96H62.016L53.184 36.768L44.352 60.96ZM88.6463 84V39.84H96.9023V60.768L114.662 39.84H124.358L105.926 61.248L125.606 84H114.95L96.9023 63.072V84H88.6463ZM165.262 96.48V84H132.334V39.84H140.59V76.512H159.502V39.84H167.758V76.512H173.518V96.48H165.262ZM181.646 84.96V39.84H189.902V68.352L216.494 38.88H219.47V84H211.214V55.488L184.718 84.96H181.646ZM230.07 84L240.822 67.296C234.966 65.184 231.414 60.288 231.414 54.144C231.414 45.792 237.942 39.84 247.926 39.84H265.206V84H256.95V68.544H249.558L239.766 84H230.07ZM248.214 61.056H256.95V47.328H248.214C243.03 47.328 239.67 49.92 239.67 54.24C239.67 58.464 243.126 61.056 248.214 61.056ZM30.24 154V109.84H38.496V127.984H59.328V109.84H67.584V154H59.328V135.472H38.496V154H30.24ZM100.661 155.056C87.1253 155.056 77.6213 145.264 77.6213 131.92C77.6213 118.672 86.9333 108.784 99.7973 108.784C111.893 108.784 121.013 117.616 121.013 130.384C121.013 131.728 120.917 132.88 120.725 134.32H86.2613C87.2213 142.288 92.7893 147.28 101.141 147.28C106.613 147.28 111.221 145.168 114.773 140.848L119.957 145.744C115.349 151.792 108.341 155.056 100.661 155.056ZM86.4532 127.504H112.373C111.221 120.208 106.421 116.176 99.5093 116.176C92.5013 116.176 87.7013 120.496 86.4532 127.504ZM126.795 166.48V146.512C131.499 146.512 134.379 141.808 134.379 127.216V109.84H166.827V146.512H172.779V166.48H164.523V154H135.051V166.48H126.795ZM138.795 146.512H158.571V117.328H142.635V127.408C142.635 137.2 141.483 142.672 138.795 146.512ZM202.099 155.056C188.563 155.056 179.059 145.264 179.059 131.92C179.059 118.672 188.371 108.784 201.235 108.784C213.331 108.784 222.451 117.616 222.451 130.384C222.451 131.728 222.355 132.88 222.163 134.32H187.699C188.659 142.288 194.227 147.28 202.579 147.28C208.051 147.28 212.659 145.168 216.211 140.848L221.395 145.744C216.787 151.792 209.779 155.056 202.099 155.056ZM187.891 127.504H213.811C212.659 120.208 207.859 116.176 200.947 116.176C193.939 116.176 189.139 120.496 187.891 127.504ZM231.305 154.576C230.153 154.576 229.001 154.48 228.233 154.288V145.936C228.905 146.128 229.865 146.32 230.729 146.32C234.185 146.32 235.817 143.824 235.817 138.256V109.84H268.649V154H260.393V117.328H244.073V138.16C244.073 149.104 239.753 154.576 231.305 154.576ZM281.115 154.96V109.84H289.371V138.352L315.963 108.88H318.939V154H310.683V125.488L284.187 154.96H281.115ZM337.219 154.576C333.955 154.576 331.459 152.08 331.459 148.816C331.459 145.552 333.955 143.056 337.219 143.056C340.483 143.056 342.979 145.552 342.979 148.816C342.979 152.08 340.483 154.576 337.219 154.576ZM333.955 137.104L332.515 89.68H341.923L340.483 137.104H333.955Z" fill="white"/>
<path d="M26.304 206V203.048C26.304 198.872 29.472 196.64 33 194.516C36.24 192.644 38.4 191.06 38.4 188.54C38.4 186.2 36.636 184.616 34.152 184.616C31.632 184.616 29.94 186.164 29.256 189.188L26.16 188.576C26.952 184.148 29.94 181.484 34.152 181.484C38.58 181.484 41.748 184.436 41.748 188.468C41.748 192.248 38.976 194.552 34.62 197.18C32.1 198.728 29.652 200.42 29.652 202.868H41.82V206H26.304ZM54.0431 206V189.44H57.1391V203.192H63.6911V189.44H66.7871V203.192H73.3031V189.44H76.3991V206H54.0431ZM85.7943 206.396C82.4103 206.396 79.9983 204.236 79.9983 201.212C79.9983 198.08 82.7343 195.776 86.4423 195.776C88.1703 195.776 89.6463 196.172 91.0863 196.964V196.136C91.0863 193.58 89.4303 191.852 87.0183 191.852C85.4343 191.852 84.1383 192.536 83.1303 193.904L81.0423 191.852C82.6983 189.98 84.8223 189.044 87.1983 189.044C91.3023 189.044 94.1823 191.96 94.1823 195.992V206H91.0863V203.804C89.7183 205.532 87.8823 206.396 85.7943 206.396ZM86.4423 203.768C88.9983 203.768 90.8703 202.112 91.0503 199.664C89.5743 198.656 88.2783 198.224 86.6223 198.224C84.4623 198.224 83.0943 199.34 83.0943 201.032C83.0943 202.724 84.3903 203.768 86.4423 203.768ZM98.6916 206V189.44H112.336V206H109.24V192.248H101.788V206H98.6916ZM124.712 206.396C119.924 206.396 116.108 202.544 116.108 197.72C116.108 192.932 119.924 189.044 124.712 189.044C129.464 189.044 133.28 192.896 133.28 197.72C133.28 202.508 129.464 206.396 124.712 206.396ZM124.712 203.48C127.844 203.48 130.076 201.068 130.076 197.72C130.076 194.372 127.844 191.96 124.712 191.96C121.58 191.96 119.312 194.372 119.312 197.72C119.312 201.068 121.58 203.48 124.712 203.48ZM146.299 206V200.852C144.787 201.248 143.779 201.356 142.591 201.356C138.883 201.356 136.507 199.052 136.507 195.56V189.44H139.603V195.524C139.603 197.36 140.863 198.548 143.059 198.548C143.923 198.548 145.039 198.368 146.299 198.08V189.44H149.395V206H146.299ZM154.063 206V189.44H157.159V197.288L163.819 189.44H167.455L160.543 197.468L167.923 206H163.927L157.159 198.152V206H154.063ZM170.445 206.36V189.44H173.541V200.132L183.513 189.08H184.629V206H181.533V195.308L171.597 206.36H170.445ZM197.235 206V189.44H210.879V206H207.783V192.248H200.331V206H197.235ZM223.255 206.396C218.467 206.396 214.651 202.544 214.651 197.72C214.651 192.932 218.467 189.044 223.255 189.044C228.007 189.044 231.823 192.896 231.823 197.72C231.823 202.508 228.007 206.396 223.255 206.396ZM223.255 203.48C226.387 203.48 228.619 201.068 228.619 197.72C228.619 194.372 226.387 191.96 223.255 191.96C220.123 191.96 217.855 194.372 217.855 197.72C217.855 201.068 220.123 203.48 223.255 203.48ZM255.848 210.68V206H243.5V189.44H246.596V203.192H253.688V189.44H256.784V203.192H258.944V210.68H255.848ZM269.732 206.396C264.656 206.396 261.092 202.724 261.092 197.72C261.092 192.752 264.584 189.044 269.408 189.044C273.944 189.044 277.364 192.356 277.364 197.144C277.364 197.648 277.328 198.08 277.256 198.62H264.332C264.692 201.608 266.78 203.48 269.912 203.48C271.964 203.48 273.692 202.688 275.024 201.068L276.968 202.904C275.24 205.172 272.612 206.396 269.732 206.396ZM264.404 196.064H274.124C273.692 193.328 271.892 191.816 269.3 191.816C266.672 191.816 264.872 193.436 264.404 196.064ZM281.153 206V189.44H284.249V196.244H292.061V189.44H295.157V206H292.061V199.052H284.249V206H281.153ZM307.56 206.396C302.484 206.396 298.92 202.724 298.92 197.72C298.92 192.752 302.412 189.044 307.236 189.044C311.772 189.044 315.192 192.356 315.192 197.144C315.192 197.648 315.156 198.08 315.084 198.62H302.16C302.52 201.608 304.608 203.48 307.74 203.48C309.792 203.48 311.52 202.688 312.852 201.068L314.796 202.904C313.068 205.172 310.44 206.396 307.56 206.396ZM302.232 196.064H311.952C311.52 193.328 309.72 191.816 307.128 191.816C304.5 191.816 302.7 193.436 302.232 196.064ZM330.275 206V186.488L326.999 188.72L325.271 186.164L332.399 181.232H333.623V206H330.275Z" fill="white"/>
<path d="M535.82 130.557C552.193 84.7762 587.036 32.3319 650.553 26.1019C717.245 19.5605 739.959 96.255 744.775 162.558C754.197 165.606 761.14 168.72 764.623 171.83C768.977 180.966 771.144 202.768 744.981 216.885C698.894 194.587 590.33 155.082 524.779 175.443C519.496 162.521 510.258 135.548 515.573 131.032C516.723 130.055 524.165 129.947 535.82 130.557Z" fill="#DA1265"/>
<path d="M29.724 386V366.488L26.448 368.72L24.72 366.164L31.848 361.232H33.072V386H29.724ZM38.7845 386V383.048C38.7845 378.872 41.9525 376.64 45.4805 374.516C48.7205 372.644 50.8805 371.06 50.8805 368.54C50.8805 366.2 49.1165 364.616 46.6325 364.616C44.1125 364.616 42.4205 366.164 41.7365 369.188L38.6405 368.576C39.4325 364.148 42.4205 361.484 46.6325 361.484C51.0605 361.484 54.2285 364.436 54.2285 368.468C54.2285 372.248 51.4565 374.552 47.1005 377.18C44.5805 378.728 42.1325 380.42 42.1325 382.868H54.3005V386H38.7845ZM60.7734 386.216C59.5494 386.216 58.6134 385.28 58.6134 384.056C58.6134 382.832 59.5494 381.896 60.7734 381.896C61.9974 381.896 62.9334 382.832 62.9334 384.056C62.9334 385.28 61.9974 386.216 60.7734 386.216ZM76.1814 386.396C70.8174 386.396 67.2534 381.428 67.2534 373.94C67.2534 366.452 70.8174 361.484 76.1814 361.484C81.5814 361.484 85.1094 366.488 85.1094 373.94C85.1094 381.356 81.5814 386.396 76.1814 386.396ZM76.1814 383.228C79.5294 383.228 81.5454 379.736 81.5454 373.94C81.5454 368.144 79.5294 364.652 76.1814 364.652C72.7974 364.652 70.8174 368.144 70.8174 373.94C70.8174 379.772 72.7974 383.228 76.1814 383.228ZM95.1596 386.396C91.7396 386.396 88.8956 384.632 87.2756 381.428L89.9396 379.628C91.0916 382.04 92.8556 383.264 95.1956 383.264C98.0756 383.264 99.9476 381.356 99.9476 378.404C99.9476 375.416 97.9676 373.472 94.9076 373.472C93.3956 373.472 92.0276 373.904 90.8756 374.84L89.6876 374.156L91.5596 361.88H102.756V365.012H94.0436L93.1436 370.736C93.8996 370.484 94.7636 370.34 95.6276 370.34C100.092 370.34 103.296 373.688 103.296 378.26C103.296 383.012 99.9116 386.396 95.1596 386.396ZM106.897 378.224V375.092H114.997V378.224H106.897ZM122.15 386V366.488L118.874 368.72L117.146 366.164L124.274 361.232H125.498V386H122.15ZM135.53 386.864L133.622 384.524C137.654 381.752 140.246 379.124 142.046 376.208C140.966 377 139.634 377.432 138.086 377.432C133.73 377.432 130.166 373.904 130.166 369.512C130.166 365.048 133.874 361.484 138.698 361.484C143.486 361.484 146.906 364.976 146.906 370.16C146.906 375.956 142.622 382.292 135.53 386.864ZM138.518 374.3C141.362 374.3 143.558 372.32 143.558 369.512C143.558 366.704 141.362 364.616 138.518 364.616C135.674 364.616 133.514 366.704 133.514 369.512C133.514 372.32 135.674 374.3 138.518 374.3ZM152.145 386.216C150.921 386.216 149.985 385.28 149.985 384.056C149.985 382.832 150.921 381.896 152.145 381.896C153.369 381.896 154.305 382.832 154.305 384.056C154.305 385.28 153.369 386.216 152.145 386.216ZM167.553 386.396C162.189 386.396 158.625 381.428 158.625 373.94C158.625 366.452 162.189 361.484 167.553 361.484C172.953 361.484 176.481 366.488 176.481 373.94C176.481 381.356 172.953 386.396 167.553 386.396ZM167.553 383.228C170.901 383.228 172.917 379.736 172.917 373.94C172.917 368.144 170.901 364.652 167.553 364.652C164.169 364.652 162.189 368.144 162.189 373.94C162.189 379.772 164.169 383.228 167.553 383.228ZM186.531 386.396C183.111 386.396 180.267 384.632 178.647 381.428L181.311 379.628C182.463 382.04 184.227 383.264 186.567 383.264C189.447 383.264 191.319 381.356 191.319 378.404C191.319 375.416 189.339 373.472 186.279 373.472C184.767 373.472 183.399 373.904 182.247 374.84L181.059 374.156L182.931 361.88H194.127V365.012H185.415L184.515 370.736C185.271 370.484 186.135 370.34 186.999 370.34C191.463 370.34 194.667 373.688 194.667 378.26C194.667 383.012 191.283 386.396 186.531 386.396Z" fill="white"/>
</g>
<defs>
<clipPath id="clip0_181_6078">
<rect width="793" height="418" rx="11.7191" fill="white"/>
</clipPath>
</defs>
</svg>
