<svg width="371" height="243" viewBox="0 0 371 243" fill="none" xmlns="http://www.w3.org/2000/svg">
<g clip-path="url(#clip0_325_9285)">
<path d="M108.2 68.7479C96.6708 81.9062 77.071 114.416 90.9061 139.19C108.2 170.158 19.3561 176.283 14.2697 149.059C6.58348 159.495 -7.36471 183.089 -1.66788 193.979C5.45315 207.591 45.4673 239.579 90.9061 212.355C127.257 190.576 138.153 172.653 139.058 166.414C169.576 151.101 235.768 129.662 256.385 166.414C282.157 212.355 343.872 213.716 364.896 203.847L371 172.88C350.428 174.808 308.064 170.77 303.181 139.19C297.077 99.7152 239.092 -56.4829 108.2 68.7479Z" fill="#FFC516"/>
</g>
<defs>
<clipPath id="clip0_325_9285">
<rect width="371" height="243" rx="11.4122" fill="white"/>
</clipPath>
</defs>
</svg>
