<svg width="381" height="243" viewBox="0 0 381 243" fill="none" xmlns="http://www.w3.org/2000/svg">
<path d="M109.119 68.7479C97.8053 81.9062 78.5723 114.416 92.1485 139.19C109.119 170.158 21.9377 176.283 16.9464 149.059C9.40411 159.495 -4.28302 183.089 1.30719 193.979C8.29494 207.591 47.5602 239.579 92.1485 212.355C127.819 190.576 138.512 172.653 139.399 166.414C169.346 151.101 234.299 129.662 254.53 166.414C279.819 212.355 340.38 213.716 361.011 203.847L367 172.88C346.813 174.808 305.242 170.77 300.45 139.19C294.46 99.7152 237.56 -56.4829 109.119 68.7479Z" fill="#0500C6"/>
</svg>
