<svg width="214" height="86" viewBox="0 0 214 86" fill="none" xmlns="http://www.w3.org/2000/svg">
<path d="M80.8164 43.376H86.4482C88.1791 50.4863 89.9079 57.5774 91.6346 64.6495H91.8V43.4078H97.5273V84.5549C95.9491 84.5549 94.4091 84.5931 92.8755 84.5231C92.6527 84.5231 92.3345 84.0395 92.2391 83.7276C90.4446 76.7149 88.6627 69.7001 86.8937 62.6832C86.8303 62.3577 86.6784 62.056 86.4546 61.8114V84.4913H80.8164V43.376Z" fill="#FD3C12"/>
<path d="M152.727 0.885871V42.0521C151.149 42.0521 149.609 42.0521 148.076 42.0139C147.853 42.0139 147.541 41.5176 147.439 41.2057C146.211 36.4267 145.015 31.6603 143.812 26.8494C143.205 24.4567 142.603 22.064 142.005 19.6713C141.949 19.4139 141.821 19.1777 141.636 18.9904V41.9885H136.029V0.834961C137.786 0.834961 139.523 0.834961 141.254 0.834961C141.457 0.834961 141.763 1.27405 141.833 1.56041C143.169 6.95676 144.491 12.3574 145.797 17.7622C146.116 19.1719 146.518 20.5616 147 21.924V0.885871H152.727Z" fill="#FD3C12"/>
<path d="M0 84.5482V43.5029C0.0763634 43.4457 0.127273 43.3757 0.178182 43.3757C3.73544 43.3757 7.30543 43.2611 10.8563 43.4075C14.4072 43.5538 16.5836 46.0866 16.5836 50.0384C16.6409 57.3947 16.6345 64.751 16.6154 72.101C16.6773 74.4052 16.5986 76.7109 16.3799 79.0055C15.9345 82.5819 13.65 84.491 10.0672 84.5419C6.75816 84.5801 3.42999 84.5482 0 84.5482ZM6.36362 78.5283C9.50088 78.7637 10.1818 78.1274 10.2518 75.1301V74.8374C10.2518 67.4556 10.2518 60.0738 10.2518 52.692C10.2489 51.9675 10.1914 51.2442 10.08 50.5284C10.0509 50.1266 9.87896 49.7486 9.59533 49.4626C9.31169 49.1767 8.93508 49.0017 8.53361 48.9693C7.82725 48.8993 7.11452 48.9693 6.36998 48.9693L6.36362 78.5283Z" fill="#FD3C12"/>
<path d="M155.164 42.0208V0.886406C155.431 0.886406 155.68 0.816406 155.928 0.816406C158.931 0.816406 161.935 0.816406 164.932 0.816406C169.317 0.816406 171.722 3.15822 171.748 7.53002C171.811 16.5664 171.786 25.6027 171.748 34.6454C171.74 35.4024 171.659 36.1568 171.506 36.8981C170.869 40.0799 168.776 41.919 165.505 41.989C162.107 42.0908 158.683 42.0208 155.164 42.0208ZM161.477 35.9627C164.493 36.3445 165.295 35.6572 165.378 32.7808C165.378 32.6536 165.378 32.5199 165.378 32.3863C165.378 24.9409 165.378 17.4976 165.378 10.0564C165.431 9.36669 165.362 8.67305 165.174 8.00729C164.972 7.4084 164.549 6.90962 163.99 6.61366C163.169 6.42567 162.326 6.34651 161.483 6.37821L161.477 35.9627Z" fill="#FD3C12"/>
<path d="M6.32543 42.0011H0V0.873047H6.22361V17.2275H10.4363V0.898502H16.7427V41.9947H10.5445V24.0302H6.32543V42.0011Z" fill="#FD3C12"/>
<path d="M148.577 84.5226H142.328V43.42H148.526V59.7299H152.784V43.3945H159.039V84.4844H152.784V66.5326H148.577V84.5226Z" fill="#FD3C12"/>
<path d="M178.302 63.8983C178.302 68.4801 178.347 73.0619 178.271 77.6374C178.2 78.7202 177.953 79.7843 177.539 80.7874C176.762 82.9192 175.229 84.4083 172.982 84.7201C171.039 85.0285 169.06 85.0542 167.109 84.7965C163.927 84.2937 162.018 81.9265 161.49 78.3819C161.348 77.4382 161.276 76.4853 161.273 75.531C161.273 67.6868 161.273 59.8384 161.273 51.9857C161.287 50.8654 161.419 49.7498 161.668 48.6575C162.393 45.3548 164.379 43.4266 167.72 43.0575C169.454 42.8662 171.207 42.9241 172.925 43.2293C176.062 43.7829 178.131 46.3666 178.258 50.0511C178.423 54.6711 178.302 59.2911 178.302 63.8983ZM172.009 63.9938C172.009 60.1756 172.009 56.3575 172.009 52.5393C172.019 51.8178 171.942 51.0978 171.78 50.3947C171.687 49.935 171.422 49.5283 171.038 49.2584C170.654 48.9885 170.182 48.876 169.718 48.9438C169.269 48.9448 168.834 49.1042 168.491 49.3941C168.147 49.6839 167.917 50.0856 167.841 50.5284C167.717 51.0756 167.653 51.6346 167.65 52.1957C167.65 60.0356 167.65 67.8735 167.65 75.7092C167.661 76.3978 167.779 77.0806 168 77.7328C168.135 78.1509 168.413 78.5078 168.786 78.7407C169.158 78.9735 169.601 79.0673 170.036 79.0056C170.438 79.017 170.83 78.8868 171.146 78.6379C171.461 78.3889 171.679 78.037 171.761 77.6437C171.92 76.94 172.001 76.2208 172.003 75.4992C172.022 71.6301 172.009 67.812 172.009 63.9938Z" fill="#FD3C12"/>
<path d="M197.506 63.968C197.506 68.4226 197.544 72.8771 197.474 77.3316C197.428 78.3849 197.225 79.4252 196.87 80.418C196.093 82.7916 194.49 84.4462 191.989 84.7834C190.076 85.0698 188.13 85.0698 186.217 84.7834C183.035 84.2552 181.164 81.9198 180.674 78.4198C180.524 77.3425 180.449 76.2558 180.452 75.168C180.452 67.6526 180.42 60.1371 180.452 52.6281C180.445 51.2135 180.597 49.8027 180.903 48.4217C181.616 45.4563 183.449 43.4899 186.573 43.1463C188.432 42.9221 190.313 42.9628 192.161 43.2672C195.342 43.8399 197.353 46.5254 197.462 50.3372C197.589 54.8808 197.493 59.4308 197.493 63.9744L197.506 63.968ZM191.181 64.0508C191.181 60.1626 191.181 56.2744 191.181 52.3863C191.19 51.6651 191.102 50.9459 190.92 50.2481C190.809 49.8266 190.548 49.4601 190.186 49.2176C189.824 48.975 189.385 48.873 188.953 48.9308C188.517 48.9048 188.086 49.0344 187.736 49.2966C187.387 49.5588 187.142 49.9366 187.044 50.3626C186.897 50.904 186.822 51.4625 186.822 52.0235C186.822 59.9568 186.822 67.8944 186.822 75.8362C186.832 76.4599 186.94 77.0782 187.14 77.6689C187.274 78.0809 187.547 78.4333 187.913 78.6656C188.279 78.8979 188.714 78.9955 189.144 78.9416C189.562 78.9646 189.974 78.8355 190.304 78.5781C190.634 78.3207 190.86 77.9525 190.939 77.5416C191.093 76.8696 191.168 76.1819 191.162 75.4926C191.193 71.6935 191.181 67.8689 191.181 64.0508Z" fill="#FD3C12"/>
<path d="M77 1.0011C81.1045 1.0011 85.1263 0.854736 89.129 1.05837C90.1963 1.08131 91.213 1.5172 91.9654 2.27438C92.7179 3.03156 93.1474 4.05102 93.1636 5.11836C93.3863 8.5929 93.3481 12.1183 93.2845 15.5865C93.2775 16.4525 93.0374 17.3007 92.5895 18.042C92.1416 18.7832 91.5024 19.3902 90.739 19.7992C93.0936 20.8938 93.4372 22.8792 93.4245 25.0619C93.4245 29.1156 93.3863 33.1755 93.4245 37.2292C93.4245 38.7882 93.6281 40.3473 93.7427 42.0528C91.9927 42.0528 90.0327 42.0528 88.0727 42.021C87.8691 42.021 87.5318 41.6264 87.4872 41.3846C87.2937 40.4176 87.1788 39.4365 87.1436 38.451C87.1436 34.3974 87.1436 30.3437 87.1436 26.2837C87.1436 24.0438 85.8327 23.1019 83.65 23.7001C83.4336 23.7637 83.2427 24.2983 83.2427 24.6165C83.2427 29.4337 83.2427 34.2446 83.2427 39.0619V41.9891H77V1.0011ZM83.2554 17.712C86.3418 18.0365 87.1118 17.3683 87.1245 14.4601C87.1245 12.8438 87.1245 11.2274 87.1245 9.61744C87.1245 6.7729 86.6791 6.34017 83.86 6.40381C83.6754 6.40381 83.4909 6.44836 83.2554 6.47381V17.712Z" fill="#FD3C12"/>
<path d="M75.0075 84.4976L74.0403 80.9276C73.278 81.952 72.4399 82.9177 71.533 83.8167C70.9249 84.3547 70.2048 84.7509 69.4248 84.9766C68.6448 85.2022 67.8244 85.2516 67.0229 85.1213C66.2214 84.991 65.459 84.6841 64.7906 84.223C64.1223 83.7618 63.5648 83.1579 63.1585 82.4549C62.5387 81.3388 62.1309 80.1176 61.9558 78.8531C61.8071 77.4093 61.7667 75.9565 61.8349 74.5067C61.8349 67.1504 61.8349 59.794 61.8349 52.4441C61.8276 50.9965 61.9877 49.553 62.3121 48.1423C63.0376 45.1832 65.0103 43.3759 68.0394 43.0514C69.8085 42.8676 71.5946 42.9297 73.3466 43.2359C76.363 43.7768 77.8012 45.9977 78.0303 48.855C78.2403 51.2986 78.0748 53.7804 78.0748 56.3322H72.1567C72.1567 54.9641 72.1567 53.6213 72.1567 52.2786C72.145 51.6521 72.0919 51.0271 71.9976 50.4077C71.9603 49.9903 71.7636 49.6033 71.4483 49.3271C71.1331 49.051 70.7235 48.907 70.3048 48.925C69.8916 48.8634 69.4704 48.9603 69.1258 49.1964C68.7811 49.4325 68.5385 49.7902 68.4467 50.1977C68.31 50.7062 68.2395 51.2302 68.2367 51.7568C68.2367 59.7665 68.2367 67.7804 68.2367 75.7985C68.2412 76.3233 68.314 76.8452 68.453 77.3513C68.5341 77.744 68.7465 78.0973 69.0554 78.353C69.3643 78.6087 69.7512 78.7514 70.1521 78.7576C70.603 78.8165 71.0606 78.7233 71.4525 78.4928C71.8444 78.2623 72.1482 77.9076 72.3157 77.4849C72.4675 77.1549 72.5519 76.7979 72.5639 76.4349C72.5639 72.9476 72.5639 69.4349 72.5639 65.8331H69.8721V59.5459H78.4821V84.4403L75.0075 84.4976Z" fill="#FD3C12"/>
<path d="M140.089 58.8519H134.139C134.139 58.451 134.094 58.0692 134.088 57.6937C134.056 55.3837 134.088 53.0801 133.967 50.7764C133.903 49.4528 133.044 48.8292 131.772 48.931C131.387 48.918 131.012 49.0482 130.718 49.2963C130.424 49.5443 130.232 49.8926 130.181 50.2737C130.092 50.7247 130.041 51.1824 130.028 51.6419C130.028 59.7491 130.028 67.8585 130.028 75.97C130.031 76.4974 130.095 77.0227 130.219 77.5354C130.292 77.947 130.511 78.3184 130.836 78.5814C131.161 78.8444 131.57 78.9814 131.988 78.9673C132.423 79.0079 132.858 78.8871 133.21 78.6277C133.562 78.3684 133.807 77.9887 133.897 77.5609C134.034 76.9491 134.098 76.3232 134.088 75.6964C134.088 73.0555 134.088 70.4209 134.088 67.78V66.6473H140.273C140.273 67.1309 140.273 67.5509 140.273 67.9709C140.222 71.4327 140.273 74.8945 140.076 78.3436C139.879 81.7927 137.957 84.1409 134.953 84.8154C132.824 85.32 130.6 85.2718 128.494 84.6754C125.758 83.8863 124.383 81.8436 123.893 79.1582C123.722 78.1514 123.644 77.1311 123.658 76.11C123.658 67.8373 123.658 59.5646 123.658 51.2919C123.656 50.2068 123.786 49.1255 124.046 48.0719C124.784 45.1446 126.719 43.3692 129.71 43.0637C131.513 42.8885 133.331 42.9463 135.119 43.2356C137.976 43.6874 139.86 45.781 140.044 48.8674C140.242 52.1383 140.089 55.441 140.089 58.8519Z" fill="#FD3C12"/>
<path d="M34.9995 14.2753H28.9922C28.9922 12.8881 28.9922 11.5453 28.9922 10.209C28.9922 9.28625 28.9922 8.35716 28.8777 7.44717C28.8763 7.23849 28.8311 7.03244 28.7449 6.84236C28.6588 6.65229 28.5336 6.48244 28.3776 6.34384C28.2216 6.20523 28.0382 6.10097 27.8394 6.0378C27.6405 5.97464 27.4305 5.95398 27.2231 5.97717C27.0161 5.9506 26.8058 5.96709 26.6055 6.02563C26.4052 6.08416 26.2191 6.18346 26.059 6.31731C25.8988 6.45115 25.7681 6.61665 25.6749 6.80342C25.5818 6.99018 25.5283 7.19419 25.5177 7.40263C25.1295 9.98625 25.3459 12.4935 26.994 14.6444C28.8077 17.0371 30.5958 19.4426 32.4667 21.7844C36.1704 26.4171 36.2849 31.6925 35.0631 37.0889C34.3631 40.3534 32.0213 42.1989 28.6358 42.4152C27.0633 42.5405 25.4812 42.4678 23.9268 42.1989C22.5516 42.0083 21.2875 41.3393 20.3564 40.3094C19.4254 39.2795 18.8871 37.9545 18.8359 36.5671C18.6068 33.3853 18.6832 30.2035 18.6641 26.9835C18.7017 26.8493 18.7728 26.7269 18.8708 26.6278C18.9687 26.5287 19.0903 26.4562 19.2241 26.4171C21.0631 26.3726 22.9086 26.4171 24.8559 26.4171C24.8559 26.8371 24.9131 27.1807 24.9131 27.5307C24.9131 29.7389 24.9131 31.9471 24.9131 34.1553C24.9131 35.1162 25.1613 36.0262 26.1859 36.4016C26.4614 36.5284 26.764 36.5853 27.0668 36.5673C27.3696 36.5493 27.6633 36.457 27.9219 36.2984C28.1805 36.1398 28.3961 35.92 28.5494 35.6583C28.7028 35.3966 28.7893 35.1011 28.8013 34.798C29.234 31.4889 29.1004 28.3071 26.7649 25.5517C25.0468 23.5217 23.4622 21.358 21.8459 19.2389C19.9727 16.7803 18.9658 13.7708 18.9822 10.6799C18.9416 9.26505 18.9969 7.84908 19.1477 6.44171C19.5804 3.069 21.5022 1.03264 24.8749 0.62537C26.7054 0.416303 28.5549 0.439823 30.3795 0.69537C33.1413 1.07719 34.7767 3.02445 34.9486 6.08535C35.1076 8.76443 34.9995 11.469 34.9995 14.2753Z" fill="#FD3C12"/>
<path d="M105.236 68.9639H111.18C111.18 69.3012 111.225 69.6448 111.225 69.9884C111.225 71.9675 111.225 73.9466 111.225 75.9257C111.227 76.5184 111.304 77.1085 111.454 77.682C111.553 78.0879 111.794 78.4448 112.134 78.6877C112.474 78.9307 112.889 79.0435 113.306 79.0057C113.704 79.0533 114.106 78.9487 114.43 78.7127C114.755 78.4767 114.978 78.1267 115.056 77.733C115.558 74.7739 115.762 71.7957 113.878 69.1803C112.376 67.093 110.843 65.0185 109.169 63.0712C105.593 58.9285 104.836 54.0794 105.504 48.8931C105.943 45.4503 108.132 43.3631 111.594 43.0576C113.268 42.9284 114.951 42.9774 116.615 43.204C119.096 43.5285 120.815 44.9985 121.069 47.5122C121.4 50.5731 121.387 53.6658 121.527 56.8158H115.316C115.316 54.9067 115.316 53.093 115.316 51.254C115.315 50.7937 115.279 50.3342 115.208 49.8794C115.187 49.6734 115.123 49.4739 115.022 49.2931C114.921 49.1123 114.784 48.954 114.62 48.8278C114.455 48.7016 114.267 48.6102 114.066 48.559C113.866 48.5079 113.657 48.4981 113.452 48.5303C113.252 48.5121 113.05 48.5346 112.86 48.5965C112.669 48.6584 112.492 48.7584 112.341 48.8905C112.19 49.0226 112.067 49.184 111.98 49.3649C111.893 49.5458 111.844 49.7425 111.836 49.9431C111.575 52.3994 111.575 54.8303 113.166 56.943C114.674 58.9476 116.201 60.933 117.722 62.9185C119.243 64.9039 120.757 66.6985 121.368 69.0848C122.349 72.6263 122.334 76.3697 121.324 79.903C120.955 81.3595 120.107 82.6495 118.915 83.565C117.724 84.4804 116.259 84.9681 114.756 84.9493C113.312 85.0366 111.862 84.9769 110.429 84.7711C107.464 84.2684 105.51 82.4166 105.268 79.4511C105.001 75.9893 105.236 72.4957 105.236 68.9639Z" fill="#FD3C12"/>
<path d="M34.6043 68.9254H40.758C40.758 69.2945 40.8152 69.6381 40.8152 69.9881C40.8152 71.8972 40.8152 73.8063 40.8152 75.7154C40.8156 76.3719 40.8968 77.0259 41.0571 77.6626C41.1512 78.0702 41.3919 78.429 41.7333 78.6707C42.0748 78.9124 42.4931 79.0202 42.9089 78.9735C43.3106 79.0196 43.7147 78.9091 44.037 78.665C44.3594 78.4208 44.5753 78.0618 44.6398 77.6626C45.0789 74.7417 45.3779 71.7827 43.507 69.1927C41.8461 66.8954 40.0898 64.6681 38.3398 62.4409C36.1027 59.7362 34.9165 56.3153 34.9989 52.8063C34.9627 51.3888 35.0265 49.9704 35.1898 48.5618C35.7689 45.2209 37.8052 43.3182 41.1907 43.0191C42.8648 42.8822 44.5489 42.9334 46.2116 43.1718C48.8143 43.5282 50.4816 45.0809 50.7552 47.6264C51.0734 50.6236 51.0161 53.6591 51.1179 56.7391H44.9134C44.9134 55.0463 44.9134 53.3791 44.9134 51.7118C44.9326 51.1515 44.9198 50.5906 44.8752 50.0318C44.8755 49.8249 44.8336 49.6202 44.7521 49.43C44.6705 49.2399 44.551 49.0684 44.4009 48.926C44.2508 48.7837 44.0732 48.6734 43.8791 48.602C43.6849 48.5307 43.4782 48.4997 43.2716 48.5109C42.2025 48.46 41.6171 48.8164 41.4516 49.8855C41.0825 52.3864 41.2034 54.8363 42.7943 56.9682C44.468 59.2082 46.0907 61.5054 47.8852 63.6309C51.7861 68.1872 52.1934 73.4627 51.1561 78.999C50.4561 82.7344 47.8916 84.8217 44.0861 84.949C42.5439 85.0412 40.9962 84.9407 39.4789 84.6499C36.5962 84.0135 34.9416 81.7799 34.6043 78.439C34.5471 77.8472 34.5598 77.2554 34.5598 76.6572L34.6043 68.9254Z" fill="#FD3C12"/>
<path d="M63.0444 0.834961H70.5153C72.3035 14.5295 74.0916 28.1985 75.8925 41.9694H69.8344C69.5544 39.4239 69.2807 36.9421 68.9944 34.333H64.4635C64.2789 35.9494 64.0944 37.5785 63.9162 39.2076C63.8398 39.9267 63.8144 40.6585 63.6808 41.3648C63.6362 41.6066 63.3435 42.0012 63.1526 42.0012C61.4789 42.0457 59.8053 42.0012 57.998 42.0012C59.6844 28.2685 61.358 14.5867 63.0444 0.834961ZM66.818 14.084H66.5762C66.0841 18.7507 65.592 23.4173 65.0998 28.084H68.3453C67.8044 23.3622 67.3017 18.7231 66.818 14.084Z" fill="#FD3C12"/>
<path d="M135.03 42.0521C133.064 42.0521 131.257 42.0521 129.456 42.0139C129.246 42.0139 128.915 41.5176 128.877 41.2185C128.622 39.1906 128.41 37.1606 128.24 35.1285C128.189 34.4921 128.024 34.2503 127.369 34.2758C126.153 34.3267 124.931 34.2758 123.608 34.2758C123.429 35.8539 123.258 37.3812 123.092 38.9085C123.003 39.7294 122.971 40.5567 122.825 41.3648C122.774 41.6194 122.424 42.0012 122.189 42.0012C120.547 42.0521 118.899 42.0012 117.098 42.0012C118.784 28.2431 120.464 14.574 122.144 0.834961H129.628C131.441 14.5486 133.223 28.1985 135.03 42.0521ZM124.212 28.0521H127.451C126.923 23.2476 126.408 18.5067 125.886 13.7849H125.708L124.212 28.0521Z" fill="#FD3C12"/>
<path d="M33.1416 43.4141V49.294H25.1998V60.074H31.3661V66.3804H25.2189V78.2994H33.3961V84.523H18.9316V43.4141H33.1416Z" fill="#FD3C12"/>
<path d="M37.4688 41.9815V0.878906H51.6533V6.76526H43.7942V17.5834H49.9478V23.8579H43.7878V35.8342H51.9969V42.0133L37.4688 41.9815Z" fill="#FD3C12"/>
<path d="M99.7255 6.80391H94.5137V0.885742H111.155V6.77209H105.994V41.9692H99.7255V6.80391Z" fill="#FD3C12"/>
<path d="M206.017 78.1981H213.653V84.4917H199.818V43.4082H206.017V78.1981Z" fill="#FD3C12"/>
<path d="M53.4531 43.3945H59.6258V84.4908H53.4531V43.3945Z" fill="#FD3C12"/>
<path d="M6.36328 78.5288V48.9571C7.10782 48.9571 7.82055 48.8998 8.52691 48.9571C8.92838 48.9895 9.305 49.1645 9.58863 49.4505C9.87226 49.7364 10.0442 50.1145 10.0733 50.5162C10.1847 51.2321 10.2422 51.9553 10.2451 52.6798C10.2451 60.0616 10.2451 67.4434 10.2451 74.8252V75.1179C10.1814 78.1279 9.46873 78.7643 6.36328 78.5288Z" fill="white"/>
<path d="M161.477 35.9619V6.37106C162.319 6.33936 163.162 6.41853 163.984 6.60652C164.542 6.90248 164.966 7.40125 165.167 8.00014C165.355 8.6659 165.424 9.35954 165.371 10.0492C165.371 17.4947 165.371 24.938 165.371 32.3792C165.371 32.5128 165.371 32.6464 165.371 32.7737C165.32 35.6564 164.493 36.3437 161.477 35.9619Z" fill="white"/>
<path d="M172.009 63.9942C172.009 67.8124 172.009 71.6305 172.009 75.4487C172.008 76.1703 171.927 76.8895 171.767 77.5932C171.685 77.9865 171.468 78.3384 171.152 78.5874C170.837 78.8363 170.444 78.9665 170.043 78.955C169.608 79.0168 169.165 78.923 168.792 78.6902C168.42 78.4573 168.141 78.1004 168.006 77.6823C167.785 77.0301 167.667 76.3473 167.656 75.6587C167.656 67.8187 167.656 59.9809 167.656 52.1451C167.659 51.5841 167.723 51.0251 167.847 50.4779C167.924 50.0351 168.154 49.6334 168.497 49.3435C168.84 49.0537 169.275 48.8943 169.724 48.8933C170.188 48.8254 170.661 48.938 171.044 49.2079C171.428 49.4778 171.693 49.8845 171.786 50.3442C171.948 51.0473 172.025 51.7673 172.015 52.4888C172.022 56.3515 172.009 60.1697 172.009 63.9942Z" fill="white"/>
<path d="M191.182 64.0507C191.182 67.8689 191.182 71.6871 191.182 75.5052C191.188 76.1946 191.113 76.8823 190.959 77.5543C190.88 77.9652 190.654 78.3334 190.324 78.5908C189.994 78.8482 189.582 78.9773 189.165 78.9543C188.735 79.0082 188.299 78.9106 187.933 78.6783C187.568 78.446 187.294 78.0936 187.16 77.6816C186.96 77.0908 186.852 76.4726 186.842 75.8489C186.842 67.9113 186.842 59.9738 186.842 52.0362C186.842 51.4752 186.917 50.9167 187.065 50.3753C187.162 49.9493 187.407 49.5715 187.757 49.3093C188.106 49.0471 188.537 48.9175 188.974 48.9435C189.406 48.8857 189.844 48.9877 190.206 49.2303C190.568 49.4728 190.829 49.8393 190.94 50.2608C191.122 50.9586 191.21 51.6778 191.201 52.399C191.195 56.2744 191.182 60.1626 191.182 64.0507Z" fill="white"/>
<path d="M83.2227 17.7113V6.47315C83.4581 6.47315 83.6427 6.40951 83.8272 6.40315C86.6463 6.33951 87.0854 6.77224 87.0917 9.61678C87.0917 11.2268 87.0917 12.8431 87.0917 14.4595C87.079 17.3804 86.309 18.0168 83.2227 17.7113Z" fill="white"/>
<path d="M66.8178 14.084C67.3269 18.7231 67.8296 23.3621 68.345 28.0839H65.0996C65.596 23.4173 66.0881 18.7506 66.576 14.084H66.8178Z" fill="white"/>
<path d="M124.211 28.0592L125.706 13.8047H125.885C126.406 18.5392 126.922 23.2674 127.45 28.0719L124.211 28.0592Z" fill="white"/>
</svg>
