<svg width="1429" height="333" viewBox="0 0 1429 333" fill="none" xmlns="http://www.w3.org/2000/svg">
<g clip-path="url(#clip0_242_8416)">
<path d="M24.4457 196.188C29.4877 196.188 33.575 192.325 33.575 187.561C33.575 182.797 29.4877 178.935 24.4457 178.935C19.4037 178.935 15.3164 182.797 15.3164 187.561C15.3164 192.325 19.4037 196.188 24.4457 196.188Z" fill="#FF4A11"/>
<rect width="30.6124" height="11.214" rx="5.60701" transform="matrix(0.72684 -0.686807 0.72684 0.686807 65.7139 121.556)" fill="#FF4A11"/>
<rect width="30.6124" height="11.214" rx="5.60701" transform="matrix(0.72684 0.686807 -0.72684 0.686807 59.5693 100.562)" fill="#FF4A11"/>
<rect width="30.6124" height="11.214" rx="5.60701" transform="matrix(0.72684 -0.686807 0.72684 0.686807 115.151 121.556)" fill="#FF4A11"/>
<rect width="30.6124" height="11.214" rx="5.60701" transform="matrix(0.72684 0.686807 -0.72684 0.686807 109.007 100.559)" fill="#FF4A11"/>
<rect width="30.6124" height="11.214" rx="5.60701" transform="matrix(0.72684 -0.686807 0.72684 0.686807 164.54 121.556)" fill="#FF4A11"/>
<rect width="30.6124" height="11.214" rx="5.60701" transform="matrix(0.72684 0.686807 -0.72684 0.686807 158.396 100.562)" fill="#FF4A11"/>
<rect width="30.6124" height="11.214" rx="5.60701" transform="matrix(0.72684 -0.686807 0.72684 0.686807 214.134 121.556)" fill="#FF4A11"/>
<rect width="30.6124" height="11.214" rx="5.60701" transform="matrix(0.72684 0.686807 -0.72684 0.686807 207.989 100.559)" fill="#FF4A11"/>
<path d="M271.809 127.413C279.132 127.413 285.068 121.804 285.068 114.884C285.068 107.964 279.132 102.354 271.809 102.354C264.485 102.354 258.549 107.964 258.549 114.884C258.549 121.804 264.485 127.413 271.809 127.413Z" fill="#FF4A11"/>
<path d="M22.0116 89.8526C29.3348 89.8526 35.2713 84.2431 35.2713 77.3233C35.2713 70.4035 29.3348 64.7939 22.0116 64.7939C14.6885 64.7939 8.75195 70.4035 8.75195 77.3233C8.75195 84.2431 14.6885 89.8526 22.0116 89.8526Z" fill="#FF4A11"/>
<rect width="30.6124" height="11.214" rx="5.60701" transform="matrix(0.72684 -0.686807 0.72684 0.686807 64.5186 84.0039)" fill="#FF4A11"/>
<rect width="30.6124" height="11.214" rx="5.60701" transform="matrix(0.72684 0.686807 -0.72684 0.686807 58.374 63.0068)" fill="#FF4A11"/>
<rect width="30.6124" height="11.214" rx="5.60701" transform="matrix(0.72684 -0.686807 0.72684 0.686807 113.961 83.9951)" fill="#FF4A11"/>
<rect width="30.6124" height="11.214" rx="5.60701" transform="matrix(0.72684 0.686807 -0.72684 0.686807 107.812 63.0176)" fill="#FF4A11"/>
<rect width="30.6124" height="11.214" rx="5.60701" transform="matrix(0.72684 0.686807 -0.72684 0.686807 107.816 62.998)" fill="#FF4A11"/>
<path d="M169.701 89.8526C177.024 89.8526 182.961 84.2431 182.961 77.3233C182.961 70.4035 177.024 64.7939 169.701 64.7939C162.378 64.7939 156.441 70.4035 156.441 77.3233C156.441 84.2431 162.378 89.8526 169.701 89.8526Z" fill="#FF4A11"/>
<rect width="30.6124" height="11.214" rx="5.60701" transform="matrix(0.72684 -0.686807 0.72684 0.686807 214.499 83.9951)" fill="#FF4A11"/>
<rect width="30.6124" height="11.214" rx="5.60701" transform="matrix(0.72684 0.686807 -0.72684 0.686807 208.354 63)" fill="#FF4A11"/>
<rect width="30.6124" height="11.214" rx="5.60701" transform="matrix(0.72684 -0.686807 0.72684 0.686807 263.937 83.9951)" fill="#FF4A11"/>
<rect width="30.6124" height="11.214" rx="5.60701" transform="matrix(0.72684 0.686807 -0.72684 0.686807 257.792 62.9971)" fill="#FF4A11"/>
<rect width="30.6124" height="11.214" rx="5.60701" transform="matrix(0.72684 -0.686807 0.72684 0.686807 14.2959 46.1865)" fill="#FF4A11"/>
<rect width="30.6124" height="11.214" rx="5.60701" transform="matrix(0.72684 0.686807 -0.72684 0.686807 8.15137 25.1895)" fill="#FF4A11"/>
<rect width="30.6124" height="11.214" rx="5.60701" transform="matrix(0.72684 -0.686807 0.72684 0.686807 63.9004 46.2617)" fill="#FF4A11"/>
<rect width="30.6124" height="11.214" rx="5.60701" transform="matrix(0.72684 -0.686807 0.72684 0.686807 63.7334 46.1377)" fill="#FF4A11"/>
<rect width="30.6124" height="11.214" rx="5.60701" transform="matrix(0.72684 0.686807 -0.72684 0.686807 57.5889 25.1406)" fill="#FF4A11"/>
<rect width="30.6124" height="11.214" rx="5.60701" transform="matrix(0.72684 -0.686807 0.72684 0.686807 113.342 46.3047)" fill="#FF4A11"/>
<rect width="30.6124" height="11.214" rx="5.60701" transform="matrix(0.72684 0.686807 -0.72684 0.686807 107.197 25.3066)" fill="#FF4A11"/>
<rect width="30.6124" height="11.214" rx="5.60701" transform="matrix(0.72684 0.686807 -0.72684 0.686807 107.192 25.0449)" fill="#FF4A11"/>
<rect width="30.6124" height="11.214" rx="5.60701" transform="matrix(0.72684 -0.686807 0.72684 0.686807 162.781 46.1865)" fill="#FF4A11"/>
<rect width="30.6124" height="11.214" rx="5.60701" transform="matrix(0.72684 0.686807 -0.72684 0.686807 156.636 25.1895)" fill="#FF4A11"/>
<path d="M220.637 47.7676C225.679 47.7676 229.766 43.9054 229.766 39.1411C229.766 34.3769 225.679 30.5146 220.637 30.5146C215.595 30.5146 211.508 34.3769 211.508 39.1411C211.508 43.9054 215.595 47.7676 220.637 47.7676Z" fill="#FF4A11"/>
<rect width="30.6124" height="11.214" rx="5.60701" transform="matrix(0.72684 -0.686807 0.72684 0.686807 16.8486 159.116)" fill="#FF4A11"/>
<rect width="30.6124" height="11.214" rx="5.60701" transform="matrix(0.72684 0.686807 -0.72684 0.686807 10.7041 138.121)" fill="#FF4A11"/>
<rect width="30.6124" height="11.214" rx="5.60701" transform="matrix(0.72684 -0.686807 0.72684 0.686807 66.2861 159.116)" fill="#FF4A11"/>
<rect width="30.6124" height="11.214" rx="5.60701" transform="matrix(0.72684 0.686807 -0.72684 0.686807 60.1416 138.121)" fill="#FF4A11"/>
<path d="M123.391 163.15C130.714 163.15 136.65 157.541 136.65 150.621C136.65 143.701 130.714 138.092 123.391 138.092C116.067 138.092 110.131 143.701 110.131 150.621C110.131 157.541 116.067 163.15 123.391 163.15Z" fill="#FF4A11"/>
<rect width="30.6124" height="11.214" rx="5.60701" transform="matrix(0.72684 -0.686807 0.72684 0.686807 165.269 159.116)" fill="#FF4A11"/>
<rect width="30.6124" height="11.214" rx="5.60701" transform="matrix(0.72684 0.686807 -0.72684 0.686807 159.124 138.121)" fill="#FF4A11"/>
<rect width="30.6124" height="11.214" rx="5.60701" transform="matrix(0.72684 -0.686807 0.72684 0.686807 214.706 159.116)" fill="#FF4A11"/>
<rect width="30.6124" height="11.214" rx="5.60701" transform="matrix(0.72684 0.686807 -0.72684 0.686807 208.562 138.117)" fill="#FF4A11"/>
<rect width="30.6124" height="11.214" rx="5.60701" transform="matrix(0.72684 -0.686807 0.72684 0.686807 117.132 195.218)" fill="#FF4A11"/>
<rect width="30.6124" height="11.214" rx="5.60701" transform="matrix(0.72684 0.686807 -0.72684 0.686807 110.987 174.225)" fill="#FF4A11"/>
<rect width="30.6124" height="11.214" rx="5.60701" transform="matrix(0.72684 -0.686807 0.72684 0.686807 166.569 195.22)" fill="#FF4A11"/>
<rect width="30.6124" height="11.214" rx="5.60701" transform="matrix(0.72684 0.686807 -0.72684 0.686807 160.425 174.223)" fill="#FF4A11"/>
<rect width="30.6124" height="11.214" rx="5.60701" transform="matrix(0.72684 -0.686807 0.72684 0.686807 318.714 249.556)" fill="#FF4A11"/>
<rect width="30.6124" height="11.214" rx="5.60701" transform="matrix(0.72684 0.686807 -0.72684 0.686807 312.569 228.562)" fill="#FF4A11"/>
<rect width="30.6124" height="11.214" rx="5.60701" transform="matrix(0.72684 -0.686807 0.72684 0.686807 368.151 249.556)" fill="#FF4A11"/>
<rect width="30.6124" height="11.214" rx="5.60701" transform="matrix(0.72684 0.686807 -0.72684 0.686807 362.007 228.559)" fill="#FF4A11"/>
<rect width="30.6124" height="11.214" rx="5.60701" transform="matrix(0.72684 -0.686807 0.72684 0.686807 417.538 249.556)" fill="#FF4A11"/>
<rect width="30.6124" height="11.214" rx="5.60701" transform="matrix(0.72684 0.686807 -0.72684 0.686807 411.394 228.562)" fill="#FF4A11"/>
<rect width="30.6124" height="11.214" rx="5.60701" transform="matrix(0.72684 -0.686807 0.72684 0.686807 467.134 249.556)" fill="#FF4A11"/>
<rect width="30.6124" height="11.214" rx="5.60701" transform="matrix(0.72684 0.686807 -0.72684 0.686807 460.989 228.559)" fill="#FF4A11"/>
<path d="M524.809 255.413C532.132 255.413 538.068 249.804 538.068 242.884C538.068 235.964 532.132 230.354 524.809 230.354C517.485 230.354 511.549 235.964 511.549 242.884C511.549 249.804 517.485 255.413 524.809 255.413Z" fill="#FF4A11"/>
<path d="M275.012 217.853C282.335 217.853 288.271 212.243 288.271 205.323C288.271 198.404 282.335 192.794 275.012 192.794C267.689 192.794 261.752 198.404 261.752 205.323C261.752 212.243 267.689 217.853 275.012 217.853Z" fill="#FF4A11"/>
<rect width="30.6124" height="11.214" rx="5.60701" transform="matrix(0.72684 -0.686807 0.72684 0.686807 317.519 212.005)" fill="#FF4A11"/>
<rect width="30.6124" height="11.214" rx="5.60701" transform="matrix(0.72684 0.686807 -0.72684 0.686807 311.374 191.008)" fill="#FF4A11"/>
<rect width="30.6124" height="11.214" rx="5.60701" transform="matrix(0.72684 -0.686807 0.72684 0.686807 366.961 211.995)" fill="#FF4A11"/>
<rect width="30.6124" height="11.214" rx="5.60701" transform="matrix(0.72684 0.686807 -0.72684 0.686807 360.812 191.018)" fill="#FF4A11"/>
<rect width="30.6124" height="11.214" rx="5.60701" transform="matrix(0.72684 0.686807 -0.72684 0.686807 360.816 190.998)" fill="#FF4A11"/>
<path d="M422.701 217.853C430.024 217.853 435.961 212.243 435.961 205.323C435.961 198.404 430.024 192.794 422.701 192.794C415.378 192.794 409.441 198.404 409.441 205.323C409.441 212.243 415.378 217.853 422.701 217.853Z" fill="#FF4A11"/>
<rect width="30.6124" height="11.214" rx="5.60701" transform="matrix(0.72684 -0.686807 0.72684 0.686807 467.499 211.995)" fill="#FF4A11"/>
<rect width="30.6124" height="11.214" rx="5.60701" transform="matrix(0.72684 0.686807 -0.72684 0.686807 461.354 191)" fill="#FF4A11"/>
<rect width="30.6124" height="11.214" rx="5.60701" transform="matrix(0.72684 -0.686807 0.72684 0.686807 516.937 211.995)" fill="#FF4A11"/>
<rect width="30.6124" height="11.214" rx="5.60701" transform="matrix(0.72684 0.686807 -0.72684 0.686807 510.792 190.997)" fill="#FF4A11"/>
<rect width="30.6124" height="11.214" rx="5.60701" transform="matrix(0.72684 -0.686807 0.72684 0.686807 267.296 174.187)" fill="#FF4A11"/>
<rect width="30.6124" height="11.214" rx="5.60701" transform="matrix(0.72684 0.686807 -0.72684 0.686807 261.151 153.189)" fill="#FF4A11"/>
<rect width="30.6124" height="11.214" rx="5.60701" transform="matrix(0.72684 -0.686807 0.72684 0.686807 316.9 174.263)" fill="#FF4A11"/>
<rect width="30.6124" height="11.214" rx="5.60701" transform="matrix(0.72684 -0.686807 0.72684 0.686807 316.733 174.139)" fill="#FF4A11"/>
<rect width="30.6124" height="11.214" rx="5.60701" transform="matrix(0.72684 0.686807 -0.72684 0.686807 310.589 153.142)" fill="#FF4A11"/>
<rect width="30.6124" height="11.214" rx="5.60701" transform="matrix(0.72684 -0.686807 0.72684 0.686807 366.342 174.305)" fill="#FF4A11"/>
<rect width="30.6124" height="11.214" rx="5.60701" transform="matrix(0.72684 0.686807 -0.72684 0.686807 360.197 153.307)" fill="#FF4A11"/>
<rect width="30.6124" height="11.214" rx="5.60701" transform="matrix(0.72684 0.686807 -0.72684 0.686807 360.192 153.045)" fill="#FF4A11"/>
<rect width="30.6124" height="11.214" rx="5.60701" transform="matrix(0.72684 -0.686807 0.72684 0.686807 415.781 174.187)" fill="#FF4A11"/>
<rect width="30.6124" height="11.214" rx="5.60701" transform="matrix(0.72684 0.686807 -0.72684 0.686807 409.636 153.189)" fill="#FF4A11"/>
<path d="M473.635 175.769C478.677 175.769 482.764 171.906 482.764 167.142C482.764 162.378 478.677 158.516 473.635 158.516C468.593 158.516 464.506 162.378 464.506 167.142C464.506 171.906 468.593 175.769 473.635 175.769Z" fill="#FF4A11"/>
<rect width="30.6124" height="11.214" rx="5.60701" transform="matrix(0.72684 -0.686807 0.72684 0.686807 269.849 287.116)" fill="#FF4A11"/>
<rect width="30.6124" height="11.214" rx="5.60701" transform="matrix(0.72684 0.686807 -0.72684 0.686807 263.704 266.121)" fill="#FF4A11"/>
<rect width="30.6124" height="11.214" rx="5.60701" transform="matrix(0.72684 -0.686807 0.72684 0.686807 319.286 287.116)" fill="#FF4A11"/>
<rect width="30.6124" height="11.214" rx="5.60701" transform="matrix(0.72684 0.686807 -0.72684 0.686807 313.142 266.121)" fill="#FF4A11"/>
<rect width="30.6124" height="11.214" rx="5.60701" transform="matrix(0.72684 -0.686807 0.72684 0.686807 320.007 136.509)" fill="#FF4A11"/>
<rect width="30.6124" height="11.214" rx="5.60701" transform="matrix(0.72684 0.686807 -0.72684 0.686807 313.862 115.513)" fill="#FF4A11"/>
<path d="M375.337 140.543C382.66 140.543 388.597 134.934 388.597 128.014C388.597 121.094 382.66 115.484 375.337 115.484C368.014 115.484 362.077 121.094 362.077 128.014C362.077 134.934 368.014 140.543 375.337 140.543Z" fill="#FF4A11"/>
<rect width="30.6124" height="11.214" rx="5.60701" transform="matrix(0.72684 -0.686807 0.72684 0.686807 414.562 136.509)" fill="#FF4A11"/>
<rect width="30.6124" height="11.214" rx="5.60701" transform="matrix(0.72684 0.686807 -0.72684 0.686807 408.417 115.513)" fill="#FF4A11"/>
<path d="M1158.45 209.188C1163.49 209.188 1167.58 205.325 1167.58 200.561C1167.58 195.797 1163.49 191.935 1158.45 191.935C1153.4 191.935 1149.32 195.797 1149.32 200.561C1149.32 205.325 1153.4 209.188 1158.45 209.188Z" fill="#FF4A11"/>
<rect width="30.6124" height="11.214" rx="5.60701" transform="matrix(0.72684 -0.686807 0.72684 0.686807 1199.71 134.556)" fill="#FF4A11"/>
<rect width="30.6124" height="11.214" rx="5.60701" transform="matrix(0.72684 0.686807 -0.72684 0.686807 1193.57 113.562)" fill="#FF4A11"/>
<rect width="30.6124" height="11.214" rx="5.60701" transform="matrix(0.72684 -0.686807 0.72684 0.686807 1249.15 134.556)" fill="#FF4A11"/>
<rect width="30.6124" height="11.214" rx="5.60701" transform="matrix(0.72684 0.686807 -0.72684 0.686807 1243.01 113.559)" fill="#FF4A11"/>
<rect width="30.6124" height="11.214" rx="5.60701" transform="matrix(0.72684 -0.686807 0.72684 0.686807 1298.54 134.556)" fill="#FF4A11"/>
<rect width="30.6124" height="11.214" rx="5.60701" transform="matrix(0.72684 0.686807 -0.72684 0.686807 1292.39 113.562)" fill="#FF4A11"/>
<rect width="30.6124" height="11.214" rx="5.60701" transform="matrix(0.72684 -0.686807 0.72684 0.686807 1348.13 134.556)" fill="#FF4A11"/>
<rect width="30.6124" height="11.214" rx="5.60701" transform="matrix(0.72684 0.686807 -0.72684 0.686807 1341.99 113.559)" fill="#FF4A11"/>
<path d="M1405.81 140.413C1413.13 140.413 1419.07 134.804 1419.07 127.884C1419.07 120.964 1413.13 115.354 1405.81 115.354C1398.49 115.354 1392.55 120.964 1392.55 127.884C1392.55 134.804 1398.49 140.413 1405.81 140.413Z" fill="#FF4A11"/>
<path d="M1156.01 102.853C1163.33 102.853 1169.27 97.2431 1169.27 90.3233C1169.27 83.4035 1163.33 77.7939 1156.01 77.7939C1148.69 77.7939 1142.75 83.4035 1142.75 90.3233C1142.75 97.2431 1148.69 102.853 1156.01 102.853Z" fill="#FF4A11"/>
<rect width="30.6124" height="11.214" rx="5.60701" transform="matrix(0.72684 -0.686807 0.72684 0.686807 1198.52 97.0049)" fill="#FF4A11"/>
<rect width="30.6124" height="11.214" rx="5.60701" transform="matrix(0.72684 0.686807 -0.72684 0.686807 1192.37 76.0078)" fill="#FF4A11"/>
<rect width="30.6124" height="11.214" rx="5.60701" transform="matrix(0.72684 -0.686807 0.72684 0.686807 1247.96 96.9951)" fill="#FF4A11"/>
<rect width="30.6124" height="11.214" rx="5.60701" transform="matrix(0.72684 0.686807 -0.72684 0.686807 1241.81 76.0176)" fill="#FF4A11"/>
<rect width="30.6124" height="11.214" rx="5.60701" transform="matrix(0.72684 0.686807 -0.72684 0.686807 1241.82 75.998)" fill="#FF4A11"/>
<path d="M1303.7 102.853C1311.02 102.853 1316.96 97.2431 1316.96 90.3233C1316.96 83.4035 1311.02 77.7939 1303.7 77.7939C1296.38 77.7939 1290.44 83.4035 1290.44 90.3233C1290.44 97.2431 1296.38 102.853 1303.7 102.853Z" fill="#FF4A11"/>
<rect width="30.6124" height="11.214" rx="5.60701" transform="matrix(0.72684 -0.686807 0.72684 0.686807 1348.5 96.9951)" fill="#FF4A11"/>
<rect width="30.6124" height="11.214" rx="5.60701" transform="matrix(0.72684 0.686807 -0.72684 0.686807 1342.35 76)" fill="#FF4A11"/>
<rect width="30.6124" height="11.214" rx="5.60701" transform="matrix(0.72684 -0.686807 0.72684 0.686807 1397.94 96.9951)" fill="#FF4A11"/>
<rect width="30.6124" height="11.214" rx="5.60701" transform="matrix(0.72684 0.686807 -0.72684 0.686807 1391.79 75.9971)" fill="#FF4A11"/>
<rect width="30.6124" height="11.214" rx="5.60701" transform="matrix(0.72684 -0.686807 0.72684 0.686807 1148.3 59.1865)" fill="#FF4A11"/>
<rect width="30.6124" height="11.214" rx="5.60701" transform="matrix(0.72684 0.686807 -0.72684 0.686807 1142.15 38.1895)" fill="#FF4A11"/>
<rect width="30.6124" height="11.214" rx="5.60701" transform="matrix(0.72684 -0.686807 0.72684 0.686807 1197.9 59.2627)" fill="#FF4A11"/>
<rect width="30.6124" height="11.214" rx="5.60701" transform="matrix(0.72684 -0.686807 0.72684 0.686807 1197.73 59.1387)" fill="#FF4A11"/>
<rect width="30.6124" height="11.214" rx="5.60701" transform="matrix(0.72684 0.686807 -0.72684 0.686807 1191.59 38.1416)" fill="#FF4A11"/>
<rect width="30.6124" height="11.214" rx="5.60701" transform="matrix(0.72684 -0.686807 0.72684 0.686807 1247.34 59.3047)" fill="#FF4A11"/>
<rect width="30.6124" height="11.214" rx="5.60701" transform="matrix(0.72684 0.686807 -0.72684 0.686807 1241.2 38.3066)" fill="#FF4A11"/>
<rect width="30.6124" height="11.214" rx="5.60701" transform="matrix(0.72684 0.686807 -0.72684 0.686807 1241.19 38.0449)" fill="#FF4A11"/>
<rect width="30.6124" height="11.214" rx="5.60701" transform="matrix(0.72684 -0.686807 0.72684 0.686807 1296.78 59.1865)" fill="#FF4A11"/>
<rect width="30.6124" height="11.214" rx="5.60701" transform="matrix(0.72684 0.686807 -0.72684 0.686807 1290.64 38.1895)" fill="#FF4A11"/>
<path d="M1354.64 60.7686C1359.68 60.7686 1363.76 56.9064 1363.76 52.1421C1363.76 47.3778 1359.68 43.5156 1354.64 43.5156C1349.59 43.5156 1345.51 47.3778 1345.51 52.1421C1345.51 56.9064 1349.59 60.7686 1354.64 60.7686Z" fill="#FF4A11"/>
<rect width="30.6124" height="11.214" rx="5.60701" transform="matrix(0.72684 -0.686807 0.72684 0.686807 1150.85 172.116)" fill="#FF4A11"/>
<rect width="30.6124" height="11.214" rx="5.60701" transform="matrix(0.72684 0.686807 -0.72684 0.686807 1144.7 151.121)" fill="#FF4A11"/>
<rect width="30.6124" height="11.214" rx="5.60701" transform="matrix(0.72684 -0.686807 0.72684 0.686807 1200.29 172.116)" fill="#FF4A11"/>
<rect width="30.6124" height="11.214" rx="5.60701" transform="matrix(0.72684 0.686807 -0.72684 0.686807 1194.14 151.121)" fill="#FF4A11"/>
<path d="M1257.39 176.15C1264.71 176.15 1270.65 170.541 1270.65 163.621C1270.65 156.701 1264.71 151.092 1257.39 151.092C1250.07 151.092 1244.13 156.701 1244.13 163.621C1244.13 170.541 1250.07 176.15 1257.39 176.15Z" fill="#FF4A11"/>
<rect width="30.6124" height="11.214" rx="5.60701" transform="matrix(0.72684 -0.686807 0.72684 0.686807 1299.27 172.116)" fill="#FF4A11"/>
<rect width="30.6124" height="11.214" rx="5.60701" transform="matrix(0.72684 0.686807 -0.72684 0.686807 1293.12 151.121)" fill="#FF4A11"/>
<rect width="30.6124" height="11.214" rx="5.60701" transform="matrix(0.72684 -0.686807 0.72684 0.686807 1348.71 172.116)" fill="#FF4A11"/>
<rect width="30.6124" height="11.214" rx="5.60701" transform="matrix(0.72684 0.686807 -0.72684 0.686807 1342.56 151.117)" fill="#FF4A11"/>
<rect width="30.6124" height="11.214" rx="5.60701" transform="matrix(0.72684 -0.686807 0.72684 0.686807 1251.13 208.219)" fill="#FF4A11"/>
<rect width="30.6124" height="11.214" rx="5.60701" transform="matrix(0.72684 0.686807 -0.72684 0.686807 1244.99 187.226)" fill="#FF4A11"/>
<rect width="30.6124" height="11.214" rx="5.60701" transform="matrix(0.72684 -0.686807 0.72684 0.686807 1300.57 208.221)" fill="#FF4A11"/>
<rect width="30.6124" height="11.214" rx="5.60701" transform="matrix(0.72684 0.686807 -0.72684 0.686807 1294.42 187.224)" fill="#FF4A11"/>
<path d="M902.012 255.853C909.335 255.853 915.271 250.243 915.271 243.323C915.271 236.404 909.335 230.794 902.012 230.794C894.689 230.794 888.752 236.404 888.752 243.323C888.752 250.243 894.689 255.853 902.012 255.853Z" fill="#FF4A11"/>
<rect width="30.6124" height="11.214" rx="5.60701" transform="matrix(0.72684 -0.686807 0.72684 0.686807 944.519 250.005)" fill="#FF4A11"/>
<rect width="30.6124" height="11.214" rx="5.60701" transform="matrix(0.72684 0.686807 -0.72684 0.686807 938.374 229.008)" fill="#FF4A11"/>
<rect width="30.6124" height="11.214" rx="5.60701" transform="matrix(0.72684 -0.686807 0.72684 0.686807 993.961 249.995)" fill="#FF4A11"/>
<rect width="30.6124" height="11.214" rx="5.60701" transform="matrix(0.72684 0.686807 -0.72684 0.686807 987.812 229.018)" fill="#FF4A11"/>
<rect width="30.6124" height="11.214" rx="5.60701" transform="matrix(0.72684 0.686807 -0.72684 0.686807 987.816 228.998)" fill="#FF4A11"/>
<path d="M1049.7 255.853C1057.02 255.853 1062.96 250.243 1062.96 243.323C1062.96 236.404 1057.02 230.794 1049.7 230.794C1042.38 230.794 1036.44 236.404 1036.44 243.323C1036.44 250.243 1042.38 255.853 1049.7 255.853Z" fill="#FF4A11"/>
<rect width="30.6124" height="11.214" rx="5.60701" transform="matrix(0.72684 -0.686807 0.72684 0.686807 1094.5 249.995)" fill="#FF4A11"/>
<rect width="30.6124" height="11.214" rx="5.60701" transform="matrix(0.72684 0.686807 -0.72684 0.686807 1088.35 229)" fill="#FF4A11"/>
<rect width="30.6124" height="11.214" rx="5.60701" transform="matrix(0.72684 -0.686807 0.72684 0.686807 1143.94 249.995)" fill="#FF4A11"/>
<rect width="30.6124" height="11.214" rx="5.60701" transform="matrix(0.72684 0.686807 -0.72684 0.686807 1137.79 228.997)" fill="#FF4A11"/>
<rect width="30.6124" height="11.214" rx="5.60701" transform="matrix(0.72684 -0.686807 0.72684 0.686807 894.296 212.187)" fill="#FF4A11"/>
<rect width="30.6124" height="11.214" rx="5.60701" transform="matrix(0.72684 0.686807 -0.72684 0.686807 888.151 191.189)" fill="#FF4A11"/>
<rect width="30.6124" height="11.214" rx="5.60701" transform="matrix(0.72684 -0.686807 0.72684 0.686807 943.9 212.263)" fill="#FF4A11"/>
<rect width="30.6124" height="11.214" rx="5.60701" transform="matrix(0.72684 -0.686807 0.72684 0.686807 943.733 212.139)" fill="#FF4A11"/>
<rect width="30.6124" height="11.214" rx="5.60701" transform="matrix(0.72684 0.686807 -0.72684 0.686807 937.589 191.142)" fill="#FF4A11"/>
<rect width="30.6124" height="11.214" rx="5.60701" transform="matrix(0.72684 -0.686807 0.72684 0.686807 993.342 212.305)" fill="#FF4A11"/>
<rect width="30.6124" height="11.214" rx="5.60701" transform="matrix(0.72684 0.686807 -0.72684 0.686807 987.197 191.307)" fill="#FF4A11"/>
<rect width="30.6124" height="11.214" rx="5.60701" transform="matrix(0.72684 0.686807 -0.72684 0.686807 987.192 191.045)" fill="#FF4A11"/>
<rect width="30.6124" height="11.214" rx="5.60701" transform="matrix(0.72684 -0.686807 0.72684 0.686807 1042.78 212.187)" fill="#FF4A11"/>
<rect width="30.6124" height="11.214" rx="5.60701" transform="matrix(0.72684 0.686807 -0.72684 0.686807 1036.64 191.189)" fill="#FF4A11"/>
<path d="M1100.64 213.769C1105.68 213.769 1109.76 209.906 1109.76 205.142C1109.76 200.378 1105.68 196.516 1100.64 196.516C1095.59 196.516 1091.51 200.378 1091.51 205.142C1091.51 209.906 1095.59 213.769 1100.64 213.769Z" fill="#FF4A11"/>
<rect width="30.6124" height="11.214" rx="5.60701" transform="matrix(0.72684 -0.686807 0.72684 0.686807 947.007 174.509)" fill="#FF4A11"/>
<rect width="30.6124" height="11.214" rx="5.60701" transform="matrix(0.72684 0.686807 -0.72684 0.686807 940.862 153.513)" fill="#FF4A11"/>
<path d="M1002.34 178.543C1009.66 178.543 1015.6 172.934 1015.6 166.014C1015.6 159.094 1009.66 153.484 1002.34 153.484C995.014 153.484 989.077 159.094 989.077 166.014C989.077 172.934 995.014 178.543 1002.34 178.543Z" fill="#FF4A11"/>
<rect width="30.6124" height="11.214" rx="5.60701" transform="matrix(0.72684 -0.686807 0.72684 0.686807 1041.56 174.509)" fill="#FF4A11"/>
<rect width="30.6124" height="11.214" rx="5.60701" transform="matrix(0.72684 0.686807 -0.72684 0.686807 1035.42 153.513)" fill="#FF4A11"/>
</g>
<defs>
<clipPath id="clip0_242_8416">
<rect width="1428.34" height="332.363" fill="white" transform="translate(0 0.484375)"/>
</clipPath>
</defs>
</svg>
