<svg width="1444" height="301" viewBox="0 0 1444 301" fill="none" xmlns="http://www.w3.org/2000/svg">
<g clip-path="url(#clip0_327_9289)">
<path d="M1244.02 197.712C1241.04 197.103 1237.57 195.382 1233.69 192.722C1226.16 187.564 1217.11 178.875 1207.26 167.911C1195.44 154.754 1182.46 138.322 1169.55 120.79C1154.58 100.463 1139.72 78.6558 1126.89 58.7571C1119.79 47.7585 1113.32 37.3429 1107.79 28.0823C1100.98 16.6798 1095.6 7.02853 1092.26 0.196247C1049.24 95.8059 865.812 182.119 557.543 129.113C249.274 76.1072 237.353 124.545 113.858 129.113L141.744 149.945L169.232 170.479L205.686 197.712L262.431 240.102L290.803 261.297L319.176 282.493C335.462 233.817 416.343 151.839 609.573 213.335C802.803 274.831 1113.05 228.543 1244.02 197.712Z" fill="#FA7AB1"/>
<path d="M141.744 149.945L89.1585 197.712L169.232 170.479L141.744 149.945Z" fill="#FA7AB1"/>
<path d="M169.232 170.479L141.744 213.335L205.686 197.712L169.232 170.479Z" fill="#FA7AB1"/>
<path d="M205.686 197.712L205.686 250.375L262.431 240.102L205.686 197.712Z" fill="#FA7AB1"/>
<path d="M262.431 240.102L249.703 293.399L290.803 261.297L262.431 240.102Z" fill="#FA7AB1"/>
<path d="M1261.57 145.204L1207.26 167.911C1217.11 178.875 1226.16 187.564 1233.69 192.722L1261.57 145.204Z" fill="#FA7AB1"/>
<path d="M1225.32 95.8058L1169.55 120.79C1182.46 138.322 1195.44 154.754 1207.26 167.911L1225.32 95.8058Z" fill="#FA7AB1"/>
<path d="M1126.89 58.7571C1139.72 78.6558 1154.58 100.463 1169.55 120.79L1197.43 58.7571L1126.89 58.7571Z" fill="#FA7AB1"/>
<path d="M1169.55 28.0823L1107.79 28.0823C1113.32 37.3429 1119.79 47.7585 1126.89 58.7571L1169.55 28.0823Z" fill="#FA7AB1"/>
</g>
<defs>
<clipPath id="clip0_327_9289">
<rect width="1444" height="301" rx="11.4122" fill="white"/>
</clipPath>
</defs>
</svg>
