<svg width="1416" height="319" viewBox="0 0 1416 319" fill="none" xmlns="http://www.w3.org/2000/svg">
<g clip-path="url(#clip0_181_6030)">
<rect width="1416" height="319" rx="15" fill="#7E36DA"/>
<path d="M38.16 95V30.68H86.064V95H77.136V39.032H47.088V95H38.16ZM121.003 96.056C108.235 96.056 98.0588 85.784 98.0588 72.92C98.0588 60.152 108.235 49.784 121.003 49.784C133.675 49.784 143.851 60.056 143.851 72.92C143.851 85.688 133.675 96.056 121.003 96.056ZM121.003 88.28C129.355 88.28 135.307 81.848 135.307 72.92C135.307 63.992 129.355 57.56 121.003 57.56C112.651 57.56 106.603 63.992 106.603 72.92C106.603 81.848 112.651 88.28 121.003 88.28ZM174.44 96.056C161.576 96.056 151.496 85.976 151.496 73.016C151.496 60.152 161.672 49.784 174.44 49.784C181.832 49.784 188.552 53.24 192.872 58.904L187.016 64.088C183.848 59.864 179.432 57.56 174.44 57.56C166.088 57.56 160.04 64.088 160.04 72.824C160.04 81.752 166.184 88.28 174.728 88.28C179.912 88.28 184.328 85.976 187.592 81.752L193.16 86.744C188.936 92.408 182.12 96.056 174.44 96.056ZM221.036 96.056C207.5 96.056 197.996 86.264 197.996 72.92C197.996 59.672 207.308 49.784 220.172 49.784C232.268 49.784 241.388 58.616 241.388 71.384C241.388 72.728 241.292 73.88 241.1 75.32H206.636C207.596 83.288 213.164 88.28 221.516 88.28C226.988 88.28 231.596 86.168 235.148 81.848L240.332 86.744C235.724 92.792 228.716 96.056 221.036 96.056ZM206.828 68.504H232.748C231.596 61.208 226.796 57.176 219.884 57.176C212.876 57.176 208.076 61.496 206.828 68.504ZM260.61 95V58.328H247.17V50.84H282.402V58.328H268.866V95H260.61ZM290.584 95.96V50.84H298.84V79.352L325.432 49.88H328.408V95H320.152V66.488L293.656 95.96H290.584ZM362.021 95V50.84H370.277V68.984H391.109V50.84H399.365V95H391.109V76.472H370.277V95H362.021ZM424.379 96.056C415.355 96.056 408.923 90.296 408.923 82.232C408.923 73.88 416.219 67.736 426.107 67.736C430.715 67.736 434.651 68.792 438.491 70.904V68.696C438.491 61.88 434.075 57.272 427.643 57.272C423.419 57.272 419.963 59.096 417.275 62.744L411.707 57.272C416.123 52.28 421.787 49.784 428.123 49.784C439.067 49.784 446.747 57.56 446.747 68.312V95H438.491V89.144C434.843 93.752 429.947 96.056 424.379 96.056ZM426.107 89.048C432.923 89.048 437.915 84.632 438.395 78.104C434.459 75.416 431.003 74.264 426.587 74.264C420.827 74.264 417.179 77.24 417.179 81.752C417.179 86.264 420.635 89.048 426.107 89.048ZM458.771 95V50.84H467.027V87.512H484.499V50.84H492.755V87.512H510.131V50.84H518.387V95H458.771ZM36.24 167V121.88H39.216L59.568 146.84L79.824 121.88H82.8V167H74.544V140.504L60.816 157.304H58.224L44.496 140.504V167H36.24ZM107.879 168.056C98.8545 168.056 92.4225 162.296 92.4225 154.232C92.4225 145.88 99.7185 139.736 109.607 139.736C114.215 139.736 118.151 140.792 121.991 142.904V140.696C121.991 133.88 117.575 129.272 111.143 129.272C106.919 129.272 103.463 131.096 100.775 134.744L95.2065 129.272C99.6225 124.28 105.287 121.784 111.623 121.784C122.567 121.784 130.247 129.56 130.247 140.312V167H121.991V161.144C118.343 165.752 113.447 168.056 107.879 168.056ZM109.607 161.048C116.423 161.048 121.415 156.632 121.895 150.104C117.959 147.416 114.503 146.264 110.087 146.264C104.327 146.264 100.679 149.24 100.679 153.752C100.679 158.264 104.135 161.048 109.607 161.048ZM142.271 167V122.84H169.439V130.328H150.527V167H142.271ZM190.191 168.056C181.167 168.056 174.735 162.296 174.735 154.232C174.735 145.88 182.031 139.736 191.919 139.736C196.527 139.736 200.463 140.792 204.303 142.904V140.696C204.303 133.88 199.887 129.272 193.455 129.272C189.231 129.272 185.775 131.096 183.087 134.744L177.519 129.272C181.935 124.28 187.599 121.784 193.935 121.784C204.879 121.784 212.559 129.56 212.559 140.312V167H204.303V161.144C200.655 165.752 195.759 168.056 190.191 168.056ZM191.919 161.048C198.735 161.048 203.727 156.632 204.207 150.104C200.271 147.416 196.815 146.264 192.399 146.264C186.639 146.264 182.991 149.24 182.991 153.752C182.991 158.264 186.447 161.048 191.919 161.048ZM239.464 168.056C231.88 168.056 225.064 164.888 220.744 159.32L226.312 153.944C229.96 158.648 234.088 160.568 239.272 160.568C244.936 160.568 248.872 158.264 248.872 154.136C248.872 150.392 245.032 148.28 238.408 148.28H233.224V140.792H238.024C243.592 140.792 247.048 138.392 247.048 134.84C247.048 131.384 243.88 129.272 239.08 129.272C234.856 129.272 231.304 130.808 228.232 134.36L223.048 129.08C227.272 124.568 233.32 121.784 239.848 121.784C248.68 121.784 255.304 126.968 255.304 134.456C255.304 138.488 253.384 141.56 250.12 143.864C254.44 145.688 257.128 149.72 257.128 154.52C257.128 162.392 249.832 168.056 239.464 168.056ZM267.709 167.96V122.84H275.965V151.352L302.557 121.88H305.533V167H297.277V138.488L270.781 167.96H267.709ZM318.053 167V122.84H326.309V140.984H347.141V122.84H355.397V167H347.141V148.472H326.309V167H318.053ZM387.68 167.576C386.528 167.576 385.376 167.48 384.608 167.288V158.936C385.28 159.128 386.24 159.32 387.104 159.32C390.56 159.32 392.192 156.824 392.192 151.256V122.84H425.024V167H416.768V130.328H400.448V151.16C400.448 162.104 396.128 167.576 387.68 167.576ZM437.49 167.96V122.84H445.746V151.352L472.338 121.88H475.314V167H467.058V138.488L440.562 167.96H437.49ZM512.506 167V153.272C508.474 154.328 505.786 154.616 502.618 154.616C492.73 154.616 486.394 148.472 486.394 139.16V122.84H494.65V139.064C494.65 143.96 498.01 147.128 503.866 147.128C506.17 147.128 509.146 146.648 512.506 145.88V122.84H520.762V167H512.506ZM533.209 167V122.84H541.465V140.984H562.297V122.84H570.553V167H562.297V148.472H541.465V167H533.209ZM603.534 168.056C590.766 168.056 580.59 157.784 580.59 144.92C580.59 132.152 590.766 121.784 603.534 121.784C616.206 121.784 626.382 132.056 626.382 144.92C626.382 157.688 616.206 168.056 603.534 168.056ZM603.534 160.28C611.886 160.28 617.838 153.848 617.838 144.92C617.838 135.992 611.886 129.56 603.534 129.56C595.182 129.56 589.134 135.992 589.134 144.92C589.134 153.848 595.182 160.28 603.534 160.28Z" fill="white"/>
<path d="M813.5 124.348L813.401 121.85L813.5 124.348ZM1234.87 139.341C1236.21 139.686 1237.58 138.883 1237.92 137.546L1243.55 115.76C1243.89 114.423 1243.09 113.06 1241.75 112.715C1240.41 112.369 1239.05 113.173 1238.71 114.51L1233.7 133.875L1214.34 128.874C1213 128.529 1211.64 129.333 1211.29 130.67C1210.95 132.007 1211.75 133.37 1213.09 133.715L1234.87 139.341ZM480.185 320.135C514.224 258.878 628.707 134.171 813.599 126.846L813.401 121.85C626.293 129.263 510.443 255.389 475.815 317.706L480.185 320.135ZM813.599 126.846C871.466 124.554 911.852 133.637 937.674 148.272C963.423 162.867 974.625 182.91 974.625 202.926C974.625 243.135 929.027 285.911 856.5 285.911V290.911C930.473 290.911 979.625 247.05 979.625 202.926C979.625 180.774 967.14 159.226 940.139 143.922C913.21 128.659 871.784 119.537 813.401 121.85L813.599 126.846ZM856.5 285.911C784.451 285.911 728.082 237.051 702.072 182.139C689.075 154.7 683.771 125.965 687.757 101.325C691.729 76.7707 704.909 56.2694 729.067 44.8656L726.933 40.3441C701.091 52.5423 687.021 74.5676 682.821 100.527C678.635 126.401 684.238 156.168 697.553 184.279C724.168 240.47 782.049 290.911 856.5 290.911V285.911ZM729.067 44.8656C753.578 33.2955 793.644 26.9872 841.183 25.7337C888.631 24.4826 943.213 28.2721 996.548 36.6829C1049.89 45.0949 1101.9 58.1152 1144.22 75.2835C1186.67 92.4994 1218.91 113.701 1233.35 138.19L1237.65 135.651C1222.34 109.676 1188.77 87.9561 1146.1 70.6502C1103.32 53.2967 1050.92 40.1953 997.327 31.7439C943.725 23.2911 888.837 19.4754 841.051 20.7354C793.356 21.993 752.422 28.3122 726.933 40.3441L729.067 44.8656Z" fill="#3CB7E5"/>
<path d="M33.06 215V190.88H39.288C44.256 190.88 47.784 194.012 47.784 198.404C47.784 202.796 44.256 205.964 39.36 205.964H36.408V215H33.06ZM36.408 202.832H39.288C42.384 202.832 44.436 201.14 44.436 198.404C44.436 195.74 42.384 194.012 39.288 194.012H36.408V202.832ZM55.0208 215.396C51.6368 215.396 49.2248 213.236 49.2248 210.212C49.2248 207.08 51.9608 204.776 55.6688 204.776C57.3968 204.776 58.8728 205.172 60.3128 205.964V205.136C60.3128 202.58 58.6568 200.852 56.2448 200.852C54.6608 200.852 53.3648 201.536 52.3568 202.904L50.2688 200.852C51.9248 198.98 54.0488 198.044 56.4248 198.044C60.5288 198.044 63.4088 200.96 63.4088 204.992V215H60.3128V212.804C58.9448 214.532 57.1088 215.396 55.0208 215.396ZM55.6688 212.768C58.2248 212.768 60.0968 211.112 60.2768 208.664C58.8008 207.656 57.5048 207.224 55.8488 207.224C53.6888 207.224 52.3208 208.34 52.3208 210.032C52.3208 211.724 53.6168 212.768 55.6688 212.768ZM66.2981 219.68V212.192C68.0621 212.192 69.1421 210.428 69.1421 204.956V198.44H81.3101V212.192H83.5421V219.68H80.4461V215H69.3941V219.68H66.2981ZM70.7981 212.192H78.2141V201.248H72.2381V205.028C72.2381 208.7 71.8061 210.752 70.7981 212.192ZM86.797 215V198.44H89.893V204.056H92.629C96.337 204.056 98.821 206.324 98.821 209.528C98.821 212.696 96.409 215 92.701 215H86.797ZM89.893 212.192H92.629C94.465 212.192 95.725 211.184 95.725 209.528C95.725 207.872 94.465 206.864 92.629 206.864H89.893V212.192ZM101.161 215V198.44H104.257V215H101.161ZM116.388 215.216C115.956 215.216 115.524 215.18 115.236 215.108V211.976C115.488 212.048 115.848 212.12 116.172 212.12C117.468 212.12 118.08 211.184 118.08 209.096V198.44H130.392V215H127.296V201.248H121.176V209.06C121.176 213.164 119.556 215.216 116.388 215.216ZM148.783 215.396C144.571 215.396 141.115 212.228 140.503 208.052H138.163V215H135.067V198.44H138.163V205.244H140.503C141.151 201.176 144.643 198.044 148.783 198.044C153.427 198.044 157.171 201.896 157.171 206.72C157.171 211.508 153.427 215.396 148.783 215.396ZM148.783 212.48C151.771 212.48 153.895 210.068 153.895 206.684C153.895 203.372 151.771 200.96 148.783 200.96C145.759 200.96 143.563 203.372 143.563 206.684C143.563 210.068 145.759 212.48 148.783 212.48ZM168.718 215.396C163.714 215.396 160.402 211.436 160.402 205.388V203.264C160.402 195.488 162.958 191.672 168.718 191.096C172.066 190.736 173.254 190.196 174.262 189.188L175.81 191.528C174.73 192.932 173.434 193.652 169.51 194.012C165.334 194.444 163.642 196.712 163.534 202.076C164.794 200.096 166.954 198.872 169.474 198.872C173.83 198.872 177.214 202.436 177.214 207.008C177.214 211.76 173.542 215.396 168.718 215.396ZM168.898 212.48C171.85 212.48 174.01 210.212 174.01 207.116C174.01 204.02 171.85 201.788 168.898 201.788C165.91 201.788 163.606 204.02 163.606 207.116C163.606 210.248 165.91 212.48 168.898 212.48ZM188.685 215.396C183.897 215.396 180.081 211.544 180.081 206.72C180.081 201.932 183.897 198.044 188.685 198.044C193.437 198.044 197.253 201.896 197.253 206.72C197.253 211.508 193.437 215.396 188.685 215.396ZM188.685 212.48C191.817 212.48 194.049 210.068 194.049 206.72C194.049 203.372 191.817 200.96 188.685 200.96C185.553 200.96 183.285 203.372 183.285 206.72C183.285 210.068 185.553 212.48 188.685 212.48ZM201.02 215V198.08H202.136L209.768 207.44L217.364 198.08H218.48V215H215.384V205.064L210.236 211.364H209.264L204.116 205.064V215H201.02ZM224.284 224L227.452 215.504L221.368 198.44H224.716L229.144 211.04L233.824 198.44H236.992L227.452 224H224.284ZM246.158 219.68V212.192C247.922 212.192 249.002 210.428 249.002 204.956V198.44H261.17V212.192H263.402V219.68H260.306V215H249.254V219.68H246.158ZM250.658 212.192H258.074V201.248H252.098V205.028C252.098 208.7 251.666 210.752 250.658 212.192ZM274.36 215.396C269.572 215.396 265.756 211.544 265.756 206.72C265.756 201.932 269.572 198.044 274.36 198.044C279.112 198.044 282.928 201.896 282.928 206.72C282.928 211.508 279.112 215.396 274.36 215.396ZM274.36 212.48C277.492 212.48 279.724 210.068 279.724 206.72C279.724 203.372 277.492 200.96 274.36 200.96C271.228 200.96 268.96 203.372 268.96 206.72C268.96 210.068 271.228 212.48 274.36 212.48ZM286.695 215V198.08H287.811L295.443 207.44L303.039 198.08H304.155V215H301.059V205.064L295.911 211.364H294.939L289.791 205.064V215H286.695ZM316.548 215.396C311.76 215.396 307.944 211.544 307.944 206.72C307.944 201.932 311.76 198.044 316.548 198.044C321.3 198.044 325.116 201.896 325.116 206.72C325.116 211.508 321.3 215.396 316.548 215.396ZM316.548 212.48C319.68 212.48 321.912 210.068 321.912 206.72C321.912 203.372 319.68 200.96 316.548 200.96C313.416 200.96 311.148 203.372 311.148 206.72C311.148 210.068 313.416 212.48 316.548 212.48ZM328.883 215V198.44H335.219C338.639 198.44 341.051 200.312 341.051 202.976C341.051 204.416 340.367 205.568 339.143 206.36C340.799 207.116 341.771 208.52 341.771 210.284C341.771 213.02 339.323 215 335.903 215H328.883ZM331.979 212.372H335.831C337.559 212.372 338.675 211.472 338.675 210.068C338.675 208.736 337.559 207.872 335.831 207.872H331.979V212.372ZM331.979 205.244H335.183C336.839 205.244 337.955 204.416 337.955 203.12C337.955 201.86 336.839 201.068 335.183 201.068H331.979V205.244ZM353.427 215.396C348.639 215.396 344.823 211.544 344.823 206.72C344.823 201.932 348.639 198.044 353.427 198.044C358.179 198.044 361.995 201.896 361.995 206.72C361.995 211.508 358.179 215.396 353.427 215.396ZM353.427 212.48C356.559 212.48 358.791 210.068 358.791 206.72C358.791 203.372 356.559 200.96 353.427 200.96C350.295 200.96 348.027 203.372 348.027 206.72C348.027 210.068 350.295 212.48 353.427 212.48ZM365.762 215V198.08H366.878L374.51 207.44L382.106 198.08H383.222V215H380.126V205.064L374.978 211.364H374.006L368.858 205.064V215H365.762ZM389.026 224L392.194 215.504L386.11 198.44H389.458L393.886 211.04L398.566 198.44H401.734L392.194 224H389.026Z" fill="white"/>
<rect x="997" y="160" width="393" height="72" rx="16" fill="#3CB7E5"/>
<path d="M1044.06 207V182.232H1045.28L1055.76 196.704L1066.27 182.232H1067.5V207H1064.15V190.656L1056.34 201.312H1055.18L1047.41 190.656V207H1044.06ZM1077.62 207.396C1074.24 207.396 1071.83 205.236 1071.83 202.212C1071.83 199.08 1074.56 196.776 1078.27 196.776C1080 196.776 1081.47 197.172 1082.91 197.964V197.136C1082.91 194.58 1081.26 192.852 1078.85 192.852C1077.26 192.852 1075.97 193.536 1074.96 194.904L1072.87 192.852C1074.53 190.98 1076.65 190.044 1079.03 190.044C1083.13 190.044 1086.01 192.96 1086.01 196.992V207H1082.91V204.804C1081.55 206.532 1079.71 207.396 1077.62 207.396ZM1078.27 204.768C1080.83 204.768 1082.7 203.112 1082.88 200.664C1081.4 199.656 1080.11 199.224 1078.45 199.224C1076.29 199.224 1074.92 200.34 1074.92 202.032C1074.92 203.724 1076.22 204.768 1078.27 204.768ZM1090.05 207.216C1089.62 207.216 1089.19 207.18 1088.9 207.108V203.976C1089.15 204.048 1089.51 204.12 1089.84 204.12C1091.13 204.12 1091.74 203.184 1091.74 201.096V190.44H1104.06V207H1100.96V193.248H1094.84V201.06C1094.84 205.164 1093.22 207.216 1090.05 207.216ZM1113.45 207.396C1110.06 207.396 1107.65 205.236 1107.65 202.212C1107.65 199.08 1110.39 196.776 1114.09 196.776C1115.82 196.776 1117.3 197.172 1118.74 197.964V197.136C1118.74 194.58 1117.08 192.852 1114.67 192.852C1113.09 192.852 1111.79 193.536 1110.78 194.904L1108.69 192.852C1110.35 190.98 1112.47 190.044 1114.85 190.044C1118.95 190.044 1121.83 192.96 1121.83 196.992V207H1118.74V204.804C1117.37 206.532 1115.53 207.396 1113.45 207.396ZM1114.09 204.768C1116.65 204.768 1118.52 203.112 1118.7 200.664C1117.23 199.656 1115.93 199.224 1114.27 199.224C1112.11 199.224 1110.75 200.34 1110.75 202.032C1110.75 203.724 1112.04 204.768 1114.09 204.768ZM1125.62 207L1129.66 200.736C1127.46 199.944 1126.13 198.108 1126.13 195.804C1126.13 192.672 1128.58 190.44 1132.32 190.44H1138.8V207H1135.7V201.204H1132.93L1129.26 207H1125.62ZM1132.43 198.396H1135.7V193.248H1132.43C1130.48 193.248 1129.22 194.22 1129.22 195.84C1129.22 197.424 1130.52 198.396 1132.43 198.396ZM1152.1 207V182.88H1170.06V207H1166.71V186.012H1155.44V207H1152.1ZM1183.16 207.396C1178.37 207.396 1174.56 203.544 1174.56 198.72C1174.56 193.932 1178.37 190.044 1183.16 190.044C1187.91 190.044 1191.73 193.896 1191.73 198.72C1191.73 203.508 1187.91 207.396 1183.16 207.396ZM1183.16 204.48C1186.29 204.48 1188.53 202.068 1188.53 198.72C1188.53 195.372 1186.29 192.96 1183.16 192.96C1180.03 192.96 1177.76 195.372 1177.76 198.72C1177.76 202.068 1180.03 204.48 1183.16 204.48ZM1195.03 207.216C1194.6 207.216 1194.16 207.18 1193.88 207.108V203.976C1194.13 204.048 1194.49 204.12 1194.81 204.12C1196.11 204.12 1196.72 203.184 1196.72 201.096V190.44H1209.03V207H1205.94V193.248H1199.82V201.06C1199.82 205.164 1198.2 207.216 1195.03 207.216ZM1212.99 207L1217.02 200.736C1214.82 199.944 1213.49 198.108 1213.49 195.804C1213.49 192.672 1215.94 190.44 1219.68 190.44H1226.16V207H1223.07V201.204H1220.3L1216.62 207H1212.99ZM1219.79 198.396H1223.07V193.248H1219.79C1217.85 193.248 1216.59 194.22 1216.59 195.84C1216.59 197.424 1217.88 198.396 1219.79 198.396ZM1230.83 207V190.44H1233.92V197.244H1241.74V190.44H1244.83V207H1241.74V200.052H1233.92V207H1230.83ZM1249.5 207V190.44H1252.59V198.288L1259.25 190.44H1262.89L1255.98 198.468L1263.36 207H1259.36L1252.59 199.152V207H1249.5ZM1270.6 207.396C1267.21 207.396 1264.8 205.236 1264.8 202.212C1264.8 199.08 1267.54 196.776 1271.24 196.776C1272.97 196.776 1274.45 197.172 1275.89 197.964V197.136C1275.89 194.58 1274.23 192.852 1271.82 192.852C1270.24 192.852 1268.94 193.536 1267.93 194.904L1265.84 192.852C1267.5 190.98 1269.62 190.044 1272 190.044C1276.1 190.044 1278.98 192.96 1278.98 196.992V207H1275.89V204.804C1274.52 206.532 1272.68 207.396 1270.6 207.396ZM1271.24 204.768C1273.8 204.768 1275.67 203.112 1275.85 200.664C1274.38 199.656 1273.08 199.224 1271.42 199.224C1269.26 199.224 1267.9 200.34 1267.9 202.032C1267.9 203.724 1269.19 204.768 1271.24 204.768ZM1291.37 207V204.048C1291.37 199.872 1294.53 197.64 1298.06 195.516C1301.3 193.644 1303.46 192.06 1303.46 189.54C1303.46 187.2 1301.7 185.616 1299.21 185.616C1296.69 185.616 1295 187.164 1294.32 190.188L1291.22 189.576C1292.01 185.148 1295 182.484 1299.21 182.484C1303.64 182.484 1306.81 185.436 1306.81 189.468C1306.81 193.248 1304.04 195.552 1299.68 198.18C1297.16 199.728 1294.71 201.42 1294.71 203.868H1306.88V207H1291.37ZM1311.16 207V204.048C1311.16 199.872 1314.33 197.64 1317.86 195.516C1321.1 193.644 1323.26 192.06 1323.26 189.54C1323.26 187.2 1321.49 185.616 1319.01 185.616C1316.49 185.616 1314.8 187.164 1314.11 190.188L1311.02 189.576C1311.81 185.148 1314.8 182.484 1319.01 182.484C1323.44 182.484 1326.6 185.436 1326.6 189.468C1326.6 193.248 1323.83 195.552 1319.48 198.18C1316.96 199.728 1314.51 201.42 1314.51 203.868H1326.68V207H1311.16ZM1335.7 207.396C1332.32 207.396 1329.91 205.236 1329.91 202.212C1329.91 199.08 1332.64 196.776 1336.35 196.776C1338.08 196.776 1339.56 197.172 1341 197.964V197.136C1341 194.58 1339.34 192.852 1336.93 192.852C1335.34 192.852 1334.05 193.536 1333.04 194.904L1330.95 192.852C1332.61 190.98 1334.73 190.044 1337.11 190.044C1341.21 190.044 1344.09 192.96 1344.09 196.992V207H1341V204.804C1339.63 206.532 1337.79 207.396 1335.7 207.396ZM1336.35 204.768C1338.91 204.768 1340.78 203.112 1340.96 200.664C1339.48 199.656 1338.19 199.224 1336.53 199.224C1334.37 199.224 1333 200.34 1333 202.032C1333 203.724 1334.3 204.768 1336.35 204.768Z" fill="white"/>
</g>
<defs>
<clipPath id="clip0_181_6030">
<rect width="1416" height="319" rx="15" fill="white"/>
</clipPath>
</defs>
</svg>
