<svg width="706" height="524" viewBox="0 0 706 524" fill="none" xmlns="http://www.w3.org/2000/svg">
<path d="M173.1 349.556C296.064 320.684 441.161 326.698 522.317 336.024C529.36 309.779 539.285 273.551 548.555 240.644C542.195 263.395 548.581 370.266 548.581 398.793C548.581 408.999 543.662 441.015 548.581 448.032C567.435 451.039 589.061 453.259 612.522 448.032C658.284 437.835 668.749 385.763 671.208 380.751C671.208 257.09 604.81 33.0723 548.581 33.0723C492.351 33.0723 451.334 103.736 357.882 138.316C269.348 111.253 238.919 -33.9792 173.101 33.0723C107.282 100.124 -9.77613 371.354 26.4985 416.459C33.5345 431.995 60.156 460.059 110.353 448.032C110.353 448.032 128.388 424.477 130.028 416.459L157.689 240.552C163.395 279.675 167.624 323.731 173.1 349.556Z" fill="#3CB7E5"/>
</svg>
