<svg width="850" height="364" viewBox="0 0 850 364" fill="none" xmlns="http://www.w3.org/2000/svg">
<g clip-path="url(#clip0_308_8426)">
<path d="M541.157 50.9814C553.153 50.4488 567.735 51.2154 595.822 54.852C651.674 62.0834 704.335 119.404 714.507 158.985C718.345 176.051 849.943 220.306 849.943 220.306L675.405 266.587C675.405 218.436 609.66 137.305 576.705 102.667C578.048 108.981 595.08 251.323 576.622 285.389C509.594 280.327 420.58 273.819 238.019 280.327C188.49 237.962 221.447 129.55 234.876 106.626C210.939 138.574 175.141 211.801 202.407 280.327C202.407 280.327 41.8325 215.967 -0.0566406 208.735C48.814 194.851 83.609 157.731 94.8976 140.907C102.925 129.45 113.169 91.5999 150.75 70.7611C164.713 64.9761 220.908 52.2488 266.986 47.6205C245.46 44.1968 238.019 35.6137 238.019 28.6715C238.019 19.9937 549.738 17.8243 565.446 28.6715C576.258 36.1369 564.747 45.7271 541.157 50.9814Z" fill="#7E36DA"/>
</g>
<defs>
<clipPath id="clip0_308_8426">
<rect width="850" height="364" rx="11.4122" fill="white"/>
</clipPath>
</defs>
</svg>
