<svg width="362" height="364" viewBox="0 0 362 364" fill="none" xmlns="http://www.w3.org/2000/svg">
<path d="M91.0633 319.327C148.564 303.137 216.414 306.51 254.365 311.74C257.656 297.034 269.474 174.563 273.83 155.768C270.874 168.621 273.853 228.427 273.853 244.404C273.853 250.127 271.553 268.081 273.853 272.015C282.67 273.701 292.782 274.946 303.753 272.015C325.153 266.297 330.046 237.098 331.197 234.288C331.197 164.945 378.6 39.3271 303.753 39.3271C228.907 39.3271 228.378 78.9515 184.678 98.3422C143.278 83.1669 123.174 39.3273 60.5821 39.3271C-2.00943 39.327 12.7531 229.018 29.7159 254.311C33.0061 263.022 45.4549 278.76 68.9283 272.015C68.9283 272.015 77.3617 258.807 78.1284 254.311L91.0633 155.671C93.7316 177.609 88.5026 304.846 91.0633 319.327Z" fill="#FA7AB1"/>
</svg>
