<svg width="262" height="364" viewBox="0 0 262 364" fill="none" xmlns="http://www.w3.org/2000/svg">
<path d="M167.181 29C138.5 46.8926 117 46.8926 91.2648 29C81.1976 29 61.3933 55.0529 48.8506 74.3279C27.0659 125.728 1.42896 302.875 0.108675 308.382C-1.21161 313.889 10.0109 313.889 6.05 320.314C2.88132 325.454 4.72972 332.246 6.05 335H30.4753C30.6954 330.105 31.9276 320.314 35.0963 320.314C38.265 320.314 39.6086 296.756 41.589 294.614C127.408 260.653 194.191 299.203 213.335 308.382C214.875 302.263 217.956 290.943 217.956 294.614C217.956 298.286 224.117 301.651 227.198 302.875C228.298 306.546 231.027 313.889 233.139 313.889H254.924C254.044 310.83 252.812 304.344 254.924 302.875C257.036 301.406 259.765 296.756 260.865 294.614C263.506 234.035 226.538 79.8351 217.956 66.0672C211.091 55.0529 178.184 31.1417 167.181 29Z" fill="#FF4A11"/>
</svg>
