<svg width="439" height="524" viewBox="0 0 439 524" fill="none" xmlns="http://www.w3.org/2000/svg">
<path d="M276.632 51.873C231.025 168.543 178.164 100.486 157.434 51.873C141.627 51.873 110.532 87.5586 90.8381 113.96C56.6334 184.365 16.3804 427.009 14.3074 434.552C12.2343 442.096 29.855 442.096 23.636 450.896C18.6607 457.937 21.5629 467.24 23.636 471.012H61.9866C62.3321 464.307 64.267 450.896 69.2422 450.896C74.2174 450.896 76.327 418.628 79.4365 415.694C214.182 369.177 319.04 421.98 349.099 434.552C351.517 426.171 356.354 410.665 356.354 415.694C356.354 420.723 366.028 425.333 370.865 427.009C372.593 432.038 376.877 442.096 380.194 442.096H414.398C413.016 437.905 411.082 429.021 414.398 427.009C417.715 424.997 421.999 418.628 423.727 415.694C427.873 332.717 369.829 121.504 356.354 102.645C345.574 87.5586 293.907 54.8066 276.632 51.873Z" fill="#FFC516"/>
</svg>
