<svg width="398" height="524" viewBox="0 0 398 524" fill="none" xmlns="http://www.w3.org/2000/svg">
<g clip-path="url(#clip0_308_8416)">
<path d="M253.313 76.0932C258.937 75.4906 265.774 76.3581 278.943 80.4732C305.129 88.6564 329.819 153.522 334.589 198.312C336.388 217.623 398.088 267.703 398.088 267.703L316.255 320.075C316.255 320.075 287.614 225.968 278.943 198.312C276.749 184.549 272.95 159.936 271.067 145.396C273.16 171.563 276.844 236.955 269.941 267.703C238.515 261.974 196.78 254.609 111.186 261.974C93.8677 226.22 98.06 183.22 103.922 157.24C96.2552 177.673 85.8183 204.04 85.8183 204.04C78.881 224.989 94.4899 335.624 94.4899 335.624C94.4899 335.624 19.2042 262.793 -0.435547 254.609C22.4775 238.898 38.7912 196.892 44.0838 177.854C47.8477 164.889 52.6504 122.058 70.2702 98.4762C76.8168 91.9297 103.164 77.5275 124.768 72.29C114.675 68.4157 111.186 58.703 111.186 50.8471C111.186 41.0272 257.336 38.5722 264.701 50.8471C269.77 59.295 264.373 70.1474 253.313 76.0932Z" fill="#0500C6"/>
</g>
<defs>
<clipPath id="clip0_308_8416">
<rect width="398" height="524" rx="11.4122" fill="white"/>
</clipPath>
</defs>
</svg>
