<svg width="399" height="524" viewBox="0 0 399 524" fill="none" xmlns="http://www.w3.org/2000/svg">
<g clip-path="url(#clip0_308_8420)">
<path d="M248.436 117.985C253.891 116.946 260.583 118.071 273.565 123.883C299.382 135.44 325.899 231.597 332.25 298.3C334.738 327.066 396.739 400.245 396.739 400.245L319.031 480.413C319.031 480.413 287.552 340.728 278.053 299.684C275.392 279.206 270.755 242.581 268.367 220.935C271.402 259.921 277.48 357.386 271.928 403.43C241.101 395.666 200.173 385.716 117.087 398.831C98.8572 345.92 101.303 281.665 106.023 242.761C99.3339 273.435 90.1727 313.031 90.1727 313.031C84.2137 344.457 103.629 509.122 103.629 509.122C103.629 509.122 27.5296 402.339 8.0894 390.619C29.8078 366.609 44.0973 303.536 48.5273 275.001C51.6995 255.567 54.7462 191.547 71.0094 155.929C77.1363 145.999 102.25 123.858 123.092 115.507C113.114 109.978 109.346 95.5745 109.047 83.8544C108.673 69.2043 250.926 61.9085 258.566 80.038C263.825 92.5153 258.982 108.84 248.436 117.985Z" fill="#DA1265"/>
</g>
<defs>
<clipPath id="clip0_308_8420">
<rect width="399" height="524" rx="11.4122" fill="white"/>
</clipPath>
</defs>
</svg>
